<?xml version="1.0" standalone="no"?>
<!DOCTYPE svg PUBLIC "-//W3C//DTD SVG 20010904//EN"
 "http://www.w3.org/TR/2001/REC-SVG-20010904/DTD/svg10.dtd">
<svg version="1.0" xmlns="http://www.w3.org/2000/svg"
 width="2560.000000pt" height="563.000000pt" viewBox="0 0 2560.000000 563.000000"
 preserveAspectRatio="xMidYMid meet">

<g transform="translate(0.000000,563.000000) scale(0.100000,-0.100000)"
fill="#000000" stroke="none">
<path d="M2168 5619 c-293 -34 -719 -225 -1039 -466 -114 -85 -299 -276 -349
-359 -97 -162 -105 -316 -23 -478 14 -27 107 -158 208 -292 102 -134 181 -245
177 -248 -4 -2 -92 -27 -197 -56 -502 -137 -625 -188 -747 -310 -122 -122
-167 -234 -189 -468 -41 -451 97 -1050 320 -1383 121 -182 258 -257 445 -246
94 5 166 27 538 160 70 25 130 42 133 37 3 -5 5 -181 4 -392 -2 -322 0 -395
14 -460 45 -214 142 -327 382 -443 275 -133 555 -197 929 -211 450 -18 771 86
878 283 57 105 60 133 56 503 l-3 338 65 -25 c578 -221 759 -269 912 -244 156
26 260 83 387 216 324 338 583 906 608 1333 14 259 -66 421 -257 517 -36 18
-167 63 -290 100 -345 102 -335 99 -334 116 1 8 66 96 146 194 329 410 402
544 402 740 0 112 -26 203 -95 334 -96 179 -213 335 -373 495 -261 261 -578
468 -805 527 -124 31 -252 25 -341 -17 -118 -57 -148 -90 -395 -453 -80 -117
-122 -171 -135 -171 -11 0 -29 18 -46 48 -43 74 -220 337 -297 442 -216 294
-379 374 -689 339z m940 -935 c12 -4 22 -13 22 -21 0 -8 -23 -53 -50 -100 -92
-155 -183 -353 -216 -472 -3 -8 -16 2 -35 28 -63 88 -166 128 -303 117 -91 -7
-170 -27 -365 -93 -205 -69 -303 -69 -356 1 -71 93 -36 169 129 280 202 136
473 231 756 266 77 9 378 5 418 -6z m819 -369 c56 -24 176 -118 265 -209 125
-127 230 -273 308 -431 96 -192 189 -480 163 -506 -7 -7 -49 -2 -134 16 -175
37 -309 55 -416 55 -85 0 -111 8 -83 25 6 4 23 30 37 58 40 75 39 184 -2 281
-31 75 -107 195 -204 321 -153 199 -170 317 -57 386 38 23 75 24 123 4z m-978
-550 c182 -254 454 -446 781 -555 52 -17 96 -33 98 -34 1 -2 -14 -23 -34 -47
-52 -61 -135 -191 -176 -274 -104 -209 -158 -446 -158 -694 0 -66 -1 -121 -2
-121 -2 0 -47 16 -100 35 -176 62 -278 79 -493 79 -168 0 -205 -3 -315 -27
-69 -14 -158 -38 -199 -52 -41 -14 -78 -25 -83 -25 -4 0 -8 60 -8 134 0 151
-23 311 -65 446 -38 122 -153 350 -234 460 -56 78 -66 96 -52 101 9 4 59 19
111 34 296 83 577 292 794 589 47 63 51 67 64 50 7 -11 39 -55 71 -99z m-1336
-456 c71 -55 85 -70 70 -75 -91 -31 -157 -84 -193 -154 -43 -85 -52 -145 -60
-415 -5 -153 -13 -276 -20 -300 -7 -22 -29 -57 -50 -77 -33 -34 -43 -38 -86
-38 -59 0 -106 26 -130 71 -53 104 -99 312 -110 506 -14 242 49 563 157 803
l30 65 151 -159 c84 -87 192 -189 241 -227z m2875 -863 c84 -44 102 -121 57
-251 -39 -112 -111 -253 -196 -381 -124 -186 -390 -435 -585 -544 -58 -34 -71
-24 -79 57 -19 204 -51 373 -100 540 -7 21 -6 21 37 6 61 -21 160 -14 223 17
71 33 206 172 303 311 104 148 161 211 214 238 50 24 88 27 126 7z m-2308
-741 c51 -105 173 -177 460 -270 192 -62 241 -86 289 -140 27 -31 31 -43 31
-90 0 -46 -5 -59 -30 -89 -42 -47 -102 -60 -244 -53 -377 18 -782 191 -1066
454 l-55 51 75 33 c147 65 326 158 415 217 l90 60 7 -64 c3 -35 16 -84 28
-109z"/>
<path d="M7930 4433 c-273 -10 -690 -46 -737 -64 l-23 -9 0 -1484 c0 -1175 3
-1486 13 -1494 6 -5 104 -18 217 -28 282 -26 883 -26 1079 -1 169 22 353 59
456 92 264 85 469 252 575 468 52 106 71 179 77 301 20 351 -181 643 -529 767
-49 18 -88 33 -88 35 0 2 34 19 76 38 173 81 290 185 363 326 126 241 86 525
-102 726 -80 86 -157 141 -262 190 -237 109 -612 156 -1115 137z m469 -534
c220 -34 337 -135 349 -299 12 -168 -96 -291 -308 -349 -117 -33 -497 -53
-542 -29 -17 8 -18 34 -18 328 0 352 -1 349 63 351 18 1 79 5 137 8 118 8 224
5 319 -10z m74 -1227 c162 -45 268 -116 315 -214 75 -154 41 -333 -85 -448
-63 -58 -130 -92 -238 -122 -73 -20 -101 -21 -319 -20 -162 1 -243 5 -252 13
-11 9 -14 84 -14 409 0 218 3 400 8 404 4 4 120 6 257 4 216 -4 261 -8 328
-26z"/>
<path d="M10775 3784 c-147 -23 -222 -39 -318 -70 -129 -42 -354 -146 -363
-168 -3 -9 33 -86 86 -183 110 -199 137 -243 150 -243 6 0 36 13 68 29 155 78
333 121 503 121 218 0 324 -49 380 -175 24 -53 38 -199 21 -223 -6 -9 -25 -7
-82 13 -134 46 -224 59 -385 59 -332 0 -627 -114 -782 -303 -58 -71 -116 -193
-140 -296 -25 -109 -25 -333 1 -424 101 -368 428 -603 836 -603 186 0 367 56
505 156 l50 36 3 -62 c2 -35 7 -67 12 -72 5 -5 140 -8 301 -9 275 0 293 1 306
19 12 16 14 153 10 864 -3 759 -6 853 -21 920 -76 326 -286 502 -703 590 -96
20 -366 35 -438 24z m215 -1334 c150 -19 300 -69 314 -105 3 -9 6 -73 6 -141
0 -151 -9 -177 -81 -234 -107 -85 -211 -121 -351 -121 -147 -1 -250 43 -309
131 -37 56 -49 99 -49 185 0 158 101 261 276 284 97 12 100 12 194 1z"/>
<path d="M13539 3779 c-155 -13 -318 -70 -434 -153 l-50 -36 -3 62 c-2 44 -8
67 -19 76 -20 15 -569 17 -593 2 -12 -8 -14 -162 -14 -1180 1 -644 4 -1173 7
-1176 8 -8 596 -8 605 0 4 4 9 341 12 749 6 741 6 742 29 804 47 129 134 216
248 249 41 12 84 15 162 12 90 -3 113 -8 156 -30 109 -57 185 -176 204 -321 7
-49 11 -339 11 -767 0 -517 3 -691 12 -696 20 -12 589 -7 602 6 13 13 17 1380
4 1586 -26 423 -208 679 -553 779 -49 14 -123 28 -165 31 -41 3 -88 6 -105 7
-16 2 -69 0 -116 -4z"/>
<path d="M15690 3780 c-178 -25 -339 -75 -522 -162 -88 -42 -128 -67 -128 -78
0 -19 201 -385 224 -408 13 -14 26 -10 116 32 55 26 144 59 198 73 86 24 116
27 267 27 153 1 175 -1 225 -21 77 -31 124 -74 157 -141 24 -49 28 -69 28
-144 0 -47 -3 -89 -6 -92 -3 -3 -39 5 -79 19 -292 99 -649 78 -920 -56 -90
-45 -117 -64 -196 -143 -79 -78 -98 -104 -137 -186 -63 -130 -81 -228 -74
-385 15 -312 143 -535 394 -682 125 -73 373 -131 518 -119 157 12 328 73 450
160 l50 36 3 -62 c2 -35 7 -67 12 -72 5 -5 140 -8 301 -9 271 0 293 2 306 19
10 14 13 144 12 683 0 749 -9 1045 -33 1136 -9 33 -34 96 -55 140 -108 219
-299 343 -644 416 -106 23 -363 33 -467 19z m267 -1331 c98 -13 258 -64 284
-90 17 -17 19 -34 19 -136 0 -65 -5 -136 -11 -158 -17 -61 -88 -123 -189 -167
-116 -50 -199 -63 -298 -49 -146 21 -242 89 -278 196 -21 60 -15 195 9 246 64
131 237 190 464 158z"/>
<path d="M19835 3783 c-221 -20 -417 -98 -587 -234 l-72 -58 -61 63 c-103 107
-232 179 -379 211 -96 21 -307 16 -401 -10 -72 -20 -222 -90 -285 -133 l-45
-31 -3 62 c-2 43 -8 66 -19 75 -21 15 -569 17 -593 2 -13 -8 -15 -150 -15
-1179 0 -643 3 -1172 7 -1176 4 -4 137 -7 297 -7 215 -1 294 2 305 11 13 11
16 115 19 749 3 645 5 744 19 790 49 158 138 243 286 272 167 33 326 -38 392
-176 55 -112 53 -93 59 -891 4 -408 9 -744 13 -748 4 -4 138 -7 298 -8 214 0
294 3 303 12 9 9 12 181 12 724 1 789 0 784 66 908 66 124 170 182 324 182
159 0 255 -56 314 -184 58 -123 61 -170 61 -928 0 -381 4 -692 9 -700 7 -12
61 -14 301 -14 168 1 296 5 301 10 6 6 9 335 7 854 l-3 844 -28 99 c-15 55
-48 142 -73 195 -86 177 -260 318 -469 380 -112 33 -239 45 -360 34z"/>
<path d="M22060 3780 c-144 -20 -314 -85 -430 -163 -233 -157 -411 -446 -477
-775 -25 -124 -24 -448 1 -587 102 -560 463 -901 990 -933 289 -18 510 35 718
170 89 58 228 182 228 203 0 20 -338 335 -360 335 -4 0 -45 -25 -91 -56 -106
-72 -167 -99 -265 -119 -235 -49 -476 70 -562 277 -40 97 -58 184 -42 203 11
13 113 15 711 15 680 0 699 1 709 19 5 11 10 84 10 165 0 673 -294 1123 -804
1232 -89 19 -253 25 -336 14z m273 -569 c73 -29 145 -98 186 -179 35 -70 67
-190 53 -204 -4 -4 -186 -7 -403 -6 l-394 3 2 51 c6 149 128 302 278 348 71
22 203 16 278 -13z"/>
<path d="M23345 3720 c3 -11 23 -45 45 -77 347 -523 640 -980 640 -998 0 -13
-175 -288 -410 -646 -225 -342 -409 -624 -407 -625 1 -1 162 -4 357 -5 298 -3
359 -1 377 11 21 13 313 490 412 673 24 42 45 77 47 77 2 0 20 -32 40 -72 20
-39 98 -175 173 -302 76 -127 153 -258 172 -291 19 -33 50 -70 69 -84 34 -22
40 -23 160 -17 69 3 227 6 352 6 l227 0 -116 178 c-64 97 -248 378 -409 623
-214 325 -294 454 -294 475 0 21 49 103 171 289 300 454 511 778 516 792 4 11
-55 13 -339 13 -208 0 -357 -4 -374 -10 -34 -12 -19 11 -202 -305 -80 -137
-146 -252 -148 -254 -1 -2 -15 20 -31 48 -84 154 -287 498 -301 509 -12 9
-103 12 -375 12 -352 0 -358 0 -352 -20z"/>
</g>
</svg>
