<?xml version="1.0" encoding="UTF-8"?>
<!DOCTYPE svg PUBLIC "-//W3C//DTD SVG 1.1//EN" "http://www.w3.org/Graphics/SVG/1.1/DTD/svg11.dtd">
<svg xmlns="http://www.w3.org/2000/svg" version="1.1" width="512px" height="335px" style="shape-rendering:geometricPrecision; text-rendering:geometricPrecision; image-rendering:optimizeQuality; fill-rule:evenodd; clip-rule:evenodd" xmlns:xlink="http://www.w3.org/1999/xlink">
<g><path style="opacity:0.151" fill="#605f60" d="M 473.5,58.5 C 460.2,58.5765 446.533,58.7432 432.5,59C 429.776,59.2695 427.109,59.7695 424.5,60.5C 423.817,60.1373 423.15,59.8039 422.5,59.5C 421.608,57.0543 420.108,56.3877 418,57.5C 416.266,56.7511 414.433,56.2511 412.5,56C 315.833,55.3333 219.167,55.3333 122.5,56C 117.531,57.6056 112.531,59.2723 107.5,61C 105.282,65.6054 103.782,70.4387 103,75.5C 102.806,126.515 102.306,177.515 101.5,228.5C 101.5,228.833 101.5,229.167 101.5,229.5C 99.4872,230.475 98.1539,232.142 97.5,234.5C 97.7093,235.086 98.0426,235.586 98.5,236C 97.8875,238.147 97.2208,240.314 96.5,242.5C 83.1872,246.898 69.5206,248.398 55.5,247C 51.0569,246.128 46.7236,244.962 42.5,243.5C 41.367,178.677 41.2004,113.677 42,48.5C 45.9671,25.8705 59.4671,13.7039 82.5,12C 218.499,10.8597 354.499,10.5263 490.5,11C 492.556,11.3108 494.556,11.8108 496.5,12.5C 503.746,15.4868 505.246,20.8202 501,28.5C 496.037,31.4955 491.037,34.4955 486,37.5C 485.667,37.1667 485.333,36.8333 485,36.5C 483.807,38.6051 482.14,40.2718 480,41.5C 478.627,44.4125 477.127,47.2458 475.5,50C 475.957,50.414 476.291,50.914 476.5,51.5C 474.599,53.8687 473.599,56.202 473.5,58.5 Z M 59.5,22.5 C 59.0269,23.9063 58.0269,24.573 56.5,24.5C 56.9731,23.0937 57.9731,22.427 59.5,22.5 Z M 50.5,31.5 C 50.0075,33.8185 49.0075,35.8185 47.5,37.5C 47.461,34.911 48.461,32.911 50.5,31.5 Z"/></g>
<g><path style="opacity:0.109" fill="#396372" d="M 369.5,16.5 C 389.831,15.8334 410.331,15.5 431,15.5C 451.844,15.5003 472.344,16.167 492.5,17.5C 492.167,17.5 491.833,17.5 491.5,17.5C 451.003,16.5014 410.337,16.1681 369.5,16.5 Z"/></g>
<g><path style="opacity:0.996" fill="#026aad" d="M 369.5,16.5 C 410.337,16.1681 451.003,16.5014 491.5,17.5C 473.77,19.8967 463.77,29.8967 461.5,47.5C 343.5,47.5 225.5,47.5 107.5,47.5C 127.326,46.5029 147.326,46.1695 167.5,46.5C 189.5,46.5 211.5,46.5 233.5,46.5C 243.833,46.5 254.167,46.5 264.5,46.5C 278.833,46.5 293.167,46.5 307.5,46.5C 358.501,46.6667 409.501,46.5 460.5,46C 417.833,45.6667 375.167,45.3333 332.5,45C 339.833,36.3333 347.167,27.6667 354.5,19C 359.684,18.8261 364.684,18.3261 369.5,17.5C 369.5,17.1667 369.5,16.8333 369.5,16.5 Z"/></g>
<g><path style="opacity:1" fill="#0a3f96" d="M 70.5,17.5 C 72.8333,17.5 75.1667,17.5 77.5,17.5C 115.5,17.5 153.5,17.5 191.5,17.5C 183.016,18.493 174.349,18.8264 165.5,18.5C 145.831,18.3334 126.164,18.5 106.5,19C 87.462,41.5528 68.2953,64.0528 49,86.5C 48.5,109.498 48.3334,132.498 48.5,155.5C 48.5,171.5 48.5,187.5 48.5,203.5C 48.5,214.5 48.5,225.5 48.5,236.5C 47.5008,170.335 47.1675,104.002 47.5,37.5C 49.0075,35.8185 50.0075,33.8185 50.5,31.5C 51.3382,31.1583 51.6716,30.4916 51.5,29.5C 52.1667,29.5 52.5,29.1667 52.5,28.5C 53.1667,28.5 53.5,28.1667 53.5,27.5C 54.1667,27.5 54.5,27.1667 54.5,26.5C 55.1667,26.5 55.5,26.1667 55.5,25.5C 56.1667,25.5 56.5,25.1667 56.5,24.5C 58.0269,24.573 59.0269,23.9063 59.5,22.5C 60.4916,22.6716 61.1583,22.3382 61.5,21.5C 62.4916,21.6716 63.1583,21.3382 63.5,20.5C 64.1667,20.5 64.5,20.1667 64.5,19.5C 65.791,19.7373 66.791,19.404 67.5,18.5C 68.791,18.7373 69.791,18.404 70.5,17.5 Z"/></g>
<g><path style="opacity:1" fill="#004198" d="M 165.5,18.5 C 158.378,27.46 151.045,36.2933 143.5,45C 151.677,45.1708 159.677,45.6708 167.5,46.5C 147.326,46.1695 127.326,46.5029 107.5,47.5C 99.8901,49.2764 95.0567,53.943 93,61.5C 92.5,83.1641 92.3334,104.831 92.5,126.5C 91.6303,121.841 90.9636,117.008 90.5,112C 90.5589,110.564 90.8922,109.231 91.5,108C 90.8333,107.333 90.1667,107.333 89.5,108C 76.3422,124.321 62.6755,140.154 48.5,155.5C 48.3334,132.498 48.5,109.498 49,86.5C 68.2953,64.0528 87.462,41.5528 106.5,19C 126.164,18.5 145.831,18.3334 165.5,18.5 Z"/></g>
<g><path style="opacity:1" fill="#00479c" d="M 191.5,17.5 C 213.5,17.5 235.5,17.5 257.5,17.5C 255.735,18.4614 253.735,18.7947 251.5,18.5C 236.496,18.3334 221.496,18.5001 206.5,19C 199.058,27.3664 191.725,35.8664 184.5,44.5C 199.152,45.4993 213.818,45.8326 228.5,45.5C 230.415,45.2155 232.081,45.5489 233.5,46.5C 211.5,46.5 189.5,46.5 167.5,46.5C 159.677,45.6708 151.677,45.1708 143.5,45C 151.045,36.2933 158.378,27.46 165.5,18.5C 174.349,18.8264 183.016,18.493 191.5,17.5 Z"/></g>
<g><path style="opacity:1" fill="#004d9e" d="M 251.5,18.5 C 243.606,27.2739 235.94,36.2739 228.5,45.5C 213.818,45.8326 199.152,45.4993 184.5,44.5C 191.725,35.8664 199.058,27.3664 206.5,19C 221.496,18.5001 236.496,18.3334 251.5,18.5 Z"/></g>
<g><path style="opacity:1" fill="#0054a3" d="M 257.5,17.5 C 267.839,17.3335 278.172,17.5002 288.5,18C 286.833,18.3333 285.167,18.6667 283.5,19C 276.176,27.9892 268.51,36.6559 260.5,45C 262.058,45.21 263.391,45.71 264.5,46.5C 254.167,46.5 243.833,46.5 233.5,46.5C 232.081,45.5489 230.415,45.2155 228.5,45.5C 235.94,36.2739 243.606,27.2739 251.5,18.5C 253.735,18.7947 255.735,18.4614 257.5,17.5 Z"/></g>
<g><path style="opacity:1" fill="#0459a1" d="M 77.5,17.5 C 77.5,17.1667 77.5,16.8333 77.5,16.5C 174.833,16.5 272.167,16.5 369.5,16.5C 369.5,16.8333 369.5,17.1667 369.5,17.5C 356.421,17.1863 343.421,17.5197 330.5,18.5C 322.16,18.3336 313.827,18.5003 305.5,19C 298.167,27.6667 290.833,36.3333 283.5,45C 291.493,45.4997 299.493,45.6664 307.5,45.5C 307.5,45.8333 307.5,46.1667 307.5,46.5C 293.167,46.5 278.833,46.5 264.5,46.5C 263.391,45.71 262.058,45.21 260.5,45C 268.51,36.6559 276.176,27.9892 283.5,19C 285.167,18.6667 286.833,18.3333 288.5,18C 278.172,17.5002 267.839,17.3335 257.5,17.5C 235.5,17.5 213.5,17.5 191.5,17.5C 153.5,17.5 115.5,17.5 77.5,17.5 Z"/></g>
<g><path style="opacity:1" fill="#0060a9" d="M 330.5,18.5 C 323.524,28.1381 315.858,37.1381 307.5,45.5C 299.493,45.6664 291.493,45.4997 283.5,45C 290.833,36.3333 298.167,27.6667 305.5,19C 313.827,18.5003 322.16,18.3336 330.5,18.5 Z"/></g>
<g><path style="opacity:1" fill="#0067ae" d="M 369.5,17.5 C 364.684,18.3261 359.684,18.8261 354.5,19C 347.167,27.6667 339.833,36.3333 332.5,45C 375.167,45.3333 417.833,45.6667 460.5,46C 409.501,46.5 358.501,46.6667 307.5,46.5C 307.5,46.1667 307.5,45.8333 307.5,45.5C 315.858,37.1381 323.524,28.1381 330.5,18.5C 343.421,17.5197 356.421,17.1863 369.5,17.5 Z"/></g>
<g><path style="opacity:0.162" fill="#616770" d="M 473.5,58.5 C 474.525,61.6655 475.692,64.3322 477,66.5C 477.167,92.3333 477.333,118.167 477.5,144C 477.491,170.313 476.824,196.48 475.5,222.5C 475.709,223.086 476.043,223.586 476.5,224C 474.893,225.049 474.227,226.549 474.5,228.5C 466.104,228.817 458.104,227.484 450.5,224.5C 437.552,222.451 424.886,223.785 412.5,228.5C 412.333,180.166 412.5,131.832 413,83.5C 413.333,80.8333 413.667,78.1667 414,75.5C 415.359,74.635 416.526,73.635 417.5,72.5C 415.632,88.7475 414.965,105.081 415.5,121.5C 415.167,154.507 415.5,187.507 416.5,220.5C 417.107,220.376 417.44,220.043 417.5,219.5C 418.167,219.167 418.833,218.833 419.5,218.5C 433.275,214.284 446.941,214.617 460.5,219.5C 460.56,220.043 460.893,220.376 461.5,220.5C 462.831,179.669 462.831,139.002 461.5,98.5C 461.5,86.5 461.5,74.5 461.5,62.5C 450.828,62.3335 440.161,62.5002 429.5,63C 424.79,64.55 421.124,67.3833 418.5,71.5C 417.957,71.44 417.624,71.1067 417.5,70.5C 420.686,66.9969 421.019,63.3302 418.5,59.5C 419.833,59.5 421.167,59.5 422.5,59.5C 423.15,59.8039 423.817,60.1373 424.5,60.5C 427.109,59.7695 429.776,59.2695 432.5,59C 446.533,58.7432 460.2,58.5765 473.5,58.5 Z"/></g>
<g><path style="opacity:0.537" fill="#da4554" d="M 121.5,62.5 C 121.5,62.1667 121.5,61.8333 121.5,61.5C 122.833,61.5 124.167,61.5 125.5,61.5C 219.167,61.5 312.833,61.5 406.5,61.5C 407.167,61.5 407.833,61.5 408.5,61.5C 410.793,62.3013 410.46,62.968 407.5,63.5C 312.335,62.5006 217.001,62.1673 121.5,62.5 Z"/></g>
<g><path style="opacity:1" fill="#fa0d26" d="M 119.5,62.5 C 120.167,62.5 120.833,62.5 121.5,62.5C 217.001,62.1673 312.335,62.5006 407.5,63.5C 406.833,63.8333 406.167,64.1667 405.5,64.5C 310.069,63.8357 214.736,63.169 119.5,62.5 Z"/></g>
<g><path style="opacity:0.269" fill="#969797" d="M 120.5,60.5 C 215.999,59.5006 311.665,59.1673 407.5,59.5C 409.5,59.5 411.5,59.5 413.5,59.5C 414.445,60.9928 415.445,62.4928 416.5,64C 412.24,69.7724 409.74,76.2724 409,83.5C 408.5,132.499 408.333,181.499 408.5,230.5C 407.596,231.209 407.263,232.209 407.5,233.5C 404.212,236.449 400.879,239.449 397.5,242.5C 396.391,242.557 395.391,242.89 394.5,243.5C 299.499,243.667 204.499,243.5 109.5,243C 106.456,242.637 103.456,242.137 100.5,241.5C 99.9285,240.027 99.9285,238.36 100.5,236.5C 102.415,236.784 104.081,236.451 105.5,235.5C 198.335,235.833 291.001,235.499 383.5,234.5C 392.253,233.747 397.586,229.081 399.5,220.5C 400.498,188.004 400.832,155.338 400.5,122.5C 400.5,105.5 400.5,88.5 400.5,71.5C 401.717,68.9333 403.384,66.6 405.5,64.5C 406.167,64.1667 406.833,63.8333 407.5,63.5C 410.46,62.968 410.793,62.3013 408.5,61.5C 407.833,60.1667 407.167,60.1667 406.5,61.5C 312.833,61.5 219.167,61.5 125.5,61.5C 124.081,60.5489 122.415,60.2155 120.5,60.5 Z"/></g>
<g><path style="opacity:1" fill="#f41f32" d="M 116.5,62.5 C 117.167,62.5 117.833,62.5 118.5,62.5C 118.833,62.5 119.167,62.5 119.5,62.5C 214.736,63.169 310.069,63.8357 405.5,64.5C 403.384,66.6 401.717,68.9333 400.5,71.5C 399.5,76.0679 399.167,81.4012 399.5,87.5C 374.37,87.5617 349.704,87.5617 325.5,87.5C 308.997,78.3041 291.33,75.1374 272.5,78C 256.124,80.8491 242.457,88.3491 231.5,100.5C 229.5,101.833 227.833,103.5 226.5,105.5C 225.833,96.5 225.167,87.5 224.5,78.5C 206.83,78.3334 189.164,78.5001 171.5,79C 168.713,85.7506 164.38,91.2506 158.5,95.5C 158.5,94.5 158.5,93.5 158.5,92.5C 142.167,92.5 125.833,92.5 109.5,92.5C 109.821,98.0262 109.488,103.36 108.5,108.5C 108.5,97.1667 108.5,85.8333 108.5,74.5C 108.5,73.1667 108.5,71.8333 108.5,70.5C 109.338,70.1583 109.672,69.4916 109.5,68.5C 110.167,68.5 110.5,68.1667 110.5,67.5C 111.167,67.5 111.5,67.1667 111.5,66.5C 112.167,66.5 112.5,66.1667 112.5,65.5C 113.167,65.5 113.5,65.1667 113.5,64.5C 114.167,64.5 114.5,64.1667 114.5,63.5C 115.492,63.6716 116.158,63.3382 116.5,62.5 Z"/></g>
<g><path style="opacity:0.08" fill="#696868" d="M 422.5,59.5 C 421.167,59.5 419.833,59.5 418.5,59.5C 416.199,58.9396 413.866,58.4396 411.5,58C 314.999,57.1675 218.666,57.3342 122.5,58.5C 113.943,59.2568 108.276,63.5901 105.5,71.5C 104.8,123.339 103.967,175.339 103,227.5C 102.617,228.056 102.117,228.389 101.5,228.5C 102.306,177.515 102.806,126.515 103,75.5C 103.782,70.4387 105.282,65.6054 107.5,61C 112.531,59.2723 117.531,57.6056 122.5,56C 219.167,55.3333 315.833,55.3333 412.5,56C 414.433,56.2511 416.266,56.7511 418,57.5C 420.108,56.3877 421.608,57.0543 422.5,59.5 Z"/></g>
<g><path style="opacity:0.062" fill="#7a7a7a" d="M 105.5,71.5 C 105.811,124.186 105.478,176.852 104.5,229.5C 104.5,229.833 104.5,230.167 104.5,230.5C 103.833,230.5 103.5,230.833 103.5,231.5C 102.833,231.5 102.5,231.833 102.5,232.5C 102.5,233.167 102.167,233.5 101.5,233.5C 101.5,233.167 101.5,232.833 101.5,232.5C 101.5,231.5 101.5,230.5 101.5,229.5C 101.5,229.167 101.5,228.833 101.5,228.5C 102.117,228.389 102.617,228.056 103,227.5C 103.967,175.339 104.8,123.339 105.5,71.5 Z"/></g>
<g><path style="opacity:0.063" fill="#8d8b8b" d="M 122.5,58.5 C 217.668,58.1673 312.668,58.5006 407.5,59.5C 311.665,59.1673 215.999,59.5006 120.5,60.5C 119.443,61.206 119.776,61.5393 121.5,61.5C 121.5,61.8333 121.5,62.1667 121.5,62.5C 120.833,62.5 120.167,62.5 119.5,62.5C 119.167,62.5 118.833,62.5 118.5,62.5C 117.833,61.1667 117.167,61.1667 116.5,62.5C 115.508,62.3284 114.842,62.6618 114.5,63.5C 113.833,63.5 113.5,63.8333 113.5,64.5C 112.833,64.5 112.5,64.8333 112.5,65.5C 111.833,65.5 111.5,65.8333 111.5,66.5C 110.833,66.5 110.5,66.8333 110.5,67.5C 109.833,67.5 109.5,67.8333 109.5,68.5C 108.662,68.8417 108.328,69.5084 108.5,70.5C 107.167,71.8333 107.167,73.1667 108.5,74.5C 108.5,85.8333 108.5,97.1667 108.5,108.5C 108.5,115.167 108.5,121.833 108.5,128.5C 108.5,142.167 108.5,155.833 108.5,169.5C 108.5,182.5 108.5,195.5 108.5,208.5C 108.823,214.69 108.49,220.69 107.5,226.5C 107.672,227.492 107.338,228.158 106.5,228.5C 105.794,227.443 105.461,227.776 105.5,229.5C 105.167,229.5 104.833,229.5 104.5,229.5C 105.478,176.852 105.811,124.186 105.5,71.5C 108.276,63.5901 113.943,59.2568 122.5,58.5 Z"/></g>
<g><path style="opacity:1" fill="#f4f2f1" d="M 348.5,108.5 C 352.334,113.497 355.667,118.83 358.5,124.5C 362.905,138.114 363.572,151.78 360.5,165.5C 361.502,126.269 343.502,100.769 306.5,89C 279.061,83.9272 255.727,91.2605 236.5,111C 230.877,114.798 226.211,113.798 222.5,108C 223.044,107.283 223.711,106.783 224.5,106.5C 225.492,106.672 226.158,106.338 226.5,105.5C 227.833,103.5 229.5,101.833 231.5,100.5C 231.489,102.017 230.823,103.184 229.5,104C 230.593,105.365 231.926,105.699 233.5,105C 239.033,102.066 244.033,98.3996 248.5,94C 283.863,74.9523 315.863,79.2856 344.5,107C 345.745,107.791 347.078,108.291 348.5,108.5 Z"/></g>
<g><path style="opacity:1" fill="#f4f3f3" d="M 224.5,83.5 C 224.5,84.8333 224.5,86.1667 224.5,87.5C 223.673,92.6509 223.173,97.9842 223,103.5C 222.667,99.8333 222.333,96.1667 222,92.5C 221.682,90.9391 220.849,89.7724 219.5,89C 206.833,88.3333 194.167,88.3333 181.5,89C 177.188,92.9809 173.188,97.3142 169.5,102C 164.543,103.814 161.543,107.314 160.5,112.5C 160.901,114.434 161.901,115.934 163.5,117C 172.548,115.592 178.382,119.092 181,127.5C 181.175,156.875 181.675,186.209 182.5,215.5C 183.025,216.192 183.692,216.692 184.5,217C 196.167,217.667 207.833,217.667 219.5,217C 220.893,215.829 221.727,214.329 222,212.5C 222.333,213.167 222.667,213.833 223,214.5C 223.172,207.987 223.672,201.653 224.5,195.5C 224.5,203.5 224.5,211.5 224.5,219.5C 208.497,219.667 192.497,219.5 176.5,219C 176.833,218.667 177.167,218.333 177.5,218C 176.671,188.238 176.171,158.405 176,128.5C 175.252,126.249 173.752,124.916 171.5,124.5C 171.5,123.167 171.5,121.833 171.5,120.5C 165.355,119.51 159.022,119.177 152.5,119.5C 153.209,118.596 154.209,118.263 155.5,118.5C 153.251,109.156 156.585,102.989 165.5,100C 170.066,95.5236 174.399,90.8569 178.5,86C 185.926,84.8852 193.426,84.3852 201,84.5C 207.5,84.6667 214,84.8333 220.5,85C 221.416,85.3742 222.25,85.8742 223,86.5C 223.232,85.2625 223.732,84.2625 224.5,83.5 Z"/></g>
<g><path style="opacity:1" fill="#fefefe" d="M 224.5,87.5 C 224.5,93.8333 224.5,100.167 224.5,106.5C 223.711,106.783 223.044,107.283 222.5,108C 226.211,113.798 230.877,114.798 236.5,111C 255.727,91.2605 279.061,83.9272 306.5,89C 343.502,100.769 361.502,126.269 360.5,165.5C 360.326,167.861 359.993,170.194 359.5,172.5C 357.796,178.951 355.13,184.951 351.5,190.5C 345.458,198.876 338.124,205.876 329.5,211.5C 323.939,214.946 317.939,217.28 311.5,218.5C 282.212,223.567 257.212,215.734 236.5,195C 233.923,193.75 231.257,193.416 228.5,194C 229.257,195.512 230.257,196.846 231.5,198C 231.272,198.399 230.938,198.565 230.5,198.5C 228.164,196.996 226.331,194.996 225,192.5C 224.517,193.448 224.351,194.448 224.5,195.5C 223.672,201.653 223.172,207.987 223,214.5C 222.667,213.833 222.333,213.167 222,212.5C 221.727,214.329 220.893,215.829 219.5,217C 207.833,217.667 196.167,217.667 184.5,217C 183.692,216.692 183.025,216.192 182.5,215.5C 181.675,186.209 181.175,156.875 181,127.5C 178.382,119.092 172.548,115.592 163.5,117C 161.901,115.934 160.901,114.434 160.5,112.5C 161.543,107.314 164.543,103.814 169.5,102C 173.188,97.3142 177.188,92.9809 181.5,89C 194.167,88.3333 206.833,88.3333 219.5,89C 220.849,89.7724 221.682,90.9391 222,92.5C 222.333,96.1667 222.667,99.8333 223,103.5C 223.173,97.9842 223.673,92.6509 224.5,87.5 Z"/></g>
<g><path style="opacity:0.121" fill="#727679" d="M 122.5,58.5 C 218.666,57.3342 314.999,57.1675 411.5,58C 413.866,58.4396 416.199,58.9396 418.5,59.5C 421.019,63.3302 420.686,66.9969 417.5,70.5C 417.624,71.1067 417.957,71.44 418.5,71.5C 418.5,72.1667 418.167,72.5 417.5,72.5C 416.526,73.635 415.359,74.635 414,75.5C 413.667,78.1667 413.333,80.8333 413,83.5C 412.5,131.832 412.333,180.166 412.5,228.5C 410.833,230.167 409.167,231.833 407.5,233.5C 407.263,232.209 407.596,231.209 408.5,230.5C 410.978,227.189 411.978,223.355 411.5,219C 410.372,173.174 410.205,127.341 411,81.5C 412.082,76.4251 414.082,71.7585 417,67.5C 417.497,65.1902 417.663,62.8568 417.5,60.5C 416.041,60.5674 414.708,60.2341 413.5,59.5C 411.5,59.5 409.5,59.5 407.5,59.5C 312.668,58.5006 217.668,58.1673 122.5,58.5 Z"/></g>
<g><path style="opacity:1" fill="#f19697" d="M 224.5,78.5 C 225.167,87.5 225.833,96.5 226.5,105.5C 226.158,106.338 225.492,106.672 224.5,106.5C 224.5,100.167 224.5,93.8333 224.5,87.5C 224.5,86.1667 224.5,84.8333 224.5,83.5C 224.5,81.8333 224.5,80.1667 224.5,78.5 Z"/></g>
<g><path style="opacity:1" fill="#dedddc" d="M 325.5,87.5 C 334.742,92.7404 342.409,99.7404 348.5,108.5C 347.078,108.291 345.745,107.791 344.5,107C 315.863,79.2856 283.863,74.9523 248.5,94C 244.033,98.3996 239.033,102.066 233.5,105C 231.926,105.699 230.593,105.365 229.5,104C 230.823,103.184 231.489,102.017 231.5,100.5C 242.457,88.3491 256.124,80.8491 272.5,78C 291.33,75.1374 308.997,78.3041 325.5,87.5 Z"/></g>
<g><path style="opacity:1" fill="#006d31" d="M 461.5,98.5 C 461.5,110.5 461.5,122.5 461.5,134.5C 446.873,146.623 432.373,158.956 418,171.5C 417.833,179.167 417.667,186.833 417.5,194.5C 417.532,202.733 418.199,210.733 419.5,218.5C 418.833,218.833 418.167,219.167 417.5,219.5C 416.833,186.833 416.167,154.167 415.5,121.5C 414.965,105.081 415.632,88.7475 417.5,72.5C 418.167,72.5 418.5,72.1667 418.5,71.5C 421.124,67.3833 424.79,64.55 429.5,63C 440.161,62.5002 450.828,62.3335 461.5,62.5C 461.5,74.5 461.5,86.5 461.5,98.5 Z"/></g>
<g><path style="opacity:1" fill="#dadada" d="M 224.5,78.5 C 224.5,80.1667 224.5,81.8333 224.5,83.5C 223.732,84.2625 223.232,85.2625 223,86.5C 222.25,85.8742 221.416,85.3742 220.5,85C 214,84.8333 207.5,84.6667 201,84.5C 193.426,84.3852 185.926,84.8852 178.5,86C 174.399,90.8569 170.066,95.5236 165.5,100C 156.585,102.989 153.251,109.156 155.5,118.5C 154.209,118.263 153.209,118.596 152.5,119.5C 150.544,113.588 149.877,107.255 150.5,100.5C 153.131,98.8474 155.797,97.1807 158.5,95.5C 164.38,91.2506 168.713,85.7506 171.5,79C 189.164,78.5001 206.83,78.3334 224.5,78.5 Z"/></g>
<g><path style="opacity:1" fill="#fe3230" d="M 158.5,95.5 C 155.797,97.1807 153.131,98.8474 150.5,100.5C 149.509,106.979 149.176,113.646 149.5,120.5C 148.694,119.003 148.028,117.336 147.5,115.5C 135.185,114.501 122.851,114.168 110.5,114.5C 109.436,117.082 109.103,121.749 109.5,128.5C 109.167,128.5 108.833,128.5 108.5,128.5C 108.5,121.833 108.5,115.167 108.5,108.5C 109.488,103.36 109.821,98.0262 109.5,92.5C 125.833,92.5 142.167,92.5 158.5,92.5C 158.5,93.5 158.5,94.5 158.5,95.5 Z"/></g>
<g><path style="opacity:1" fill="#fe3330" d="M 400.5,71.5 C 400.5,88.5 400.5,105.5 400.5,122.5C 386.127,121.851 372.127,122.518 358.5,124.5C 355.667,118.83 352.334,113.497 348.5,108.5C 342.409,99.7404 334.742,92.7404 325.5,87.5C 349.704,87.5617 374.37,87.5617 399.5,87.5C 399.167,81.4012 399.5,76.0679 400.5,71.5 Z"/></g>
<g><path style="opacity:1" fill="#00479b" d="M 92.5,126.5 C 92.5,137.833 92.5,149.167 92.5,160.5C 91.6909,158.708 91.1909,156.708 91,154.5C 76.5659,170.756 62.3992,187.089 48.5,203.5C 48.5,187.5 48.5,171.5 48.5,155.5C 62.6755,140.154 76.3422,124.321 89.5,108C 90.1667,107.333 90.8333,107.333 91.5,108C 90.8922,109.231 90.5589,110.564 90.5,112C 90.9636,117.008 91.6303,121.841 92.5,126.5 Z"/></g>
<g><path style="opacity:1" fill="#e2b8b6" d="M 150.5,100.5 C 149.877,107.255 150.544,113.588 152.5,119.5C 159.022,119.177 165.355,119.51 171.5,120.5C 164.167,120.5 156.833,120.5 149.5,120.5C 149.176,113.646 149.509,106.979 150.5,100.5 Z"/></g>
<g><path style="opacity:0.118" fill="#88898b" d="M 413.5,59.5 C 414.708,60.2341 416.041,60.5674 417.5,60.5C 417.663,62.8568 417.497,65.1902 417,67.5C 414.082,71.7585 412.082,76.4251 411,81.5C 410.205,127.341 410.372,173.174 411.5,219C 411.978,223.355 410.978,227.189 408.5,230.5C 408.333,181.499 408.5,132.499 409,83.5C 409.74,76.2724 412.24,69.7724 416.5,64C 415.445,62.4928 414.445,60.9928 413.5,59.5 Z"/></g>
<g><path style="opacity:0.803" fill="#016a3e" d="M 415.5,121.5 C 416.167,154.167 416.833,186.833 417.5,219.5C 417.44,220.043 417.107,220.376 416.5,220.5C 415.5,187.507 415.167,154.507 415.5,121.5 Z"/></g>
<g><path style="opacity:1" fill="#ff3f2f" d="M 149.5,120.5 C 155.979,121.491 162.646,121.824 169.5,121.5C 169.5,125.167 169.5,128.833 169.5,132.5C 149.833,132.5 130.167,132.5 110.5,132.5C 110.567,131.041 110.234,129.708 109.5,128.5C 109.103,121.749 109.436,117.082 110.5,114.5C 122.851,114.168 135.185,114.501 147.5,115.5C 148.028,117.336 148.694,119.003 149.5,120.5 Z"/></g>
<g><path style="opacity:1" fill="#dedddd" d="M 171.5,124.5 C 173.752,124.916 175.252,126.249 176,128.5C 176.171,158.405 176.671,188.238 177.5,218C 177.167,218.333 176.833,218.667 176.5,219C 192.497,219.5 208.497,219.667 224.5,219.5C 207.008,220.497 189.341,220.83 171.5,220.5C 171.5,188.5 171.5,156.5 171.5,124.5 Z"/></g>
<g><path style="opacity:1" fill="#ebeaea" d="M 269.5,161.5 C 271.895,164.861 274.895,167.528 278.5,169.5C 277.402,170.397 277.402,171.23 278.5,172C 292.601,179.906 304.434,177.406 314,164.5C 317.73,156.485 317.23,148.819 312.5,141.5C 311.675,140.614 310.675,140.281 309.5,140.5C 308.752,138.668 307.752,137.001 306.5,135.5C 305.833,134.167 304.833,133.167 303.5,132.5C 301.833,131.167 300.167,129.833 298.5,128.5C 301.608,127.572 304.608,128.072 307.5,130C 319.621,139.145 323.121,150.978 318,165.5C 310.029,178.608 298.529,183.108 283.5,179C 274.966,175.966 269.3,170.133 266.5,161.5C 267.521,161.542 268.521,161.542 269.5,161.5 Z"/></g>
<g><path style="opacity:1" fill="#fe472f" d="M 400.5,122.5 C 400.832,155.338 400.498,188.004 399.5,220.5C 399.83,204.325 399.496,188.325 398.5,172.5C 398.5,170.833 398.5,169.167 398.5,167.5C 386.495,167.333 374.495,167.5 362.5,168C 362.085,170.026 361.085,171.526 359.5,172.5C 359.993,170.194 360.326,167.861 360.5,165.5C 363.572,151.78 362.905,138.114 358.5,124.5C 372.127,122.518 386.127,121.851 400.5,122.5 Z"/></g>
<g><path style="opacity:1" fill="#00672e" d="M 461.5,134.5 C 461.831,163.005 461.498,191.338 460.5,219.5C 446.941,214.617 433.275,214.284 419.5,218.5C 418.199,210.733 417.532,202.733 417.5,194.5C 417.667,186.833 417.833,179.167 418,171.5C 432.373,158.956 446.873,146.623 461.5,134.5 Z"/></g>
<g><path style="opacity:1" fill="#fe7a88" d="M 292.5,127.5 C 291.448,127.351 290.448,127.517 289.5,128C 292.038,130.61 294.871,132.776 298,134.5C 300.3,139.771 299.967,144.771 297,149.5C 291.688,155.659 285.188,157.159 277.5,154C 272.084,149.319 269.417,143.486 269.5,136.5C 275.38,128.546 283.047,125.546 292.5,127.5 Z"/></g>
<g><path style="opacity:1" fill="#ff95a1" d="M 282.5,129.5 C 293.102,130.273 297.602,135.939 296,146.5C 288.592,154.446 281.259,154.446 274,146.5C 272.208,138.31 275.042,132.644 282.5,129.5 Z"/></g>
<g><path style="opacity:1" fill="#f32134" d="M 306.5,135.5 C 307.752,137.001 308.752,138.668 309.5,140.5C 312.957,155.425 307.623,165.591 293.5,171C 288.349,171.818 283.349,171.318 278.5,169.5C 274.895,167.528 271.895,164.861 269.5,161.5C 267.698,158.426 266.698,155.092 266.5,151.5C 266.833,151.5 267.167,151.5 267.5,151.5C 273.247,161.261 281.581,164.428 292.5,161C 303.045,155.744 307.712,147.244 306.5,135.5 Z"/></g>
<g><path style="opacity:1" fill="#ffb2bc" d="M 280.5,132.5 C 290.2,130.959 294.366,134.959 293,144.5C 290.975,149.145 287.475,150.645 282.5,149C 276.845,147.125 275.011,143.292 277,137.5C 278.669,136.154 279.836,134.487 280.5,132.5 Z"/></g>
<g><path style="opacity:1" fill="#ffd0d8" d="M 281.5,135.5 C 288.424,134.696 291.258,137.696 290,144.5C 280.328,148.326 277.494,145.326 281.5,135.5 Z"/></g>
<g><path style="opacity:1" fill="#fa4a5c" d="M 296.5,128.5 C 297.167,128.5 297.833,128.5 298.5,128.5C 300.167,129.833 301.833,131.167 303.5,132.5C 303.706,137.824 303.372,143.324 302.5,149C 295.63,161.177 285.963,163.844 273.5,157C 271.3,154.766 269.467,152.266 268,149.5C 267.536,150.094 267.369,150.761 267.5,151.5C 267.167,151.5 266.833,151.5 266.5,151.5C 265.375,147.852 265.708,144.185 267.5,140.5C 269.373,154.522 277.373,160.355 291.5,158C 302.464,150.662 304.297,141.495 297,130.5C 294.335,129.526 294.169,128.859 296.5,128.5 Z"/></g>
<g><path style="opacity:1" fill="#004e9e" d="M 92.5,160.5 C 92.6666,181.503 92.5,202.503 92,223.5C 88.4702,230.19 82.9702,234.357 75.5,236C 66.5062,236.5 57.5062,236.666 48.5,236.5C 48.5,225.5 48.5,214.5 48.5,203.5C 62.3992,187.089 76.5659,170.756 91,154.5C 91.1909,156.708 91.6909,158.708 92.5,160.5 Z"/></g>
<g><path style="opacity:1" fill="#f63448" d="M 303.5,132.5 C 304.833,133.167 305.833,134.167 306.5,135.5C 307.712,147.244 303.045,155.744 292.5,161C 281.581,164.428 273.247,161.261 267.5,151.5C 267.369,150.761 267.536,150.094 268,149.5C 269.467,152.266 271.3,154.766 273.5,157C 285.963,163.844 295.63,161.177 302.5,149C 303.372,143.324 303.706,137.824 303.5,132.5 Z"/></g>
<g><path style="opacity:1" fill="#fd5e6f" d="M 292.5,127.5 C 294.099,127.232 295.432,127.566 296.5,128.5C 294.169,128.859 294.335,129.526 297,130.5C 304.297,141.495 302.464,150.662 291.5,158C 277.373,160.355 269.373,154.522 267.5,140.5C 268.167,139.167 268.833,137.833 269.5,136.5C 269.417,143.486 272.084,149.319 277.5,154C 285.188,157.159 291.688,155.659 297,149.5C 299.967,144.771 300.3,139.771 298,134.5C 294.871,132.776 292.038,130.61 289.5,128C 290.448,127.517 291.448,127.351 292.5,127.5 Z"/></g>
<g><path style="opacity:1" fill="#fe4b30" d="M 149.5,120.5 C 156.833,120.5 164.167,120.5 171.5,120.5C 171.5,121.833 171.5,123.167 171.5,124.5C 171.5,156.5 171.5,188.5 171.5,220.5C 171.167,220.5 170.833,220.5 170.5,220.5C 170.837,200.797 170.504,183.131 169.5,167.5C 149.472,166.846 129.805,167.512 110.5,169.5C 109.833,169.5 109.167,169.5 108.5,169.5C 108.5,155.833 108.5,142.167 108.5,128.5C 108.833,128.5 109.167,128.5 109.5,128.5C 110.234,129.708 110.567,131.041 110.5,132.5C 130.167,132.5 149.833,132.5 169.5,132.5C 169.5,128.833 169.5,125.167 169.5,121.5C 162.646,121.824 155.979,121.491 149.5,120.5 Z"/></g>
<g><path style="opacity:1" fill="#ff412f" d="M 169.5,167.5 C 169.5,171.5 169.5,175.5 169.5,179.5C 149.833,179.5 130.167,179.5 110.5,179.5C 110.5,176.167 110.5,172.833 110.5,169.5C 129.805,167.512 149.472,166.846 169.5,167.5 Z"/></g>
<g><path style="opacity:1" fill="#cecbcc" d="M 309.5,140.5 C 310.675,140.281 311.675,140.614 312.5,141.5C 317.23,148.819 317.73,156.485 314,164.5C 304.434,177.406 292.601,179.906 278.5,172C 277.402,171.23 277.402,170.397 278.5,169.5C 283.349,171.318 288.349,171.818 293.5,171C 307.623,165.591 312.957,155.425 309.5,140.5 Z"/></g>
<g><path style="opacity:1" fill="#ff3d2f" d="M 398.5,172.5 C 398.5,177.833 398.5,183.167 398.5,188.5C 383.496,188.333 368.496,188.5 353.5,189C 353.833,189.333 354.167,189.667 354.5,190C 353.552,190.483 352.552,190.649 351.5,190.5C 355.13,184.951 357.796,178.951 359.5,172.5C 361.085,171.526 362.085,170.026 362.5,168C 374.495,167.5 386.495,167.333 398.5,167.5C 398.5,169.167 398.5,170.833 398.5,172.5 Z"/></g>
<g><path style="opacity:0.671" fill="#2e675d" d="M 461.5,98.5 C 462.831,139.002 462.831,179.669 461.5,220.5C 460.893,220.376 460.56,220.043 460.5,219.5C 461.498,191.338 461.831,163.005 461.5,134.5C 461.5,122.5 461.5,110.5 461.5,98.5 Z"/></g>
<g><path style="opacity:1" fill="#fe362f" d="M 170.5,220.5 C 169.51,214.355 169.177,208.022 169.5,201.5C 149.833,201.5 130.167,201.5 110.5,201.5C 110.665,197.818 110.499,194.152 110,190.5C 109.828,196.681 109.328,202.681 108.5,208.5C 108.5,195.5 108.5,182.5 108.5,169.5C 109.167,169.5 109.833,169.5 110.5,169.5C 110.5,172.833 110.5,176.167 110.5,179.5C 130.167,179.5 149.833,179.5 169.5,179.5C 169.5,175.5 169.5,171.5 169.5,167.5C 170.504,183.131 170.837,200.797 170.5,220.5 Z"/></g>
<g><path style="opacity:1" fill="#fe3230" d="M 398.5,172.5 C 399.496,188.325 399.83,204.325 399.5,220.5C 398.521,217.375 398.187,214.042 398.5,210.5C 377.258,210.827 356.091,210.494 335,209.5C 333.414,210.376 331.914,211.376 330.5,212.5C 329.893,212.376 329.56,212.043 329.5,211.5C 338.124,205.876 345.458,198.876 351.5,190.5C 352.552,190.649 353.552,190.483 354.5,190C 354.167,189.667 353.833,189.333 353.5,189C 368.496,188.5 383.496,188.333 398.5,188.5C 398.5,183.167 398.5,177.833 398.5,172.5 Z"/></g>
<g><path style="opacity:1" fill="#f4efef" d="M 311.5,218.5 C 280.515,227.67 253.515,221.004 230.5,198.5C 230.938,198.565 231.272,198.399 231.5,198C 230.257,196.846 229.257,195.512 228.5,194C 231.257,193.416 233.923,193.75 236.5,195C 257.212,215.734 282.212,223.567 311.5,218.5 Z"/></g>
<g><path style="opacity:1" fill="#f82331" d="M 170.5,220.5 C 170.833,220.5 171.167,220.5 171.5,220.5C 189.341,220.83 207.008,220.497 224.5,219.5C 224.5,211.5 224.5,203.5 224.5,195.5C 224.351,194.448 224.517,193.448 225,192.5C 226.331,194.996 228.164,196.996 230.5,198.5C 253.515,221.004 280.515,227.67 311.5,218.5C 317.939,217.28 323.939,214.946 329.5,211.5C 329.56,212.043 329.893,212.376 330.5,212.5C 331.914,211.376 333.414,210.376 335,209.5C 356.091,210.494 377.258,210.827 398.5,210.5C 398.187,214.042 398.521,217.375 399.5,220.5C 397.586,229.081 392.253,233.747 383.5,234.5C 289.332,234.833 195.332,234.499 101.5,233.5C 102.167,233.5 102.5,233.167 102.5,232.5C 103.167,232.5 103.5,232.167 103.5,231.5C 104.167,231.5 104.5,231.167 104.5,230.5C 105.167,230.5 105.5,230.167 105.5,229.5C 106.167,229.5 106.5,229.167 106.5,228.5C 107.338,228.158 107.672,227.492 107.5,226.5C 108.49,220.69 108.823,214.69 108.5,208.5C 109.328,202.681 109.828,196.681 110,190.5C 110.499,194.152 110.665,197.818 110.5,201.5C 130.167,201.5 149.833,201.5 169.5,201.5C 169.177,208.022 169.51,214.355 170.5,220.5 Z"/></g>
<g><path style="opacity:1" fill="#bebfc2" d="M 441.5,226.5 C 443.216,226.629 444.883,226.962 446.5,227.5C 446.082,228.222 445.416,228.722 444.5,229C 452.78,235.395 456.947,243.895 457,254.5C 458.31,255.897 459.81,256.897 461.5,257.5C 458.833,257.5 456.167,257.5 453.5,257.5C 452.571,256.685 451.571,255.852 450.5,255C 450.453,247.216 447.786,240.216 442.5,234C 439.659,232.414 436.993,230.58 434.5,228.5C 430.861,227.54 427.195,227.54 423.5,228.5C 424.263,227.732 425.263,227.232 426.5,227C 431.489,226.501 436.489,226.334 441.5,226.5 Z"/></g>
<g><path style="opacity:0.097" fill="#263351" d="M 450.5,224.5 C 458.104,227.484 466.104,228.817 474.5,228.5C 475.833,229.167 475.833,229.833 474.5,230.5C 468.189,231.828 462.189,231.828 456.5,230.5C 456.167,230.5 455.833,230.5 455.5,230.5C 452.598,229.216 449.598,228.216 446.5,227.5C 444.883,226.962 443.216,226.629 441.5,226.5C 438.695,225.681 435.695,225.181 432.5,225C 438.491,224.501 444.491,224.334 450.5,224.5 Z"/></g>
<g><path style="opacity:1" fill="#d8d9da" d="M 453.5,257.5 C 450.5,257.5 447.5,257.5 444.5,257.5C 443.602,256.842 442.602,256.176 441.5,255.5C 435.797,236.979 424.464,232.312 407.5,241.5C 405.041,244.467 403.208,247.8 402,251.5C 401.434,258.509 401.6,265.509 402.5,272.5C 402.666,277.179 402.499,281.845 402,286.5C 401.911,277.978 399.245,270.312 394,263.5C 393.51,262.207 393.343,260.873 393.5,259.5C 393.767,257.035 394.434,254.701 395.5,252.5C 395.5,252.167 395.5,251.833 395.5,251.5C 396.167,251.5 396.5,251.167 396.5,250.5C 396.5,250.167 396.5,249.833 396.5,249.5C 397.338,249.158 397.672,248.492 397.5,247.5C 398.167,247.5 398.5,247.167 398.5,246.5C 399.167,246.5 399.5,246.167 399.5,245.5C 399.5,245.167 399.5,244.833 399.5,244.5C 400.167,244.5 400.5,244.167 400.5,243.5C 401.167,243.5 401.5,243.167 401.5,242.5C 402.338,242.158 402.672,241.492 402.5,240.5C 403.167,240.5 403.5,240.167 403.5,239.5C 404.167,239.5 404.5,239.167 404.5,238.5C 405.167,238.5 405.5,238.167 405.5,237.5C 405.833,237.5 406.167,237.5 406.5,237.5C 407.167,237.5 407.5,237.167 407.5,236.5C 408.167,236.5 408.5,236.167 408.5,235.5C 409.167,235.5 409.5,235.167 409.5,234.5C 409.833,234.5 410.167,234.5 410.5,234.5C 411.167,234.5 411.5,234.167 411.5,233.5C 412.167,233.5 412.5,233.167 412.5,232.5C 412.833,232.5 413.167,232.5 413.5,232.5C 414.167,232.5 414.5,232.167 414.5,231.5C 414.833,231.5 415.167,231.5 415.5,231.5C 416.167,231.5 416.5,231.167 416.5,230.5C 416.833,230.5 417.167,230.5 417.5,230.5C 418.167,230.5 418.5,230.167 418.5,229.5C 418.833,229.5 419.167,229.5 419.5,229.5C 420.708,228.766 422.041,228.433 423.5,228.5C 427.195,227.54 430.861,227.54 434.5,228.5C 436.993,230.58 439.659,232.414 442.5,234C 447.786,240.216 450.453,247.216 450.5,255C 451.571,255.852 452.571,256.685 453.5,257.5 Z"/></g>
<g><path style="opacity:0.166" fill="#0a1c46" d="M 456.5,230.5 C 462.189,231.828 468.189,231.828 474.5,230.5C 492.626,245.59 499.459,264.924 495,288.5C 488.228,312.205 472.728,326.372 448.5,331C 419.876,333.033 399.543,321.199 387.5,295.5C 389.691,288.223 391.024,280.89 391.5,273.5C 391.664,280.025 393.331,286.025 396.5,291.5C 398.4,295.732 401.067,299.399 404.5,302.5C 416.05,315.149 430.384,319.649 447.5,316C 475.97,305.851 486.803,286.018 480,256.5C 478.467,251.501 475.967,247.167 472.5,243.5C 468.306,237.74 462.973,233.407 456.5,230.5 Z"/></g>
<g><path style="opacity:0.071" fill="#3b455d" d="M 450.5,224.5 C 444.491,224.334 438.491,224.501 432.5,225C 435.695,225.181 438.695,225.681 441.5,226.5C 436.489,226.334 431.489,226.501 426.5,227C 425.263,227.232 424.263,227.732 423.5,228.5C 422.041,228.433 420.708,228.766 419.5,229.5C 419.167,228.167 418.833,228.167 418.5,229.5C 418.5,230.167 418.167,230.5 417.5,230.5C 417.167,229.167 416.833,229.167 416.5,230.5C 416.5,231.167 416.167,231.5 415.5,231.5C 415.167,230.167 414.833,230.167 414.5,231.5C 414.5,232.167 414.167,232.5 413.5,232.5C 413.167,231.167 412.833,231.167 412.5,232.5C 411.833,232.5 411.5,232.833 411.5,233.5C 411.5,234.167 411.167,234.5 410.5,234.5C 410.167,233.167 409.833,233.167 409.5,234.5C 408.833,234.5 408.5,234.833 408.5,235.5C 407.833,235.5 407.5,235.833 407.5,236.5C 407.5,237.167 407.167,237.5 406.5,237.5C 406.167,236.167 405.833,236.167 405.5,237.5C 404.833,237.5 404.5,237.833 404.5,238.5C 403.833,238.5 403.5,238.833 403.5,239.5C 402.833,239.5 402.5,239.833 402.5,240.5C 401.662,240.842 401.328,241.508 401.5,242.5C 400.833,242.5 400.5,242.833 400.5,243.5C 399.833,243.5 399.5,243.833 399.5,244.5C 398.167,244.833 398.167,245.167 399.5,245.5C 399.5,246.167 399.167,246.5 398.5,246.5C 397.833,246.5 397.5,246.833 397.5,247.5C 396.662,247.842 396.328,248.508 396.5,249.5C 395.167,249.833 395.167,250.167 396.5,250.5C 396.5,251.167 396.167,251.5 395.5,251.5C 394.167,251.833 394.167,252.167 395.5,252.5C 394.434,254.701 393.767,257.035 393.5,259.5C 391.896,263.9 391.229,268.566 391.5,273.5C 391.024,280.89 389.691,288.223 387.5,295.5C 386.794,296.557 386.461,296.224 386.5,294.5C 387.863,291.338 388.697,288.004 389,284.5C 388.968,271.072 391.134,258.072 395.5,245.5C 396.167,244.5 396.833,243.5 397.5,242.5C 400.879,239.449 404.212,236.449 407.5,233.5C 409.167,231.833 410.833,230.167 412.5,228.5C 424.886,223.785 437.552,222.451 450.5,224.5 Z"/></g>
<g><path style="opacity:0.583" fill="#be7278" d="M 100.5,233.5 C 100.833,233.5 101.167,233.5 101.5,233.5C 195.332,234.499 289.332,234.833 383.5,234.5C 291.001,235.499 198.335,235.833 105.5,235.5C 103.5,235.5 101.5,235.5 99.5,235.5C 99.3284,234.508 99.6618,233.842 100.5,233.5 Z"/></g>
<g><path style="opacity:1" fill="#acaeb1" d="M 446.5,227.5 C 449.598,228.216 452.598,229.216 455.5,230.5C 455.892,232.179 456.392,233.846 457,235.5C 457.333,234.833 457.667,234.167 458,233.5C 461.672,240.018 463.839,247.018 464.5,254.5C 464.818,255.647 465.484,256.481 466.5,257C 464.866,257.494 463.199,257.66 461.5,257.5C 459.81,256.897 458.31,255.897 457,254.5C 456.947,243.895 452.78,235.395 444.5,229C 445.416,228.722 446.082,228.222 446.5,227.5 Z"/></g>
<g><path style="opacity:0.144" fill="#616870" d="M 101.5,229.5 C 101.5,230.5 101.5,231.5 101.5,232.5C 100.833,232.5 100.5,232.833 100.5,233.5C 99.6618,233.842 99.3284,234.508 99.5,235.5C 99.5,236.167 99.8333,236.5 100.5,236.5C 99.9285,238.36 99.9285,240.027 100.5,241.5C 100.944,243.113 101.944,244.28 103.5,245C 199.167,245.667 294.833,245.667 390.5,245C 392.058,244.79 393.391,244.29 394.5,243.5C 395.391,242.89 396.391,242.557 397.5,242.5C 396.833,243.5 396.167,244.5 395.5,245.5C 394.504,245.414 393.671,245.748 393,246.5C 391.289,248.956 389.956,251.623 389,254.5C 388.667,263.167 388.333,271.833 388,280.5C 387.854,285.015 387.021,289.348 385.5,293.5C 383.199,294.06 380.866,294.56 378.5,295C 259.752,295.541 141.085,296.041 22.5,296.5C 19.579,294.911 16.579,293.411 13.5,292C 9.74056,288.257 8.57389,283.757 10,278.5C 11.5588,276.783 12.3921,274.783 12.5,272.5C 26.4685,268.362 35.3019,259.695 39,246.5C 40.3588,245.635 41.5255,244.635 42.5,243.5C 46.7236,244.962 51.0569,246.128 55.5,247C 69.5206,248.398 83.1872,246.898 96.5,242.5C 97.2208,240.314 97.8875,238.147 98.5,236C 98.0426,235.586 97.7093,235.086 97.5,234.5C 98.1539,232.142 99.4872,230.475 101.5,229.5 Z"/></g>
<g><path style="opacity:1" fill="#f7f7f8" d="M 444.5,257.5 C 442.585,257.216 440.919,257.549 439.5,258.5C 439.5,267.833 439.5,277.167 439.5,286.5C 438.833,286.5 438.167,286.5 437.5,286.5C 437.5,276.833 437.5,267.167 437.5,257.5C 433.629,257.185 429.962,257.518 426.5,258.5C 426.5,261.833 426.5,265.167 426.5,268.5C 422.5,268.5 418.5,268.5 414.5,268.5C 414.5,264.833 414.5,261.167 414.5,257.5C 410.629,257.185 406.962,257.518 403.5,258.5C 402.514,262.97 402.181,267.637 402.5,272.5C 401.6,265.509 401.434,258.509 402,251.5C 403.208,247.8 405.041,244.467 407.5,241.5C 424.464,232.312 435.797,236.979 441.5,255.5C 442.602,256.176 443.602,256.842 444.5,257.5 Z"/></g>
<g><path style="opacity:0.102" fill="#757a7e" d="M 100.5,241.5 C 103.456,242.137 106.456,242.637 109.5,243C 204.499,243.5 299.499,243.667 394.5,243.5C 393.391,244.29 392.058,244.79 390.5,245C 294.833,245.667 199.167,245.667 103.5,245C 101.944,244.28 100.944,243.113 100.5,241.5 Z"/></g>
<g><path style="opacity:1" fill="#007936" d="M 44.5,250.5 C 44.8333,250.5 45.1667,250.5 45.5,250.5C 90.8333,250.5 136.167,250.5 181.5,250.5C 176.349,251.327 171.016,251.827 165.5,252C 155.296,260.377 145.296,269.043 135.5,278C 164.165,278.5 192.831,278.667 221.5,278.5C 245.833,278.5 270.167,278.5 294.5,278.5C 294.5,278.833 294.5,279.167 294.5,279.5C 279.324,279.171 264.324,279.504 249.5,280.5C 199.833,280.5 150.167,280.5 100.5,280.5C 71.6618,280.831 42.9951,280.498 14.5,279.5C 15.791,279.737 16.791,279.404 17.5,278.5C 34.0462,276.289 43.0462,266.956 44.5,250.5 Z"/></g>
<g><path style="opacity:1" fill="#007332" d="M 181.5,250.5 C 268.533,249.694 316.2,250.027 324.5,251.5C 300.498,251.333 276.498,251.5 252.5,252C 242.27,260.969 231.936,269.802 221.5,278.5C 192.831,278.667 164.165,278.5 135.5,278C 145.296,269.043 155.296,260.377 165.5,252C 171.016,251.827 176.349,251.327 181.5,250.5 Z"/></g>
<g><path style="opacity:1" fill="#006c30" d="M 324.5,251.5 C 314.5,260.5 304.5,269.5 294.5,278.5C 270.167,278.5 245.833,278.5 221.5,278.5C 231.936,269.802 242.27,260.969 252.5,252C 276.498,251.5 300.498,251.333 324.5,251.5 Z"/></g>
<g><path style="opacity:1" fill="#036832" d="M 45.5,250.5 C 158.665,249.5 271.999,249.167 385.5,249.5C 382.241,259.155 380.908,269.155 381.5,279.5C 352.5,279.5 323.5,279.5 294.5,279.5C 294.5,279.167 294.5,278.833 294.5,278.5C 304.5,269.5 314.5,260.5 324.5,251.5C 316.2,250.027 268.533,249.694 181.5,250.5C 136.167,250.5 90.8333,250.5 45.5,250.5 Z"/></g>
<g><path style="opacity:1" fill="#818283" d="M 472.5,243.5 C 475.967,247.167 478.467,251.501 480,256.5C 486.803,286.018 475.97,305.851 447.5,316C 430.384,319.649 416.05,315.149 404.5,302.5C 421.258,307.603 437.258,305.269 452.5,295.5C 455.336,290.415 459.669,287.915 465.5,288C 466.056,287.617 466.389,287.117 466.5,286.5C 467.791,286.737 468.791,286.404 469.5,285.5C 471.017,285.489 472.184,284.823 473,283.5C 473.497,281.19 473.663,278.857 473.5,276.5C 473.782,271.073 473.449,265.74 472.5,260.5C 471.834,255.519 471.168,250.519 470.5,245.5C 470.747,244.287 471.414,243.62 472.5,243.5 Z"/></g>
<g><path style="opacity:1" fill="#93979b" d="M 455.5,230.5 C 455.833,230.5 456.167,230.5 456.5,230.5C 462.973,233.407 468.306,237.74 472.5,243.5C 471.414,243.62 470.747,244.287 470.5,245.5C 471.168,250.519 471.834,255.519 472.5,260.5C 471.711,260.217 471.044,259.717 470.5,259C 460.506,258.5 450.506,258.334 440.5,258.5C 440.167,258.5 439.833,258.5 439.5,258.5C 440.919,257.549 442.585,257.216 444.5,257.5C 447.5,257.5 450.5,257.5 453.5,257.5C 456.167,257.5 458.833,257.5 461.5,257.5C 463.199,257.66 464.866,257.494 466.5,257C 465.484,256.481 464.818,255.647 464.5,254.5C 463.839,247.018 461.672,240.018 458,233.5C 457.667,234.167 457.333,234.833 457,235.5C 456.392,233.846 455.892,232.179 455.5,230.5 Z"/></g>
<g><path style="opacity:1" fill="#005090" d="M 440.5,258.5 C 450.506,258.334 460.506,258.5 470.5,259C 471.044,259.717 471.711,260.217 472.5,260.5C 473.449,265.74 473.782,271.073 473.5,276.5C 470.752,274.956 467.752,274.29 464.5,274.5C 464.649,275.552 464.483,276.552 464,277.5C 463.823,273.644 463.323,269.977 462.5,266.5C 458.702,265.517 454.702,265.183 450.5,265.5C 450.5,269.833 450.5,274.167 450.5,278.5C 454.312,279.324 458.312,279.824 462.5,280C 455.508,280.5 448.508,280.666 441.5,280.5C 441.5,281.833 441.5,283.167 441.5,284.5C 451.015,284.173 460.348,284.506 469.5,285.5C 459.833,285.5 450.167,285.5 440.5,285.5C 440.5,276.5 440.5,267.5 440.5,258.5 Z"/></g>
<g><path style="opacity:0.251" fill="#4d5665" d="M 395.5,245.5 C 391.134,258.072 388.968,271.072 389,284.5C 388.697,288.004 387.863,291.338 386.5,294.5C 385.833,294.5 385.5,294.167 385.5,293.5C 387.021,289.348 387.854,285.015 388,280.5C 388.333,271.833 388.667,263.167 389,254.5C 389.956,251.623 391.289,248.956 393,246.5C 393.671,245.748 394.504,245.414 395.5,245.5 Z"/></g>
<g><path style="opacity:1" fill="#7ea7c5" d="M 403.5,258.5 C 406.962,257.518 410.629,257.185 414.5,257.5C 414.5,261.167 414.5,264.833 414.5,268.5C 413.521,265.375 413.187,262.042 413.5,258.5C 410.167,258.5 406.833,258.5 403.5,258.5 Z"/></g>
<g><path style="opacity:1" fill="#005394" d="M 403.5,258.5 C 406.833,258.5 410.167,258.5 413.5,258.5C 413.187,262.042 413.521,265.375 414.5,268.5C 418.5,268.5 422.5,268.5 426.5,268.5C 426.5,265.167 426.5,261.833 426.5,258.5C 429.833,258.5 433.167,258.5 436.5,258.5C 436.5,267.5 436.5,276.5 436.5,285.5C 433.167,285.5 429.833,285.5 426.5,285.5C 426.5,282.167 426.5,278.833 426.5,275.5C 422.167,275.5 417.833,275.5 413.5,275.5C 413.5,278.833 413.5,282.167 413.5,285.5C 410.167,285.5 406.833,285.5 403.5,285.5C 403.5,276.5 403.5,267.5 403.5,258.5 Z"/></g>
<g><path style="opacity:1" fill="#b1b3b5" d="M 462.5,266.5 C 462.5,270.5 462.5,274.5 462.5,278.5C 458.5,278.5 454.5,278.5 450.5,278.5C 450.5,274.167 450.5,269.833 450.5,265.5C 454.702,265.183 458.702,265.517 462.5,266.5 Z"/></g>
<g><path style="opacity:0.431" fill="#6d6775" d="M 100.5,280.5 C 150.167,280.5 199.833,280.5 249.5,280.5C 293.501,280.333 337.501,280.5 381.5,281C 261.145,281.663 140.812,282.163 20.5,282.5C 20.5,282.167 20.5,281.833 20.5,281.5C 47.3386,281.831 74.0052,281.498 100.5,280.5 Z"/></g>
<g><path style="opacity:1" fill="#5492b7" d="M 426.5,258.5 C 429.962,257.518 433.629,257.185 437.5,257.5C 437.5,267.167 437.5,276.833 437.5,286.5C 433.5,286.5 429.5,286.5 425.5,286.5C 425.5,283.167 425.5,279.833 425.5,276.5C 421.833,276.5 418.167,276.5 414.5,276.5C 414.5,279.833 414.5,283.167 414.5,286.5C 410.629,286.815 406.962,286.482 403.5,285.5C 406.833,285.5 410.167,285.5 413.5,285.5C 413.5,282.167 413.5,278.833 413.5,275.5C 417.833,275.5 422.167,275.5 426.5,275.5C 426.5,278.833 426.5,282.167 426.5,285.5C 429.833,285.5 433.167,285.5 436.5,285.5C 436.5,276.5 436.5,267.5 436.5,258.5C 433.167,258.5 429.833,258.5 426.5,258.5 Z"/></g>
<g><path style="opacity:1" fill="#075f9d" d="M 462.5,266.5 C 463.323,269.977 463.823,273.644 464,277.5C 464.483,276.552 464.649,275.552 464.5,274.5C 467.752,274.29 470.752,274.956 473.5,276.5C 473.663,278.857 473.497,281.19 473,283.5C 472.184,284.823 471.017,285.489 469.5,285.5C 460.348,284.506 451.015,284.173 441.5,284.5C 441.5,283.167 441.5,281.833 441.5,280.5C 448.508,280.666 455.508,280.5 462.5,280C 458.312,279.824 454.312,279.324 450.5,278.5C 454.5,278.5 458.5,278.5 462.5,278.5C 462.5,274.5 462.5,270.5 462.5,266.5 Z"/></g>
<g><path style="opacity:1" fill="#1174a5" d="M 439.5,258.5 C 439.833,258.5 440.167,258.5 440.5,258.5C 440.5,267.5 440.5,276.5 440.5,285.5C 450.167,285.5 459.833,285.5 469.5,285.5C 468.791,286.404 467.791,286.737 466.5,286.5C 462.167,286.5 457.833,286.5 453.5,286.5C 448.833,286.5 444.167,286.5 439.5,286.5C 439.5,277.167 439.5,267.833 439.5,258.5 Z"/></g>
<g><path style="opacity:1" fill="#b3b7bb" d="M 403.5,258.5 C 403.5,267.5 403.5,276.5 403.5,285.5C 406.962,286.482 410.629,286.815 414.5,286.5C 414.5,283.167 414.5,279.833 414.5,276.5C 418.167,276.5 421.833,276.5 425.5,276.5C 425.5,279.833 425.5,283.167 425.5,286.5C 429.5,286.5 433.5,286.5 437.5,286.5C 438.167,286.5 438.833,286.5 439.5,286.5C 444.167,286.5 448.833,286.5 453.5,286.5C 451.924,287.283 450.591,288.45 449.5,290C 442.676,293.164 435.676,295.831 428.5,298C 417.009,299.469 406.342,297.302 396.5,291.5C 393.331,286.025 391.664,280.025 391.5,273.5C 391.229,268.566 391.896,263.9 393.5,259.5C 393.343,260.873 393.51,262.207 394,263.5C 399.245,270.312 401.911,277.978 402,286.5C 402.499,281.845 402.666,277.179 402.5,272.5C 402.181,267.637 402.514,262.97 403.5,258.5 Z"/></g>
<g><path style="opacity:1" fill="#959799" d="M 453.5,286.5 C 457.833,286.5 462.167,286.5 466.5,286.5C 466.389,287.117 466.056,287.617 465.5,288C 459.669,287.915 455.336,290.415 452.5,295.5C 437.258,305.269 421.258,307.603 404.5,302.5C 401.067,299.399 398.4,295.732 396.5,291.5C 406.342,297.302 417.009,299.469 428.5,298C 435.676,295.831 442.676,293.164 449.5,290C 450.591,288.45 451.924,287.283 453.5,286.5 Z"/></g>
</svg>
