<?xml version="1.0" encoding="UTF-8"?>
<!DOCTYPE svg PUBLIC "-//W3C//DTD SVG 1.1//EN" "http://www.w3.org/Graphics/SVG/1.1/DTD/svg11.dtd">
<svg xmlns="http://www.w3.org/2000/svg" version="1.1" width="1113px" height="1024px" style="shape-rendering:geometricPrecision; text-rendering:geometricPrecision; image-rendering:optimizeQuality; fill-rule:evenodd; clip-rule:evenodd" xmlns:xlink="http://www.w3.org/1999/xlink">
<g><path style="opacity:0.986" fill="#24135f" d="M 713.5,-0.5 C 819.167,-0.5 924.833,-0.5 1030.5,-0.5C 1030.5,14.1667 1030.5,28.8333 1030.5,43.5C 939.833,43.5 849.167,43.5 758.5,43.5C 758.5,112.5 758.5,181.5 758.5,250.5C 833.833,250.5 909.167,250.5 984.5,250.5C 984.5,265.167 984.5,279.833 984.5,294.5C 909.167,294.5 833.833,294.5 758.5,294.5C 758.5,358.167 758.5,421.833 758.5,485.5C 743.5,485.5 728.5,485.5 713.5,485.5C 713.5,323.5 713.5,161.5 713.5,-0.5 Z"/></g>
<g><path style="opacity:0.99" fill="#24125e" d="M 324.5,0.5 C 409.058,-0.292604 478.891,31.0407 534,94.5C 542.909,105.98 551.075,117.98 558.5,130.5C 539.509,131.666 520.509,131.833 501.5,131C 446.718,64.7317 376.718,38.7317 291.5,53C 209.001,73.832 155.501,124.999 131,206.5C 112.378,295.982 138.211,369.482 208.5,427C 268.735,469.416 334.068,479.416 404.5,457C 443.648,442.502 475.981,418.835 501.5,386C 520.497,385.5 539.497,385.333 558.5,385.5C 536.586,425.584 505.919,457.417 466.5,481C 393.634,521.682 317.967,527.682 239.5,499C 174.35,472.184 127.183,426.684 98,362.5C 66.7789,285.799 69.7789,210.466 107,136.5C 155.414,53.0241 227.914,7.69077 324.5,0.5 Z"/></g>
<g><path style="opacity:0.987" fill="#24125e" d="M 396.5,250.5 C 489.167,250.5 581.833,250.5 674.5,250.5C 674.667,369.5 674.5,488.5 674,607.5C 667.563,672.913 634.063,718.08 573.5,743C 507.388,762.984 449.555,749.15 400,701.5C 370.765,669.649 355.931,631.982 355.5,588.5C 370.5,588.5 385.5,588.5 400.5,588.5C 402.793,640.926 427.793,677.759 475.5,699C 519.016,714.47 558.683,707.803 594.5,679C 614.705,659.087 626.205,634.92 629,606.5C 629.5,502.501 629.667,398.501 629.5,294.5C 551.833,294.5 474.167,294.5 396.5,294.5C 396.5,279.833 396.5,265.167 396.5,250.5 Z"/></g>
<g><path style="opacity:0.933" fill="#24135e" d="M 535.5,808.5 C 545.175,808.672 547.842,813.172 543.5,822C 533.481,824.977 529.648,821.477 532,811.5C 533.145,810.364 534.312,809.364 535.5,808.5 Z"/></g>
<g><path style="opacity:0.946" fill="#23125e" d="M 187.5,810.5 C 203.546,808.26 217.88,812.094 230.5,822C 232.62,824.409 234.62,826.909 236.5,829.5C 234.393,831.727 232.06,833.727 229.5,835.5C 216.584,821.187 200.917,817.02 182.5,823C 162.61,833.96 155.777,850.46 162,872.5C 173.49,894.445 190.99,901.279 214.5,893C 220.152,890.25 224.986,886.417 229,881.5C 231.333,883.167 233.667,884.833 236,886.5C 229.992,896.761 220.825,902.928 208.5,905C 180.512,909.593 161.346,898.76 151,872.5C 145.009,840.779 157.176,820.113 187.5,810.5 Z"/></g>
<g><path style="opacity:0.953" fill="#24125e" d="M 731.5,810.5 C 734.5,810.5 737.5,810.5 740.5,810.5C 740.5,841.5 740.5,872.5 740.5,903.5C 737.5,903.5 734.5,903.5 731.5,903.5C 731.665,900.15 731.498,896.817 731,893.5C 717.879,906.833 703.045,909 686.5,900C 670.251,885.71 667.084,868.876 677,849.5C 690.101,833.302 705.934,830.136 724.5,840C 726.667,842.167 728.833,844.333 731,846.5C 731.5,834.505 731.667,822.505 731.5,810.5 Z M 701.5,843.5 C 717.048,842.556 726.881,849.556 731,864.5C 732.372,885.631 722.538,896.131 701.5,896C 692.596,894.096 686.429,888.929 683,880.5C 678.024,862.452 684.191,850.118 701.5,843.5 Z"/></g>
<g><path style="opacity:0.925" fill="#23135e" d="M 870.5,810.5 C 873.833,810.5 877.167,810.5 880.5,810.5C 880.5,841.5 880.5,872.5 880.5,903.5C 877.167,903.5 873.833,903.5 870.5,903.5C 870.5,872.5 870.5,841.5 870.5,810.5 Z"/></g>
<g><path style="opacity:0.94" fill="#23125e" d="M 275.5,834.5 C 301.27,832.537 315.27,844.37 317.5,870C 315.523,895.308 301.856,906.974 276.5,905C 263.204,901.705 254.37,893.538 250,880.5C 245.787,857.912 254.287,842.579 275.5,834.5 Z M 279.5,843.5 C 297.162,843.826 306.829,852.826 308.5,870.5C 306.855,885.978 298.355,894.645 283,896.5C 267.213,894.713 259.046,885.879 258.5,870C 259.415,856.26 266.415,847.427 279.5,843.5 Z"/></g>
<g><path style="opacity:0.917" fill="#23125e" d="M 359.5,834.5 C 378.865,833.028 389.031,842.028 390,861.5C 390.5,875.496 390.667,889.496 390.5,903.5C 387.167,903.5 383.833,903.5 380.5,903.5C 380.941,886.777 380.441,870.11 379,853.5C 376.328,846.665 371.328,843.331 364,843.5C 354.645,844.17 347.978,848.837 344,857.5C 342.964,860.753 342.297,864.086 342,867.5C 341.5,879.495 341.333,891.495 341.5,903.5C 338.5,903.5 335.5,903.5 332.5,903.5C 332.5,881.167 332.5,858.833 332.5,836.5C 335.5,836.5 338.5,836.5 341.5,836.5C 341.335,839.85 341.502,843.183 342,846.5C 346.429,840.375 352.262,836.375 359.5,834.5 Z"/></g>
<g><path style="opacity:0.942" fill="#23125e" d="M 416.5,834.5 C 426.459,833.09 434.459,836.257 440.5,844C 439.333,846.5 437.5,848.333 435,849.5C 431.303,846.139 426.969,844.139 422,843.5C 413.946,844.617 411.279,848.95 414,856.5C 422.179,862.257 430.179,868.257 438,874.5C 443.86,886.882 441.026,896.715 429.5,904C 421.89,906.372 414.557,905.706 407.5,902C 399.684,897.872 399.517,893.372 407,888.5C 413.784,897.598 421.45,898.598 430,891.5C 433.194,886.673 432.694,882.173 428.5,878C 422.998,874.415 417.331,871.081 411.5,868C 400.85,857.646 400.85,847.313 411.5,837C 413.315,836.243 414.981,835.41 416.5,834.5 Z"/></g>
<g><path style="opacity:0.945" fill="#23125e" d="M 478.5,834.5 C 496.264,832.012 509.098,838.679 517,854.5C 518.898,860.019 520.065,865.685 520.5,871.5C 500.833,871.5 481.167,871.5 461.5,871.5C 463.431,888.937 473.098,897.104 490.5,896C 499.33,893.675 505.997,888.508 510.5,880.5C 512.5,881.5 514.5,882.5 516.5,883.5C 517.614,884.723 517.781,886.056 517,887.5C 505.22,905.003 489.387,909.836 469.5,902C 453.398,890.695 448.231,875.528 454,856.5C 458.311,844.68 466.478,837.347 478.5,834.5 Z M 480.5,843.5 C 494.831,842.191 504.498,848.191 509.5,861.5C 493.844,862.666 478.177,862.833 462.5,862C 465.35,852.651 471.35,846.484 480.5,843.5 Z"/></g>
<g><path style="opacity:0.942" fill="#24125e" d="M 583.5,834.5 C 605.273,832.29 619.107,841.623 625,862.5C 627.614,878.008 622.78,890.508 610.5,900C 592.388,909.56 576.555,906.727 563,891.5C 552.111,872.035 554.944,854.868 571.5,840C 575.481,837.838 579.481,836.005 583.5,834.5 Z M 587.5,843.5 C 593.656,843.289 599.323,844.789 604.5,848C 617.58,859.642 619.413,872.809 610,887.5C 597.333,899.5 584.667,899.5 572,887.5C 565.062,876.702 564.729,865.702 571,854.5C 575.356,848.92 580.856,845.253 587.5,843.5 Z"/></g>
<g><path style="opacity:0.94" fill="#23125e" d="M 781.5,834.5 C 808.027,832.697 822.027,845.03 823.5,871.5C 803.822,871.167 784.155,871.5 764.5,872.5C 769.364,893.765 782.03,900.599 802.5,893C 807.363,889.77 811.196,885.604 814,880.5C 816.795,881.808 819.295,883.474 821.5,885.5C 808.646,905.883 791.313,910.716 769.5,900C 757.851,889.723 753.351,876.89 756,861.5C 759.613,847.725 768.113,838.725 781.5,834.5 Z M 784.5,843.5 C 799.108,842.446 808.441,848.779 812.5,862.5C 797.167,862.5 781.833,862.5 766.5,862.5C 769.129,852.873 775.129,846.54 784.5,843.5 Z"/></g>
<g><path style="opacity:0.953" fill="#24125e" d="M 920.5,834.5 C 933.718,832.512 944.552,836.512 953,846.5C 953.498,843.183 953.665,839.85 953.5,836.5C 956.5,836.5 959.5,836.5 962.5,836.5C 962.5,858.833 962.5,881.167 962.5,903.5C 959.5,903.5 956.5,903.5 953.5,903.5C 953.665,900.15 953.498,896.817 953,893.5C 943.423,904.191 931.589,907.691 917.5,904C 897.052,894.366 889.886,878.532 896,856.5C 900.926,845.4 909.092,838.067 920.5,834.5 Z M 924.5,843.5 C 942.435,843.264 952.435,852.098 954.5,870C 952.309,888.533 941.976,897.2 923.5,896C 905.144,888.276 899.644,875.11 907,856.5C 911.049,849.599 916.882,845.266 924.5,843.5 Z"/></g>
<g><path style="opacity:0.981" fill="#23125e" d="M 533.5,836.5 C 536.833,836.5 540.167,836.5 543.5,836.5C 543.958,865.209 543.458,893.876 542,922.5C 541.214,925.583 539.381,927.749 536.5,929C 531.473,929.938 526.64,929.438 522,927.5C 521.503,924.854 521.336,922.187 521.5,919.5C 524.469,920.329 527.469,920.495 530.5,920C 531.667,919.5 532.5,918.667 533,917.5C 533.5,890.502 533.667,863.502 533.5,836.5 Z"/></g>
<g><path style="opacity:0.917" fill="#24125d" d="M 221.5,925.5 C 227.614,924.549 231.28,927.049 232.5,933C 231.413,939.424 227.746,941.757 221.5,940C 217.788,937.487 216.622,933.987 218,929.5C 219.376,928.295 220.542,926.962 221.5,925.5 Z"/></g>
<g><path style="opacity:0.929" fill="#24125e" d="M 193.5,927.5 C 196.833,927.5 200.167,927.5 203.5,927.5C 203.5,958.5 203.5,989.5 203.5,1020.5C 200.167,1020.5 196.833,1020.5 193.5,1020.5C 193.665,1017.48 193.498,1014.48 193,1011.5C 179.911,1023.91 165.411,1025.75 149.5,1017C 133.253,1002.78 130.086,985.949 140,966.5C 152.295,950.969 167.462,947.469 185.5,956C 188.295,957.793 190.795,959.96 193,962.5C 193.5,950.838 193.667,939.171 193.5,927.5 Z M 164.5,960.5 C 180.039,959.546 189.873,966.546 194,981.5C 195.372,1002.63 185.538,1013.13 164.5,1013C 155.604,1011.11 149.437,1005.94 146,997.5C 141.029,979.441 147.196,967.108 164.5,960.5 Z"/></g>
<g><path style="opacity:0.96" fill="#23125e" d="M 876.5,927.5 C 879.833,927.5 883.167,927.5 886.5,927.5C 886.5,958.5 886.5,989.5 886.5,1020.5C 883.167,1020.5 879.833,1020.5 876.5,1020.5C 876.665,1017.48 876.498,1014.48 876,1011.5C 861.433,1024.7 845.933,1025.87 829.5,1015C 816.849,1001.76 814.016,986.594 821,969.5C 832.925,951.558 848.759,947.058 868.5,956C 871.667,957.833 874.167,960.333 876,963.5C 876.5,951.505 876.667,939.505 876.5,927.5 Z M 847.5,960.5 C 867.771,960.937 877.604,971.27 877,991.5C 873.342,1007.16 863.508,1014.33 847.5,1013C 831.346,1007.53 824.846,996.367 828,979.5C 831.112,969.553 837.612,963.219 847.5,960.5 Z"/></g>
<g><path style="opacity:0.929" fill="#23135f" d="M 1112.5,927.5 C 1112.5,958.5 1112.5,989.5 1112.5,1020.5C 1109.5,1020.5 1106.5,1020.5 1103.5,1020.5C 1103.5,989.5 1103.5,958.5 1103.5,927.5C 1106.5,927.5 1109.5,927.5 1112.5,927.5 Z"/></g>
<g><path style="opacity:0.993" fill="#27115c" d="M 416.5,928.5 C 419.833,928.5 423.167,928.5 426.5,928.5C 426.5,936.833 426.5,945.167 426.5,953.5C 430.833,953.5 435.167,953.5 439.5,953.5C 439.5,956.167 439.5,958.833 439.5,961.5C 435.167,961.5 430.833,961.5 426.5,961.5C 426.5,981.167 426.5,1000.83 426.5,1020.5C 423.167,1020.5 419.833,1020.5 416.5,1020.5C 416.5,1000.83 416.5,981.167 416.5,961.5C 412.833,961.5 409.167,961.5 405.5,961.5C 405.5,958.833 405.5,956.167 405.5,953.5C 409.167,953.5 412.833,953.5 416.5,953.5C 416.5,945.167 416.5,936.833 416.5,928.5 Z"/></g>
<g><path style="opacity:0.908" fill="#23125e" d="M 22.5,1023.5 C 21.8333,1023.5 21.1667,1023.5 20.5,1023.5C 12.7513,1022.46 5.75127,1019.46 -0.5,1014.5C -0.5,1013.5 -0.5,1012.5 -0.5,1011.5C 0.681673,1009.16 2.34834,1007.16 4.5,1005.5C 8.70416,1008.2 13.0375,1010.7 17.5,1013C 24.3552,1014.32 29.1885,1011.82 32,1005.5C 33.4624,980.218 33.9624,954.885 33.5,929.5C 36.8333,929.5 40.1667,929.5 43.5,929.5C 43.9245,955.864 43.4245,982.197 42,1008.5C 38.8629,1017.97 32.3629,1022.97 22.5,1023.5 Z"/></g>
<g><path style="opacity:0.957" fill="#24125e" d="M 681.5,929.5 C 696.833,929.5 712.167,929.5 727.5,929.5C 727.5,932.833 727.5,936.167 727.5,939.5C 715.5,939.5 703.5,939.5 691.5,939.5C 691.5,948.5 691.5,957.5 691.5,966.5C 703.5,966.5 715.5,966.5 727.5,966.5C 727.5,969.833 727.5,973.167 727.5,976.5C 715.5,976.5 703.5,976.5 691.5,976.5C 691.5,991.167 691.5,1005.83 691.5,1020.5C 688.167,1020.5 684.833,1020.5 681.5,1020.5C 681.5,990.167 681.5,959.833 681.5,929.5 Z"/></g>
<g><path style="opacity:0.937" fill="#24125e" d="M 271.5,951.5 C 287.645,949.152 300.645,954.318 310.5,967C 308.089,968.955 305.589,970.789 303,972.5C 291.281,959.177 277.781,957.01 262.5,966C 251.05,977.275 249.55,989.775 258,1003.5C 269.1,1014.48 281.6,1016.31 295.5,1009C 298,1006.5 300.5,1004 303,1001.5C 305.589,1003.21 308.089,1005.04 310.5,1007C 302.779,1017.61 292.279,1022.78 279,1022.5C 256.878,1021.21 244.711,1009.54 242.5,987.5C 244.15,968.79 253.817,956.79 271.5,951.5 Z"/></g>
<g><path style="opacity:0.935" fill="#23125e" d="M 349.5,951.5 C 362.617,949.482 373.45,953.482 382,963.5C 382.498,960.183 382.665,956.85 382.5,953.5C 385.5,953.5 388.5,953.5 391.5,953.5C 391.5,975.833 391.5,998.167 391.5,1020.5C 388.5,1020.5 385.5,1020.5 382.5,1020.5C 382.665,1017.15 382.498,1013.82 382,1010.5C 368.879,1023.83 354.045,1026 337.5,1017C 323.244,1005.07 319.077,990.242 325,972.5C 330.291,962.035 338.458,955.035 349.5,951.5 Z M 353.5,960.5 C 374.24,961.743 383.74,972.743 382,993.5C 377.466,1007.86 367.633,1014.36 352.5,1013C 340.014,1008.84 333.014,1000.17 331.5,987C 333.11,973.214 340.444,964.381 353.5,960.5 Z"/></g>
<g><path style="opacity:0.942" fill="#24135f" d="M 543.5,951.5 C 546.518,951.335 549.518,951.502 552.5,952C 554.286,952.196 555.619,953.029 556.5,954.5C 555.041,956.583 553.708,958.75 552.5,961C 544.247,959.545 538.413,962.712 535,970.5C 534.08,973.101 533.413,975.768 533,978.5C 532.5,992.496 532.333,1006.5 532.5,1020.5C 529.167,1020.5 525.833,1020.5 522.5,1020.5C 522.5,998.167 522.5,975.833 522.5,953.5C 525.833,953.5 529.167,953.5 532.5,953.5C 532.337,955.857 532.503,958.19 533,960.5C 535.84,956.673 539.34,953.673 543.5,951.5 Z"/></g>
<g><path style="opacity:0.941" fill="#23125e" d="M 586.5,951.5 C 599.653,949.493 610.486,953.493 619,963.5C 619.498,960.183 619.665,956.85 619.5,953.5C 622.5,953.5 625.5,953.5 628.5,953.5C 628.5,975.833 628.5,998.167 628.5,1020.5C 625.5,1020.5 622.5,1020.5 619.5,1020.5C 619.665,1017.15 619.498,1013.82 619,1010.5C 605.308,1024.24 590.141,1026.07 573.5,1016C 557.967,1001.16 555.467,984.33 566,965.5C 571.333,958.433 578.166,953.766 586.5,951.5 Z M 590.5,960.5 C 605.144,959.995 614.644,966.661 619,980.5C 621.32,1002.51 611.486,1013.34 589.5,1013C 569.924,1004.61 564.757,990.776 574,971.5C 578.356,965.92 583.856,962.253 590.5,960.5 Z"/></g>
<g><path style="opacity:0.957" fill="#23125e" d="M 763.5,951.5 C 790.005,949.673 804.005,962.007 805.5,988.5C 785.833,988.5 766.167,988.5 746.5,988.5C 748.438,1005.95 758.105,1014.11 775.5,1013C 784.63,1010.94 791.296,1005.78 795.5,997.5C 798.329,998.747 800.995,1000.25 803.5,1002C 793.198,1020.55 777.865,1026.55 757.5,1020C 744.054,1013.2 737.054,1002.2 736.5,987C 737.508,968.854 746.508,957.021 763.5,951.5 Z M 766.5,960.5 C 781.042,959.421 790.375,965.754 794.5,979.5C 778.83,979.667 763.163,979.5 747.5,979C 750.455,969.21 756.789,963.043 766.5,960.5 Z"/></g>
<g><path style="opacity:0.952" fill="#23125e" d="M 927.5,951.5 C 954.005,949.673 968.005,962.007 969.5,988.5C 949.833,988.5 930.167,988.5 910.5,988.5C 912.439,1005.95 922.106,1014.11 939.5,1013C 948.63,1010.94 955.296,1005.78 959.5,997.5C 962.329,998.747 964.995,1000.25 967.5,1002C 957.198,1020.55 941.865,1026.55 921.5,1020C 908.047,1013.19 901.047,1002.19 900.5,987C 901.501,968.859 910.501,957.026 927.5,951.5 Z M 930.5,960.5 C 945.042,959.421 954.375,965.754 958.5,979.5C 942.83,979.667 927.163,979.5 911.5,979C 914.455,969.21 920.789,963.043 930.5,960.5 Z"/></g>
<g><path style="opacity:0.944" fill="#23125e" d="M 1001.5,951.5 C 1004.85,951.335 1008.18,951.502 1011.5,952C 1012.91,952.368 1013.91,953.201 1014.5,954.5C 1013.54,956.918 1012.21,959.084 1010.5,961C 1002.03,959.754 996.198,963.254 993,971.5C 991.964,974.753 991.297,978.086 991,981.5C 990.5,994.496 990.333,1007.5 990.5,1020.5C 987.167,1020.5 983.833,1020.5 980.5,1020.5C 980.5,998.167 980.5,975.833 980.5,953.5C 983.833,953.5 987.167,953.5 990.5,953.5C 990.337,955.857 990.503,958.19 991,960.5C 994.103,956.886 997.603,953.886 1001.5,951.5 Z"/></g>
<g><path style="opacity:0.947" fill="#24125e" d="M 1044.5,951.5 C 1055.31,949.83 1064.98,952.33 1073.5,959C 1075.05,960.214 1076.22,961.714 1077,963.5C 1077.5,960.183 1077.67,956.85 1077.5,953.5C 1080.5,953.5 1083.5,953.5 1086.5,953.5C 1086.5,975.833 1086.5,998.167 1086.5,1020.5C 1083.5,1020.5 1080.5,1020.5 1077.5,1020.5C 1077.66,1017.48 1077.5,1014.48 1077,1011.5C 1062.42,1024.67 1046.92,1025.84 1030.5,1015C 1018.27,1002.62 1015.1,988.116 1021,971.5C 1025.98,961.339 1033.82,954.672 1044.5,951.5 Z M 1048.5,960.5 C 1071.01,961.516 1080.51,973.183 1077,995.5C 1071.99,1008.59 1062.49,1014.42 1048.5,1013C 1033.59,1008.36 1026.75,998.19 1028,982.5C 1030.58,971.088 1037.42,963.755 1048.5,960.5 Z"/></g>
<g><path style="opacity:0.95" fill="#24125e" d="M 61.5,953.5 C 64.5,953.5 67.5,953.5 70.5,953.5C 70.1176,969.206 70.6176,984.872 72,1000.5C 78.7457,1012.98 88.579,1016.15 101.5,1010C 104.04,1007.8 106.207,1005.3 108,1002.5C 109.44,986.224 109.94,969.89 109.5,953.5C 112.833,953.5 116.167,953.5 119.5,953.5C 119.667,967.504 119.5,981.504 119,995.5C 117.779,1013.22 108.279,1022.22 90.5,1022.5C 73.671,1022.5 64.171,1014.17 62,997.5C 61.5001,982.837 61.3334,968.17 61.5,953.5 Z"/></g>
<g><path style="opacity:0.932" fill="#24125e" d="M 220.5,953.5 C 223.5,953.5 226.5,953.5 229.5,953.5C 229.5,975.833 229.5,998.167 229.5,1020.5C 226.5,1020.5 223.5,1020.5 220.5,1020.5C 220.5,998.167 220.5,975.833 220.5,953.5 Z"/></g>
<g><path style="opacity:0.922" fill="#23125e" d="M 449.5,953.5 C 452.833,953.5 456.167,953.5 459.5,953.5C 459.062,969.557 459.562,985.557 461,1001.5C 464.444,1009.23 470.444,1013.23 479,1013.5C 487.738,1012.81 493.738,1008.48 497,1000.5C 498.42,984.883 498.92,969.216 498.5,953.5C 501.5,953.5 504.5,953.5 507.5,953.5C 507.667,968.837 507.5,984.17 507,999.5C 504.02,1014.81 494.686,1022.47 479,1022.5C 459.28,1021.11 449.613,1010.44 450,990.5C 449.5,978.171 449.333,965.838 449.5,953.5 Z"/></g>
</svg>
