<?xml version="1.0" encoding="UTF-8"?>
<!DOCTYPE svg PUBLIC "-//W3C//DTD SVG 1.1//EN" "http://www.w3.org/Graphics/SVG/1.1/DTD/svg11.dtd">
<svg xmlns="http://www.w3.org/2000/svg" version="1.1" width="2560px" height="435px" style="shape-rendering:geometricPrecision; text-rendering:geometricPrecision; image-rendering:optimizeQuality; fill-rule:evenodd; clip-rule:evenodd" xmlns:xlink="http://www.w3.org/1999/xlink">
<g><path style="opacity:0.992" fill="#193865" d="M 5.5,-0.5 C 18.8333,-0.5 32.1667,-0.5 45.5,-0.5C 46.4057,34.4902 46.739,69.4902 46.5,104.5C 242.501,104.329 438.501,104.662 634.5,105.5C 633.596,118.808 633.263,132.141 633.5,145.5C 530,145.275 426.5,144.942 323,144.5C 231.481,144.313 139.981,145.147 48.5,147C 47.1875,153.428 46.5209,160.094 46.5,167C 45.6832,197.161 45.3498,227.328 45.5,257.5C 30.1667,257.5 14.8333,257.5 -0.5,257.5C -0.5,171.833 -0.5,86.1667 -0.5,0.5C 1.73535,0.794717 3.73535,0.461384 5.5,-0.5 Z"/></g>
<g><path style="opacity:0.989" fill="#193864" d="M 253.5,-0.5 C 269.167,-0.5 284.833,-0.5 300.5,-0.5C 299.815,26.4945 299.482,53.4945 299.5,80.5C 284.484,81.2166 269.484,81.2166 254.5,80.5C 253.554,53.5185 253.22,26.5185 253.5,-0.5 Z"/></g>
<g><path style="opacity:0.978" fill="#9e9fa4" d="M 371.5,-0.5 C 447.833,-0.5 524.167,-0.5 600.5,-0.5C 611.654,0.494769 622.988,0.828102 634.5,0.5C 634.5,14.1667 634.5,27.8333 634.5,41.5C 546.835,42.0976 459.168,42.4309 371.5,42.5C 371.5,28.1667 371.5,13.8333 371.5,-0.5 Z"/></g>
<g><path style="opacity:0.99" fill="#193764" d="M 696.5,-0.5 C 716.833,-0.5 737.167,-0.5 757.5,-0.5C 773.371,16.1084 789.705,32.2751 806.5,48C 860.333,99.1667 914.167,150.333 968,201.5C 969.315,188.655 969.981,175.655 970,162.5C 970.5,108.168 970.667,53.8344 970.5,-0.5C 986.167,-0.5 1001.83,-0.5 1017.5,-0.5C 1017.5,85.5 1017.5,171.5 1017.5,257.5C 997.164,257.667 976.831,257.5 956.5,257C 886.636,189.469 816.47,122.302 746,55.5C 744.708,61.6622 744.041,67.9956 744,74.5C 743.28,135.499 742.78,196.499 742.5,257.5C 727.131,257.214 711.798,257.547 696.5,258.5C 696.5,172.167 696.5,85.8333 696.5,-0.5 Z"/></g>
<g><path style="opacity:0.995" fill="#193764" d="M 1078.5,-0.5 C 1098.5,-0.5 1118.5,-0.5 1138.5,-0.5C 1208.2,67.696 1278.7,135.029 1350,201.5C 1351.49,134.225 1351.99,66.8915 1351.5,-0.5C 1367.17,-0.5 1382.83,-0.5 1398.5,-0.5C 1398.5,85.5 1398.5,171.5 1398.5,257.5C 1378.16,257.667 1357.83,257.5 1337.5,257C 1268.24,188.74 1198.08,121.573 1127,55.5C 1125.71,82.126 1125.04,108.793 1125,135.5C 1124.5,176.165 1124.33,216.832 1124.5,257.5C 1109.17,257.5 1093.83,257.5 1078.5,257.5C 1078.5,171.5 1078.5,85.5 1078.5,-0.5 Z"/></g>
<g><path style="opacity:0.995" fill="#193864" d="M 1464.5,-0.5 C 1478.17,-0.5 1491.83,-0.5 1505.5,-0.5C 1506.92,0.451145 1508.59,0.784479 1510.5,0.5C 1510.5,86.1667 1510.5,171.833 1510.5,257.5C 1495.13,257.214 1479.8,257.547 1464.5,258.5C 1464.5,172.167 1464.5,85.8333 1464.5,-0.5 Z"/></g>
<g><path style="opacity:0.988" fill="#193764" d="M 1656.5,-0.5 C 1719.83,-0.5 1783.17,-0.5 1846.5,-0.5C 1856.32,0.494021 1866.32,0.827354 1876.5,0.5C 1876.6,13.1742 1876.94,25.8408 1877.5,38.5C 1819.17,39.217 1760.84,39.717 1702.5,40C 1684.48,40.171 1666.48,40.8377 1648.5,42C 1635.12,46.381 1625.95,55.2143 1621,68.5C 1620.04,109.862 1620.37,151.195 1622,192.5C 1625.41,203.573 1632.57,211.073 1643.5,215C 1650.27,217.488 1657.27,218.821 1664.5,219C 1710.17,219.667 1755.83,219.667 1801.5,219C 1813.86,219.743 1825.2,216.743 1835.5,210C 1841.73,204.659 1844.9,197.825 1845,189.5C 1845.92,175.847 1846.42,162.18 1846.5,148.5C 1813.16,148.309 1779.83,147.976 1746.5,147.5C 1746.5,134.167 1746.5,120.833 1746.5,107.5C 1902.5,107.764 2058.5,107.431 2214.5,106.5C 2214.56,120.179 2214.22,133.846 2213.5,147.5C 2106.83,147.934 2000.17,148.267 1893.5,148.5C 1894.34,169.42 1892.51,190.086 1888,210.5C 1880.43,236.737 1863.26,252.571 1836.5,258C 1827.2,259.065 1817.86,259.732 1808.5,260C 1759.83,260.667 1711.17,260.667 1662.5,260C 1608.27,262.092 1578.77,236.259 1574,182.5C 1573.83,164.5 1573.67,146.5 1573.5,128.5C 1573.4,106.811 1573.9,85.1448 1575,63.5C 1581.58,26.59 1603.41,5.75669 1640.5,1C 1646.02,0.826691 1651.35,0.326691 1656.5,-0.5 Z"/></g>
<g><path style="opacity:0.978" fill="#9e9ea3" d="M 1985.5,-0.5 C 2061.83,-0.5 2138.17,-0.5 2214.5,-0.5C 2214.5,13.8333 2214.5,28.1667 2214.5,42.5C 2126.5,42.5 2038.5,42.5 1950.5,42.5C 1950.5,28.4901 1950.83,14.4901 1951.5,0.5C 1963.01,0.828102 1974.35,0.494769 1985.5,-0.5 Z"/></g>
<g><path style="opacity:0.99" fill="#193764" d="M 2395.5,-0.5 C 2442.5,-0.5 2489.5,-0.5 2536.5,-0.5C 2536.82,12.7461 2536.49,25.9128 2535.5,39C 2481.5,39.3333 2427.5,39.6667 2373.5,40C 2359.72,40.1925 2346.05,41.5259 2332.5,44C 2319.77,46.7294 2312.6,54.5628 2311,67.5C 2309.43,77.6149 2310.76,87.2816 2315,96.5C 2319.97,102.736 2326.47,105.902 2334.5,106C 2379.48,107.987 2424.48,109.32 2469.5,110C 2483.57,110.169 2497.57,111.169 2511.5,113C 2535.3,118.651 2551.3,132.818 2559.5,155.5C 2559.5,173.5 2559.5,191.5 2559.5,209.5C 2551.13,237.68 2532.13,253.513 2502.5,257C 2491.56,258.702 2480.56,259.702 2469.5,260C 2408.16,261.738 2346.83,261.738 2285.5,260C 2284.15,259.228 2283.32,258.061 2283,256.5C 2282.5,244.171 2282.33,231.838 2282.5,219.5C 2348.85,219.938 2415.18,219.438 2481.5,218C 2493.22,218.048 2503.06,213.882 2511,205.5C 2512.75,202.754 2513.75,199.754 2514,196.5C 2514.67,187.167 2514.67,177.833 2514,168.5C 2512.31,163.475 2509.14,159.641 2504.5,157C 2493.7,154.232 2482.7,152.898 2471.5,153C 2424.48,152.305 2377.48,150.971 2330.5,149C 2316.31,147.27 2302.98,142.937 2290.5,136C 2276.6,125.715 2268.77,111.881 2267,94.5C 2257.33,33.5275 2283.16,2.36087 2344.5,1C 2361.67,0.831561 2378.67,0.331561 2395.5,-0.5 Z"/></g>
<g><path style="opacity:0.983" fill="#193764" d="M 254.5,176.5 C 269.5,176.5 284.5,176.5 299.5,176.5C 299.482,203.505 299.815,230.505 300.5,257.5C 284.833,257.5 269.167,257.5 253.5,257.5C 253.371,230.492 253.704,203.492 254.5,176.5 Z"/></g>
<g><path style="opacity:0.975" fill="#9e9fa4" d="M 371.5,216.5 C 459.169,216.443 546.835,216.776 634.5,217.5C 635.797,232.156 635.797,246.823 634.5,261.5C 547.163,261.744 459.829,261.411 372.5,260.5C 371.627,245.853 371.293,231.186 371.5,216.5 Z"/></g>
<g><path style="opacity:0.985" fill="#9e9fa4" d="M 1951.5,217.5 C 2038.83,217.5 2126.17,217.5 2213.5,217.5C 2213.5,231.833 2213.5,246.167 2213.5,260.5C 2155.5,260.443 2097.5,260.776 2039.5,261.5C 2011.16,261.444 1982.83,260.944 1954.5,260C 1952.94,259.682 1951.77,258.849 1951,257.5C 1950.49,244.159 1950.65,230.826 1951.5,217.5 Z"/></g>
<g><path style="opacity:0.936" fill="#9e9fa4" d="M 1435.5,336.5 C 1438.97,335.875 1441.8,336.875 1444,339.5C 1458.03,369.933 1471.86,400.433 1485.5,431C 1481.28,433.053 1477.12,432.886 1473,430.5C 1469.22,423.667 1465.72,416.667 1462.5,409.5C 1446.66,408.796 1430.82,408.13 1415,407.5C 1414.17,407.833 1413.33,408.167 1412.5,408.5C 1408.92,415.991 1405.09,423.324 1401,430.5C 1397.83,432.621 1394.49,432.954 1391,431.5C 1402.62,400.905 1415.96,370.905 1431,341.5C 1432.71,339.963 1434.21,338.296 1435.5,336.5 Z M 1437.5,354.5 C 1444.84,367.523 1450.84,381.189 1455.5,395.5C 1443.2,396.607 1430.87,396.773 1418.5,396C 1423.9,381.707 1430.23,367.874 1437.5,354.5 Z"/></g>
<g><path style="opacity:0.941" fill="#9e9fa4" d="M 1813.5,434.5 C 1809.5,434.5 1805.5,434.5 1801.5,434.5C 1774.85,429.174 1760.52,412.84 1758.5,385.5C 1760.37,355.297 1776.37,338.963 1806.5,336.5C 1833.19,337.028 1849.02,350.361 1854,376.5C 1856.96,407.643 1843.46,426.976 1813.5,434.5 Z M 1798.5,348.5 C 1821.7,346.008 1836.2,356.008 1842,378.5C 1844.86,401.275 1835.36,415.775 1813.5,422C 1794.19,424.099 1780.69,416.266 1773,398.5C 1769.54,384.834 1771.54,372.168 1779,360.5C 1784.32,354.271 1790.82,350.271 1798.5,348.5 Z"/></g>
<g><path style="opacity:0.939" fill="#9e9fa4" d="M 2093.5,434.5 C 2090.83,434.5 2088.17,434.5 2085.5,434.5C 2067.19,432.05 2054.03,422.384 2046,405.5C 2037.29,380.643 2043.12,360.143 2063.5,344C 2088.05,331.141 2109.88,334.641 2129,354.5C 2139.26,370.464 2141.26,387.464 2135,405.5C 2126.42,422.705 2112.59,432.371 2093.5,434.5 Z M 2086.5,347.5 C 2111.19,348.186 2124.52,360.853 2126.5,385.5C 2124.47,407.189 2112.81,419.856 2091.5,423.5C 2062.25,418.01 2050.75,400.677 2057,371.5C 2062.28,357.699 2072.12,349.699 2086.5,347.5 Z"/></g>
<g><path style="opacity:0.95" fill="#9e9fa4" d="M 1648.5,338.5 C 1673.5,338.5 1698.5,338.5 1723.5,338.5C 1723.78,341.448 1723.44,344.281 1722.5,347C 1714.23,348.204 1705.89,348.871 1697.5,349C 1695.6,349.199 1694.1,350.033 1693,351.5C 1691.69,378.483 1691.19,405.483 1691.5,432.5C 1687.83,432.5 1684.17,432.5 1680.5,432.5C 1679.85,404.505 1679.52,376.505 1679.5,348.5C 1669.5,348.5 1659.5,348.5 1649.5,348.5C 1648.79,345.214 1648.46,341.881 1648.5,338.5 Z"/></g>
<g><path style="opacity:0.939" fill="#9d9ea4" d="M 1992.5,337.5 C 1993.5,368.996 1993.83,400.662 1993.5,432.5C 1989.83,432.5 1986.17,432.5 1982.5,432.5C 1982.82,408.813 1982.32,385.146 1981,361.5C 1970.58,376.676 1959.91,391.676 1949,406.5C 1937.76,391.678 1926.76,376.678 1916,361.5C 1914.55,385.123 1914.05,408.789 1914.5,432.5C 1910.89,432.789 1907.39,432.456 1904,431.5C 1902.71,400.514 1902.21,369.514 1902.5,338.5C 1906.97,338.133 1911.3,338.633 1915.5,340C 1923.7,350.904 1931.54,362.071 1939,373.5C 1942.01,377.339 1945.18,381.006 1948.5,384.5C 1950.48,383.018 1952.32,381.351 1954,379.5C 1962.25,368.007 1970.25,356.34 1978,344.5C 1981.71,339.558 1986.55,337.225 1992.5,337.5 Z"/></g>
<g><path style="opacity:0.928" fill="#9e9fa4" d="M 2177.5,338.5 C 2201.17,338.5 2224.83,338.5 2248.5,338.5C 2248.66,340.857 2248.5,343.19 2248,345.5C 2247.61,346.428 2246.95,347.095 2246,347.5C 2237.15,348.153 2228.32,348.82 2219.5,349.5C 2218.68,352.107 2218.18,354.774 2218,357.5C 2218.15,382.559 2217.32,407.393 2215.5,432C 2212.24,432.784 2209.07,432.617 2206,431.5C 2205,404.157 2204.17,376.823 2203.5,349.5C 2194.1,349.281 2184.77,348.448 2175.5,347C 2172.44,343.117 2173.11,340.284 2177.5,338.5 Z"/></g>
<g><path style="opacity:0.929" fill="#9d9ea3" d="M 2294.5,338.5 C 2298.5,338.5 2302.5,338.5 2306.5,338.5C 2306.5,369.833 2306.5,401.167 2306.5,432.5C 2302.89,432.789 2299.39,432.456 2296,431.5C 2294.75,400.513 2294.25,369.513 2294.5,338.5 Z"/></g>
<g><path style="opacity:0.937" fill="#9e9fa4" d="M 2399.5,434.5 C 2397.83,434.5 2396.17,434.5 2394.5,434.5C 2390.35,428.248 2386.85,421.581 2384,414.5C 2373.81,390.915 2363.81,367.248 2354,343.5C 2353.33,342.167 2353.33,340.833 2354,339.5C 2358,338.167 2362,338.167 2366,339.5C 2375.86,364.878 2386.52,389.878 2398,414.5C 2408.47,390.084 2419.14,365.75 2430,341.5C 2430.9,340.299 2432.07,339.465 2433.5,339C 2436.48,338.502 2439.48,338.335 2442.5,338.5C 2430.56,370.049 2417.23,401.049 2402.5,431.5C 2401.23,432.288 2400.23,433.288 2399.5,434.5 Z"/></g>
<g><path style="opacity:0.941" fill="#9e9fa4" d="M 2487.5,338.5 C 2510.59,338.021 2533.59,338.521 2556.5,340C 2557.8,342.499 2557.46,344.833 2555.5,347C 2536.87,348.388 2518.2,348.888 2499.5,348.5C 2499.17,358.19 2499.5,367.856 2500.5,377.5C 2516.78,378.617 2533.12,379.284 2549.5,379.5C 2549.55,383.198 2549.89,386.865 2550.5,390.5C 2533.49,390.35 2516.49,390.684 2499.5,391.5C 2499.67,401.524 2499.33,411.524 2498.5,421.5C 2517.86,421.217 2537.19,421.55 2556.5,422.5C 2556.62,425.86 2556.95,429.193 2557.5,432.5C 2534.17,432.5 2510.83,432.5 2487.5,432.5C 2487.5,401.167 2487.5,369.833 2487.5,338.5 Z"/></g>
<g><path style="opacity:0.935" fill="#9e9ea4" d="M 1525.5,339.5 C 1529.17,339.5 1532.83,339.5 1536.5,339.5C 1536.39,359.515 1536.89,379.515 1538,399.5C 1541.21,414.061 1550.38,422.061 1565.5,423.5C 1581.31,421.86 1589.81,413.193 1591,397.5C 1591.96,378.177 1592.46,358.844 1592.5,339.5C 1596.5,339.5 1600.5,339.5 1604.5,339.5C 1604.67,359.169 1604.5,378.836 1604,398.5C 1600.74,422.427 1587.08,434.094 1563,433.5C 1547.61,433.802 1536.27,427.135 1529,413.5C 1527.08,408.351 1526.08,403.017 1526,397.5C 1525.5,378.17 1525.33,358.836 1525.5,339.5 Z"/></g>
</svg>
