<?xml version="1.0" encoding="UTF-8"?>
<!DOCTYPE svg PUBLIC "-//W3C//DTD SVG 1.1//EN" "http://www.w3.org/Graphics/SVG/1.1/DTD/svg11.dtd">
<svg xmlns="http://www.w3.org/2000/svg" version="1.1" width="2560px" height="394px" style="shape-rendering:geometricPrecision; text-rendering:geometricPrecision; image-rendering:optimizeQuality; fill-rule:evenodd; clip-rule:evenodd" xmlns:xlink="http://www.w3.org/1999/xlink">
<g><path style="opacity:0.997" fill="#0070af" d="M 1107.5,47.5 C 1130.94,45.2193 1153.28,49.0527 1174.5,59C 1195.4,72.2939 1205.73,91.4605 1205.5,116.5C 1203.65,143.553 1195.48,168.553 1181,191.5C 1151.92,235.913 1115.42,273.079 1071.5,303C 1033.46,329.517 991.791,348.183 946.5,359C 920.796,364.836 895.13,364.836 869.5,359C 838.337,349.156 822.337,327.822 821.5,295C 822.735,271.296 829.235,249.129 841,228.5C 858.95,197.193 881.45,169.36 908.5,145C 952.087,106.024 1001.75,77.0241 1057.5,58C 1074.01,53.087 1090.68,49.587 1107.5,47.5 Z"/></g>
<g><path style="opacity:1" fill="#fdfefe" d="M 935.5,127.5 C 936.5,127.5 937.5,127.5 938.5,127.5C 938.137,129.911 939.137,131.411 941.5,132C 989.499,132.5 1037.5,132.667 1085.5,132.5C 1085.65,133.552 1085.48,134.552 1085,135.5C 1053.05,175.909 1021.21,216.409 989.5,257C 1019.5,257.667 1049.5,257.667 1079.5,257C 1081.03,256.3 1082.03,255.134 1082.5,253.5C 1083.32,252.614 1084.32,252.281 1085.5,252.5C 1085.5,263.833 1085.5,275.167 1085.5,286.5C 1083.09,285.313 1080.76,283.813 1078.5,282C 1030.83,281.5 983.168,281.333 935.5,281.5C 935.351,280.448 935.517,279.448 936,278.5C 968.287,238.091 1000.45,197.591 1032.5,157C 1002.17,156.333 971.833,156.333 941.5,157C 939.137,157.589 938.137,159.089 938.5,161.5C 937.5,161.5 936.5,161.5 935.5,161.5C 935.5,150.167 935.5,138.833 935.5,127.5 Z"/></g>
<g><path style="opacity:0.702" fill="#000000" d="M 2501.5,128.5 C 2517.67,127.498 2524.51,134.831 2522,150.5C 2515.69,160.821 2507.19,162.987 2496.5,157C 2490.59,151.557 2489.09,145.057 2492,137.5C 2494.41,133.592 2497.57,130.592 2501.5,128.5 Z M 2514.5,153.5 C 2513.83,150.658 2512.49,148.158 2510.5,146C 2514.21,144.309 2515.38,141.475 2514,137.5C 2512.83,136.107 2511.33,135.273 2509.5,135C 2506.52,134.502 2503.52,134.335 2500.5,134.5C 2506.54,130.699 2512.04,131.699 2517,137.5C 2518.5,141.039 2518.84,144.705 2518,148.5C 2517.3,150.584 2516.14,152.251 2514.5,153.5 Z M 2500.5,134.5 C 2500.5,140.833 2500.5,147.167 2500.5,153.5C 2501.83,153.5 2503.17,153.5 2504.5,153.5C 2504.7,144.701 2506.7,144.534 2510.5,153C 2511.79,153.49 2513.13,153.657 2514.5,153.5C 2508.15,157.978 2502.32,157.311 2497,151.5C 2493.02,144.548 2494.19,138.881 2500.5,134.5 Z M 2504.5,138.5 C 2506.98,138.051 2508.98,138.717 2510.5,140.5C 2508.98,142.283 2506.98,142.949 2504.5,142.5C 2504.5,141.167 2504.5,139.833 2504.5,138.5 Z"/></g>
<g><path style="opacity:0.958" fill="#000000" d="M 1924.5,129.5 C 1948.82,128.574 1970.82,135.074 1990.5,149C 2010.99,168.455 2019.15,192.288 2015,220.5C 2007.88,254.285 1987.38,274.785 1953.5,282C 1921.51,288.672 1892.51,282.338 1866.5,263C 1845.03,239.953 1838.53,213.119 1847,182.5C 1856.62,156.219 1875.12,139.719 1902.5,133C 1909.93,131.501 1917.26,130.334 1924.5,129.5 Z M 1918.5,155.5 C 1941.23,152.353 1960.4,159.02 1976,175.5C 1988.28,195.93 1988.62,216.596 1977,237.5C 1964.61,251.94 1948.78,259.274 1929.5,259.5C 1886.66,255.796 1868.82,232.796 1876,190.5C 1881.1,175.067 1891.27,164.567 1906.5,159C 1910.62,157.808 1914.62,156.641 1918.5,155.5 Z"/></g>
<g><path style="opacity:0.95" fill="#000000" d="M 35.5,132.5 C 49.5,132.5 63.5,132.5 77.5,132.5C 77.5,133.5 77.5,134.5 77.5,135.5C 75.4176,135.472 73.5843,136.139 72,137.5C 71.5,177.499 71.3333,217.499 71.5,257.5C 103.168,257.667 134.835,257.5 166.5,257C 169.901,257.266 171.567,255.766 171.5,252.5C 172.833,252.5 174.167,252.5 175.5,252.5C 175.5,263.833 175.5,275.167 175.5,286.5C 174.167,286.5 172.833,286.5 171.5,286.5C 171.64,284.876 170.973,283.71 169.5,283C 124.835,282.5 80.1679,282.333 35.5,282.5C 35.5,281.167 35.5,279.833 35.5,278.5C 36.9305,278.579 38.2638,278.246 39.5,277.5C 40.6666,230.837 40.8333,184.17 40,137.5C 37.3301,136.776 35.8301,135.109 35.5,132.5 Z"/></g>
<g><path style="opacity:0.958" fill="#000000" d="M 525.5,132.5 C 540.833,132.5 556.167,132.5 571.5,132.5C 571.649,133.552 571.483,134.552 571,135.5C 569.095,136.158 567.595,137.325 566.5,139C 587.996,184.816 609.496,230.649 631,276.5C 632.584,277.861 634.418,278.528 636.5,278.5C 636.5,279.833 636.5,281.167 636.5,282.5C 622.5,282.5 608.5,282.5 594.5,282.5C 594.275,280.284 595.108,278.617 597,277.5C 597.667,276.167 597.667,274.833 597,273.5C 592.295,263.257 587.462,253.091 582.5,243C 559.169,242.5 535.836,242.333 512.5,242.5C 508.841,252.823 504.341,262.823 499,272.5C 498.333,274.167 498.333,275.833 499,277.5C 500.892,278.617 501.725,280.284 501.5,282.5C 488.833,282.5 476.167,282.5 463.5,282.5C 463.5,281.167 463.5,279.833 463.5,278.5C 465.903,278.607 467.736,277.607 469,275.5C 489,230.833 509,186.167 529,141.5C 530.075,138.469 529.075,136.469 526,135.5C 525.517,134.552 525.351,133.552 525.5,132.5 Z M 545.5,167.5 C 554.621,183.809 562.621,200.809 569.5,218.5C 554.152,218.833 538.819,218.499 523.5,217.5C 531.395,201.047 538.728,184.38 545.5,167.5 Z"/></g>
<g><path style="opacity:0.964" fill="#000000" d="M 1386.5,132.5 C 1424.5,132.333 1462.5,132.5 1500.5,133C 1528.61,137.68 1540.11,154.18 1535,182.5C 1531.55,191.45 1525.72,198.45 1517.5,203.5C 1537.44,214.052 1544.94,230.385 1540,252.5C 1535.35,267.143 1525.52,276.31 1510.5,280C 1506.21,280.912 1501.87,281.579 1497.5,282C 1460.5,282.5 1423.5,282.667 1386.5,282.5C 1386.5,281.167 1386.5,279.833 1386.5,278.5C 1388.39,278.703 1389.89,278.037 1391,276.5C 1391.67,230.167 1391.67,183.833 1391,137.5C 1388.33,136.776 1386.83,135.109 1386.5,132.5 Z M 1421.5,157.5 C 1446.17,157.333 1470.84,157.5 1495.5,158C 1503.69,159.867 1507.36,165.034 1506.5,173.5C 1506.59,181.567 1502.92,187.067 1495.5,190C 1470.88,191.451 1446.21,191.951 1421.5,191.5C 1421.5,180.167 1421.5,168.833 1421.5,157.5 Z M 1421.5,216.5 C 1445.5,216.333 1469.5,216.5 1493.5,217C 1509.43,220.346 1514.93,229.846 1510,245.5C 1506.89,251.261 1502.06,254.761 1495.5,256C 1470.86,257.419 1446.2,257.919 1421.5,257.5C 1421.5,243.833 1421.5,230.167 1421.5,216.5 Z"/></g>
<g><path style="opacity:0.957" fill="#000000" d="M 2311.5,132.5 C 2326.5,132.5 2341.5,132.5 2356.5,132.5C 2355.64,134.816 2355.14,137.149 2355,139.5C 2367.67,156.833 2380.33,174.167 2393,191.5C 2405.67,174.167 2418.33,156.833 2431,139.5C 2430.22,137.27 2429.39,134.937 2428.5,132.5C 2442.83,132.5 2457.17,132.5 2471.5,132.5C 2471.78,135.388 2470.45,136.888 2467.5,137C 2463.96,140.201 2460.8,143.701 2458,147.5C 2441.33,170.833 2424.67,194.167 2408,217.5C 2407.33,236.833 2407.33,256.167 2408,275.5C 2408.7,277.032 2409.87,278.032 2411.5,278.5C 2412.43,279.689 2412.76,281.022 2412.5,282.5C 2399.17,282.5 2385.83,282.5 2372.5,282.5C 2372.5,281.167 2372.5,279.833 2372.5,278.5C 2374.39,278.703 2375.89,278.037 2377,276.5C 2377.67,256.833 2377.67,237.167 2377,217.5C 2355.96,188.33 2334.13,159.997 2311.5,132.5 Z"/></g>
<g><path style="opacity:0.671" fill="#000000" d="M 2500.5,134.5 C 2503.52,134.335 2506.52,134.502 2509.5,135C 2511.33,135.273 2512.83,136.107 2514,137.5C 2515.38,141.475 2514.21,144.309 2510.5,146C 2512.49,148.158 2513.83,150.658 2514.5,153.5C 2513.13,153.657 2511.79,153.49 2510.5,153C 2506.7,144.534 2504.7,144.701 2504.5,153.5C 2503.17,153.5 2501.83,153.5 2500.5,153.5C 2500.5,147.167 2500.5,140.833 2500.5,134.5 Z M 2504.5,138.5 C 2504.5,139.833 2504.5,141.167 2504.5,142.5C 2506.98,142.949 2508.98,142.283 2510.5,140.5C 2508.98,138.717 2506.98,138.051 2504.5,138.5 Z"/></g>
</svg>
