<?xml version="1.0" encoding="UTF-8"?>
<!DOCTYPE svg PUBLIC "-//W3C//DTD SVG 1.1//EN" "http://www.w3.org/Graphics/SVG/1.1/DTD/svg11.dtd">
<svg xmlns="http://www.w3.org/2000/svg" version="1.1" width="225px" height="225px" style="shape-rendering:geometricPrecision; text-rendering:geometricPrecision; image-rendering:optimizeQuality; fill-rule:evenodd; clip-rule:evenodd" xmlns:xlink="http://www.w3.org/1999/xlink">
<g><path style="opacity:1" fill="#fcfdfd" d="M -0.5,-0.5 C 34.1667,-0.5 68.8333,-0.5 103.5,-0.5C 99.3609,0.562891 95.0275,1.22956 90.5,1.5C 75.7125,4.08486 62.3791,9.75152 50.5,18.5C 44.4425,21.5293 39.1092,25.5293 34.5,30.5C 32.4131,31.5846 31.0798,33.2512 30.5,35.5C 21.543,44.0629 14.543,54.0629 9.5,65.5C 7.6371,69.755 5.97044,74.0883 4.5,78.5C 2.06456,86.8027 0.39789,95.136 -0.5,103.5C -0.5,68.8333 -0.5,34.1667 -0.5,-0.5 Z"/></g>
<g><path style="opacity:1" fill="#fcfdfd" d="M 119.5,-0.5 C 154.5,-0.5 189.5,-0.5 224.5,-0.5C 224.5,33.8333 224.5,68.1667 224.5,102.5C 223.718,97.4632 222.718,92.4632 221.5,87.5C 221.5,86.8333 221.5,86.1667 221.5,85.5C 206.094,34.7591 172.094,6.09245 119.5,-0.5 Z"/></g>
<g><path style="opacity:1" fill="#1673b1" d="M 95.5,6.5 C 99.449,6.69322 99.449,7.19322 95.5,8C 98.146,8.49742 100.813,8.66409 103.5,8.5C 103.5,10.8333 103.5,13.1667 103.5,15.5C 106.167,15.5 108.833,15.5 111.5,15.5C 111.5,16.8333 111.5,18.1667 111.5,19.5C 114.167,19.5 116.833,19.5 119.5,19.5C 119.5,20.8333 119.5,22.1667 119.5,23.5C 122.167,23.5 124.833,23.5 127.5,23.5C 127.5,26.1667 127.5,28.8333 127.5,31.5C 130.167,31.5 132.833,31.5 135.5,31.5C 135.5,32.8333 135.5,34.1667 135.5,35.5C 138.167,35.5 140.833,35.5 143.5,35.5C 143.5,36.8333 143.5,38.1667 143.5,39.5C 146.167,39.5 148.833,39.5 151.5,39.5C 151.5,40.8333 151.5,42.1667 151.5,43.5C 154.167,43.5 156.833,43.5 159.5,43.5C 159.5,44.5 159.5,45.5 159.5,46.5C 170.146,46.6707 170.146,47.1707 159.5,48C 162.146,48.4974 164.813,48.6641 167.5,48.5C 167.5,49.5 167.5,50.5 167.5,51.5C 170.167,51.5 172.833,51.5 175.5,51.5C 175.5,52.8333 175.5,54.1667 175.5,55.5C 164.833,55.8333 164.833,56.1667 175.5,56.5C 175.5,57.5 175.5,58.5 175.5,59.5C 178.167,59.5 180.833,59.5 183.5,59.5C 183.5,60.5 183.5,61.5 183.5,62.5C 194.146,62.6707 194.146,63.1707 183.5,64C 186.146,64.4974 188.813,64.6641 191.5,64.5C 191.5,65.5 191.5,66.5 191.5,67.5C 194.167,67.5 196.833,67.5 199.5,67.5C 199.5,70.1667 199.5,72.8333 199.5,75.5C 204.833,75.5 210.167,75.5 215.5,75.5C 215.351,74.448 215.517,73.448 216,72.5C 217.395,77.167 219.228,81.5003 221.5,85.5C 221.5,86.1667 221.5,86.8333 221.5,87.5C 220.8,97.8294 219.967,97.4961 219,86.5C 218.654,89.5755 217.988,92.5755 217,95.5C 216.517,94.552 216.351,93.552 216.5,92.5C 210.813,91.9765 205.146,91.3098 199.5,90.5C 199.5,88.5 199.5,86.5 199.5,84.5C 196.833,84.5 194.167,84.5 191.5,84.5C 191.5,82.8333 191.5,81.1667 191.5,79.5C 186.167,79.5 180.833,79.5 175.5,79.5C 175.5,75.8333 175.5,72.1667 175.5,68.5C 172.833,68.5 170.167,68.5 167.5,68.5C 167.5,66.8333 167.5,65.1667 167.5,63.5C 162.167,63.5 156.833,63.5 151.5,63.5C 151.5,59.8333 151.5,56.1667 151.5,52.5C 148.833,52.5 146.167,52.5 143.5,52.5C 143.5,50.8333 143.5,49.1667 143.5,47.5C 140.833,47.5 138.167,47.5 135.5,47.5C 135.5,46.5 135.5,45.5 135.5,44.5C 132.833,44.5 130.167,44.5 127.5,44.5C 127.5,42.8333 127.5,41.1667 127.5,39.5C 124.833,39.5 122.167,39.5 119.5,39.5C 119.5,38.5 119.5,37.5 119.5,36.5C 116.833,36.5 114.167,36.5 111.5,36.5C 111.5,33.8333 111.5,31.1667 111.5,28.5C 108.833,28.5 106.167,28.5 103.5,28.5C 103.5,26.8333 103.5,25.1667 103.5,23.5C 100.833,23.5 98.1667,23.5 95.5,23.5C 95.5,22.5 95.5,21.5 95.5,20.5C 92.8333,20.5 90.1667,20.5 87.5,20.5C 87.5,17.8333 87.5,15.1667 87.5,12.5C 84.8333,12.5 82.1667,12.5 79.5,12.5C 79.5,10.8333 79.5,9.16667 79.5,7.5C 81.5643,7.31299 83.5643,6.81299 85.5,6C 81.7309,5.2345 81.8976,4.40116 86,3.5C 85.9423,4.97999 87.1089,5.81332 89.5,6C 87.4049,6.55563 87.2382,7.05563 89,7.5C 91.0989,6.71348 93.2655,6.38014 95.5,6.5 Z"/></g>
<g><path style="opacity:1" fill="#1979ba" d="M 103.5,-0.5 C 108.833,-0.5 114.167,-0.5 119.5,-0.5C 172.094,6.09245 206.094,34.7591 221.5,85.5C 219.228,81.5003 217.395,77.167 216,72.5C 215.517,73.448 215.351,74.448 215.5,75.5C 210.167,75.5 204.833,75.5 199.5,75.5C 199.5,72.8333 199.5,70.1667 199.5,67.5C 196.833,67.5 194.167,67.5 191.5,67.5C 191.5,66.5 191.5,65.5 191.5,64.5C 188.813,64.6641 186.146,64.4974 183.5,64C 194.146,63.1707 194.146,62.6707 183.5,62.5C 183.5,61.5 183.5,60.5 183.5,59.5C 180.833,59.5 178.167,59.5 175.5,59.5C 175.5,58.5 175.5,57.5 175.5,56.5C 164.833,56.1667 164.833,55.8333 175.5,55.5C 175.5,54.1667 175.5,52.8333 175.5,51.5C 172.833,51.5 170.167,51.5 167.5,51.5C 167.5,50.5 167.5,49.5 167.5,48.5C 164.813,48.6641 162.146,48.4974 159.5,48C 170.146,47.1707 170.146,46.6707 159.5,46.5C 159.5,45.5 159.5,44.5 159.5,43.5C 156.833,43.5 154.167,43.5 151.5,43.5C 151.5,42.1667 151.5,40.8333 151.5,39.5C 148.833,39.5 146.167,39.5 143.5,39.5C 143.5,38.1667 143.5,36.8333 143.5,35.5C 140.833,35.5 138.167,35.5 135.5,35.5C 135.5,34.1667 135.5,32.8333 135.5,31.5C 132.833,31.5 130.167,31.5 127.5,31.5C 127.5,28.8333 127.5,26.1667 127.5,23.5C 124.833,23.5 122.167,23.5 119.5,23.5C 119.5,22.1667 119.5,20.8333 119.5,19.5C 116.833,19.5 114.167,19.5 111.5,19.5C 111.5,18.1667 111.5,16.8333 111.5,15.5C 108.833,15.5 106.167,15.5 103.5,15.5C 103.5,13.1667 103.5,10.8333 103.5,8.5C 100.813,8.66409 98.146,8.49742 95.5,8C 99.449,7.19322 99.449,6.69322 95.5,6.5C 97.9686,5.6829 100.635,5.1829 103.5,5C 99.5,4.66667 95.5,4.33333 91.5,4C 90.7476,3.32924 90.4142,2.4959 90.5,1.5C 95.0275,1.22956 99.3609,0.562891 103.5,-0.5 Z"/></g>
<g><path style="opacity:1" fill="#15659b" d="M 50.5,18.5 C 53.8227,22.2597 57.4893,25.7597 61.5,29C 62.7425,29.3114 63.7425,28.8114 64.5,27.5C 66.3813,29.7337 68.7147,31.067 71.5,31.5C 71.5,32.8333 71.5,34.1667 71.5,35.5C 74.1667,35.5 76.8333,35.5 79.5,35.5C 79.5,38.1667 79.5,40.8333 79.5,43.5C 82.8499,43.335 86.1832,43.5017 89.5,44C 90.9158,46.2645 92.9158,47.4312 95.5,47.5C 95.5,48.8333 95.5,50.1667 95.5,51.5C 98.1667,51.5 100.833,51.5 103.5,51.5C 103.5,52.8333 103.5,54.1667 103.5,55.5C 106.167,55.5 108.833,55.5 111.5,55.5C 111.5,56.8333 111.5,58.1667 111.5,59.5C 114.167,59.5 116.833,59.5 119.5,59.5C 119.5,62.1667 119.5,64.8333 119.5,67.5C 122.167,67.5 124.833,67.5 127.5,67.5C 127.5,68.8333 127.5,70.1667 127.5,71.5C 130.167,71.5 132.833,71.5 135.5,71.5C 135.5,72.8333 135.5,74.1667 135.5,75.5C 138.167,75.5 140.833,75.5 143.5,75.5C 143.5,76.8333 143.5,78.1667 143.5,79.5C 146.167,79.5 148.833,79.5 151.5,79.5C 151.238,80.9778 151.571,82.3112 152.5,83.5C 157.424,86.416 162.09,89.7494 166.5,93.5C 167.429,94.6888 167.762,96.0222 167.5,97.5C 164.925,96.7207 162.592,96.8873 160.5,98C 162.764,99.2579 165.098,100.425 167.5,101.5C 166.051,102.172 164.718,102.839 163.5,103.5C 161.246,104.415 159.246,105.748 157.5,107.5C 156.593,110.859 156.259,114.859 156.5,119.5C 155.092,114.907 153.759,110.24 152.5,105.5C 154.957,103.668 154.957,102.001 152.5,100.5C 151.833,101.5 151.167,102.5 150.5,103.5C 146.041,100.493 142.374,96.6593 139.5,92C 137.581,90.0662 136.081,90.2329 135,92.5C 134.25,91.8742 133.416,91.3742 132.5,91C 131.24,88.7323 129.906,86.5656 128.5,84.5C 127.833,85.5 127.167,86.5 126.5,87.5C 125.109,85.1097 123.109,83.4431 120.5,82.5C 119.614,81.675 119.281,80.675 119.5,79.5C 115.789,78.4125 112.122,76.9125 108.5,75C 107.24,72.7323 105.906,70.5656 104.5,68.5C 103.833,69.5 103.167,70.5 102.5,71.5C 98.693,66.7648 93.693,64.4315 87.5,64.5C 82.8437,60.9964 78.8437,56.8297 75.5,52C 73.5812,50.0662 72.0812,50.2329 71,52.5C 66.2427,49.0629 61.4093,45.7295 56.5,42.5C 55.6143,41.675 55.281,40.675 55.5,39.5C 51.7887,38.4125 48.122,36.9125 44.5,35C 42.4732,33.6043 42.1398,31.9376 43.5,30C 42.5509,29.3828 41.7175,29.5494 41,30.5C 40.5488,28.0712 39.7155,27.9045 38.5,30C 39.4231,32.0408 39.7564,34.2075 39.5,36.5C 36.7952,36.6198 36.1285,35.6198 37.5,33.5C 36.452,32.452 35.452,31.452 34.5,30.5C 39.1092,25.5293 44.4425,21.5293 50.5,18.5 Z"/></g>
<g><path style="opacity:1" fill="#166ca7" d="M 90.5,1.5 C 90.4142,2.4959 90.7476,3.32924 91.5,4C 95.5,4.33333 99.5,4.66667 103.5,5C 100.635,5.1829 97.9686,5.6829 95.5,6.5C 93.2655,6.38014 91.0989,6.71348 89,7.5C 87.2382,7.05563 87.4049,6.55563 89.5,6C 87.1089,5.81332 85.9423,4.97999 86,3.5C 81.8976,4.40116 81.7309,5.2345 85.5,6C 83.5643,6.81299 81.5643,7.31299 79.5,7.5C 79.5,9.16667 79.5,10.8333 79.5,12.5C 82.1667,12.5 84.8333,12.5 87.5,12.5C 87.5,15.1667 87.5,17.8333 87.5,20.5C 90.1667,20.5 92.8333,20.5 95.5,20.5C 95.5,21.5 95.5,22.5 95.5,23.5C 98.1667,23.5 100.833,23.5 103.5,23.5C 103.5,25.1667 103.5,26.8333 103.5,28.5C 106.167,28.5 108.833,28.5 111.5,28.5C 111.5,31.1667 111.5,33.8333 111.5,36.5C 114.167,36.5 116.833,36.5 119.5,36.5C 119.5,37.5 119.5,38.5 119.5,39.5C 122.167,39.5 124.833,39.5 127.5,39.5C 127.5,41.1667 127.5,42.8333 127.5,44.5C 130.167,44.5 132.833,44.5 135.5,44.5C 135.5,45.5 135.5,46.5 135.5,47.5C 138.167,47.5 140.833,47.5 143.5,47.5C 143.5,49.1667 143.5,50.8333 143.5,52.5C 146.167,52.5 148.833,52.5 151.5,52.5C 151.5,56.1667 151.5,59.8333 151.5,63.5C 156.833,63.5 162.167,63.5 167.5,63.5C 167.5,65.1667 167.5,66.8333 167.5,68.5C 170.167,68.5 172.833,68.5 175.5,68.5C 175.5,72.1667 175.5,75.8333 175.5,79.5C 180.833,79.5 186.167,79.5 191.5,79.5C 191.5,81.1667 191.5,82.8333 191.5,84.5C 194.167,84.5 196.833,84.5 199.5,84.5C 199.5,86.5 199.5,88.5 199.5,90.5C 205.146,91.3098 210.813,91.9765 216.5,92.5C 216.351,93.552 216.517,94.552 217,95.5C 217.988,92.5755 218.654,89.5755 219,86.5C 219.967,97.4961 220.8,97.8294 221.5,87.5C 222.718,92.4632 223.718,97.4632 224.5,102.5C 224.5,108.833 224.5,115.167 224.5,121.5C 223.833,124.167 223.167,126.833 222.5,129.5C 221.778,129.918 221.278,130.584 221,131.5C 220.781,130.062 220.281,128.729 219.5,127.5C 218.833,130.167 218.167,132.833 217.5,135.5C 217.167,130.167 216.833,124.833 216.5,119.5C 215.52,122.086 215.187,124.753 215.5,127.5C 214.167,127.5 212.833,127.5 211.5,127.5C 211.5,124.833 211.5,122.167 211.5,119.5C 209.833,119.5 208.167,119.5 206.5,119.5C 206.658,116.098 206.324,112.764 205.5,109.5C 206.228,107.265 207.561,105.432 209.5,104C 207.741,103.202 206.074,103.369 204.5,104.5C 202.167,111.167 199.833,111.167 197.5,104.5C 195.926,103.369 194.259,103.202 192.5,104C 196.916,107.541 199.249,112.041 199.5,117.5C 197.533,117.261 195.699,117.594 194,118.5C 194.263,117.049 194.096,115.716 193.5,114.5C 190.444,116.289 187.111,116.956 183.5,116.5C 183.785,114.712 183.452,113.045 182.5,111.5C 180.684,110.185 179.017,108.685 177.5,107C 176.423,106.53 175.423,106.697 174.5,107.5C 171.805,103.989 168.138,102.656 163.5,103.5C 164.718,102.839 166.051,102.172 167.5,101.5C 165.098,100.425 162.764,99.2579 160.5,98C 162.592,96.8873 164.925,96.7207 167.5,97.5C 167.762,96.0222 167.429,94.6888 166.5,93.5C 162.09,89.7494 157.424,86.416 152.5,83.5C 151.571,82.3112 151.238,80.9778 151.5,79.5C 148.833,79.5 146.167,79.5 143.5,79.5C 143.5,78.1667 143.5,76.8333 143.5,75.5C 140.833,75.5 138.167,75.5 135.5,75.5C 135.5,74.1667 135.5,72.8333 135.5,71.5C 132.833,71.5 130.167,71.5 127.5,71.5C 127.5,70.1667 127.5,68.8333 127.5,67.5C 124.833,67.5 122.167,67.5 119.5,67.5C 119.5,64.8333 119.5,62.1667 119.5,59.5C 116.833,59.5 114.167,59.5 111.5,59.5C 111.5,58.1667 111.5,56.8333 111.5,55.5C 108.833,55.5 106.167,55.5 103.5,55.5C 103.5,54.1667 103.5,52.8333 103.5,51.5C 100.833,51.5 98.1667,51.5 95.5,51.5C 95.5,50.1667 95.5,48.8333 95.5,47.5C 92.9158,47.4312 90.9158,46.2645 89.5,44C 86.1832,43.5017 82.8499,43.335 79.5,43.5C 79.5,40.8333 79.5,38.1667 79.5,35.5C 76.8333,35.5 74.1667,35.5 71.5,35.5C 71.5,34.1667 71.5,32.8333 71.5,31.5C 68.7147,31.067 66.3813,29.7337 64.5,27.5C 63.7425,28.8114 62.7425,29.3114 61.5,29C 57.4893,25.7597 53.8227,22.2597 50.5,18.5C 62.3791,9.75152 75.7125,4.08486 90.5,1.5 Z"/></g>
<g><path style="opacity:1" fill="#125686" d="M 30.5,35.5 C 31.2721,39.4517 31.6054,43.4517 31.5,47.5C 34.4206,47.1459 36.7539,48.1459 38.5,50.5C 39.2508,49.624 39.7508,48.624 40,47.5C 45.1667,52.5 50.3333,57.5 55.5,62.5C 58.4465,63.3214 61.4465,63.8214 64.5,64C 69.63,69.4001 75.63,73.5667 82.5,76.5C 83.6422,78.3785 84.6422,80.2118 85.5,82C 85.8333,82.1667 86.1667,82.3333 86.5,82.5C 87.2508,81.624 87.7508,80.624 88,79.5C 92.0126,84.7392 97.1793,87.4059 103.5,87.5C 103.5,88.8333 103.5,90.1667 103.5,91.5C 106.167,91.5 108.833,91.5 111.5,91.5C 112.197,96.0497 114.697,99.383 119,101.5C 119.308,100.692 119.808,100.025 120.5,99.5C 123.109,100.23 125.776,100.73 128.5,101C 128.167,101.333 127.833,101.667 127.5,102C 129.382,102.198 131.048,102.698 132.5,103.5C 129.5,103.5 126.5,103.5 123.5,103.5C 123.5,108.833 123.5,114.167 123.5,119.5C 127.846,119.666 132.179,119.499 136.5,119C 140.002,116.504 140.335,113.671 137.5,110.5C 138.309,108.929 138.643,107.262 138.5,105.5C 139.287,103.896 140.62,103.229 142.5,103.5C 142.336,106.187 142.503,108.854 143,111.5C 145.644,113.31 148.144,115.31 150.5,117.5C 151.192,116.975 151.692,116.308 152,115.5C 152.175,118.157 152.008,120.824 151.5,123.5C 156.179,123.334 160.845,123.501 165.5,124C 164.328,124.419 163.328,125.085 162.5,126C 164.5,126.667 166.5,127.333 168.5,128C 175.003,135.845 182.67,142.178 191.5,147C 194.146,147.497 196.813,147.664 199.5,147.5C 199.5,148.833 199.5,150.167 199.5,151.5C 202.421,151.146 204.754,152.146 206.5,154.5C 207.086,154.291 207.586,153.957 208,153.5C 209.062,156.029 209.895,158.696 210.5,161.5C 211.487,158.232 211.82,154.898 211.5,151.5C 213.167,151.5 214.833,151.5 216.5,151.5C 214.484,159.196 211.15,166.196 206.5,172.5C 204.857,172.48 203.524,173.147 202.5,174.5C 201.808,173.975 201.308,173.308 201,172.5C 200.368,174.531 199.201,176.198 197.5,177.5C 195.821,175.896 193.821,175.229 191.5,175.5C 191.5,172.833 191.5,170.167 191.5,167.5C 183.5,167.5 175.5,167.5 167.5,167.5C 167.719,166.325 167.386,165.325 166.5,164.5C 163.891,163.557 161.891,161.89 160.5,159.5C 159.521,162.777 158.187,163.11 156.5,160.5C 154.955,159.548 153.288,159.215 151.5,159.5C 151.719,158.325 151.386,157.325 150.5,156.5C 145.863,153.28 141.196,150.113 136.5,147C 135.663,145.989 135.33,144.822 135.5,143.5C 132.833,143.5 130.167,143.5 127.5,143.5C 127.719,142.325 127.386,141.325 126.5,140.5C 124.246,139.876 122.579,138.543 121.5,136.5C 118.232,135.513 114.898,135.18 111.5,135.5C 111.719,134.325 111.386,133.325 110.5,132.5C 107.536,130.866 104.869,128.866 102.5,126.5C 103.428,125.232 103.595,123.899 103,122.5C 100.576,124.652 97.7427,125.985 94.5,126.5C 93.7025,126.043 93.3691,125.376 93.5,124.5C 95.5,122.833 97.5,121.167 99.5,119.5C 104.273,116.224 107.773,111.89 110,106.5C 111.618,99.4083 108.785,96.075 101.5,96.5C 96.5386,96.906 91.8719,98.2394 87.5,100.5C 84.7133,100.78 82.5466,102.113 81,104.5C 80.5172,103.552 80.3505,102.552 80.5,101.5C 77.5,101.5 74.5,101.5 71.5,101.5C 71.7852,103.288 71.4519,104.955 70.5,106.5C 68.7415,104.262 66.4082,103.262 63.5,103.5C 63.719,102.325 63.3857,101.325 62.5,100.5C 60.246,99.8763 58.5794,98.543 57.5,96.5C 54.9433,96.2178 52.2766,96.0511 49.5,96C 48.045,93.3656 46.3783,90.8656 44.5,88.5C 42.9547,87.5481 41.288,87.2148 39.5,87.5C 39.719,86.325 39.3857,85.325 38.5,84.5C 35.8908,83.5569 33.8908,81.8903 32.5,79.5C 31.5207,82.777 30.1873,83.1103 28.5,80.5C 26.9547,79.5481 25.288,79.2148 23.5,79.5C 23.719,78.325 23.3857,77.325 22.5,76.5C 19.3316,74.1541 16.1649,71.8208 13,69.5C 12.6667,68.1667 12.3333,66.8333 12,65.5C 11.2303,66.5981 10.397,66.5981 9.5,65.5C 14.543,54.0629 21.543,44.0629 30.5,35.5 Z"/></g>
<g><path style="opacity:1" fill="#124d77" d="M 9.5,65.5 C 10.397,66.5981 11.2303,66.5981 12,65.5C 12.3333,66.8333 12.6667,68.1667 13,69.5C 16.1649,71.8208 19.3316,74.1541 22.5,76.5C 23.3857,77.325 23.719,78.325 23.5,79.5C 25.288,79.2148 26.9547,79.5481 28.5,80.5C 30.1873,83.1103 31.5207,82.777 32.5,79.5C 33.8908,81.8903 35.8908,83.5569 38.5,84.5C 39.3857,85.325 39.719,86.325 39.5,87.5C 41.288,87.2148 42.9547,87.5481 44.5,88.5C 46.3783,90.8656 48.045,93.3656 49.5,96C 52.2766,96.0511 54.9433,96.2178 57.5,96.5C 58.5794,98.543 60.246,99.8763 62.5,100.5C 63.3857,101.325 63.719,102.325 63.5,103.5C 66.4082,103.262 68.7415,104.262 70.5,106.5C 71.4519,104.955 71.7852,103.288 71.5,101.5C 74.5,101.5 77.5,101.5 80.5,101.5C 80.3505,102.552 80.5172,103.552 81,104.5C 82.5466,102.113 84.7133,100.78 87.5,100.5C 87.0472,101.458 86.3805,102.292 85.5,103C 90.1667,103.333 94.8333,103.667 99.5,104C 96.1667,108 92.8333,112 89.5,116C 92.8168,116.498 96.1501,116.665 99.5,116.5C 99.5,117.5 99.5,118.5 99.5,119.5C 99.1667,119.5 98.8333,119.5 98.5,119.5C 94.1667,118.833 89.8333,118.167 85.5,117.5C 88.2854,113.542 91.2854,109.709 94.5,106C 91.2397,105.216 88.0731,105.383 85,106.5C 84.6667,105.5 84.3333,104.5 84,103.5C 79.5823,107.247 75.9156,111.58 73,116.5C 72.5026,119.146 72.3359,121.813 72.5,124.5C 71.5489,123.081 71.2155,121.415 71.5,119.5C 69.0706,119.884 66.7373,120.551 64.5,121.5C 64.6567,122.873 64.49,124.207 64,125.5C 63.8008,123.598 62.9675,122.098 61.5,121C 62.1667,120.667 62.8333,120.333 63.5,120C 61.7544,118.153 60.0877,116.319 58.5,114.5C 56.4691,111.446 54.8024,108.113 53.5,104.5C 52.3112,103.571 50.9778,103.238 49.5,103.5C 48.9347,107.537 47.6013,111.203 45.5,114.5C 43.822,115.747 42.4887,117.414 41.5,119.5C 39.9741,116.346 39.3075,113.013 39.5,109.5C 36.8333,109.5 34.1667,109.5 31.5,109.5C 31.7394,107.533 31.4061,105.699 30.5,104C 28.1902,103.503 25.8568,103.337 23.5,103.5C 23.5,100.833 23.5,98.1667 23.5,95.5C 19.8183,95.6653 16.1516,95.4986 12.5,95C 11.0842,92.7355 9.08423,91.5688 6.5,91.5C 4.55788,87.1794 3.89122,82.846 4.5,78.5C 5.97044,74.0883 7.6371,69.755 9.5,65.5 Z"/></g>
<g><path style="opacity:1" fill="#87aed0" d="M 212.5,102.5 C 215.389,102.999 216.056,104.499 214.5,107C 213.552,107.483 212.552,107.649 211.5,107.5C 211.366,105.708 211.699,104.042 212.5,102.5 Z"/></g>
<g><path style="opacity:1" fill="#f5f9f9" d="M 85.5,117.5 C 84.9569,117.56 84.6236,117.893 84.5,118.5C 89.1196,119.493 93.7863,119.827 98.5,119.5C 98.8333,119.5 99.1667,119.5 99.5,119.5C 97.5,121.167 95.5,122.833 93.5,124.5C 90.6027,125.129 87.936,126.129 85.5,127.5C 83.1667,127.5 80.8333,127.5 78.5,127.5C 76.0532,127.385 74.0532,126.385 72.5,124.5C 72.3359,121.813 72.5026,119.146 73,116.5C 75.9156,111.58 79.5823,107.247 84,103.5C 84.3333,104.5 84.6667,105.5 85,106.5C 88.0731,105.383 91.2397,105.216 94.5,106C 91.2854,109.709 88.2854,113.542 85.5,117.5 Z"/></g>
<g><path style="opacity:1" fill="#f4f7f8" d="M 99.5,119.5 C 99.5,118.5 99.5,117.5 99.5,116.5C 96.1501,116.665 92.8168,116.498 89.5,116C 92.8333,112 96.1667,108 99.5,104C 94.8333,103.667 90.1667,103.333 85.5,103C 86.3805,102.292 87.0472,101.458 87.5,100.5C 91.8719,98.2394 96.5386,96.906 101.5,96.5C 108.785,96.075 111.618,99.4083 110,106.5C 107.773,111.89 104.273,116.224 99.5,119.5 Z"/></g>
<g><path style="opacity:1" fill="#e8eef1" d="M 132.5,103.5 C 134.858,103.253 136.858,103.919 138.5,105.5C 138.643,107.262 138.309,108.929 137.5,110.5C 140.335,113.671 140.002,116.504 136.5,119C 132.179,119.499 127.846,119.666 123.5,119.5C 123.5,114.167 123.5,108.833 123.5,103.5C 126.5,103.5 129.5,103.5 132.5,103.5 Z"/></g>
<g><path style="opacity:1" fill="#326493" d="M 126.5,105.5 C 129.5,105.5 132.5,105.5 135.5,105.5C 135.5,106.833 135.5,108.167 135.5,109.5C 132.5,109.5 129.5,109.5 126.5,109.5C 126.5,108.167 126.5,106.833 126.5,105.5 Z"/></g>
<g><path style="opacity:1" fill="#f0f5f8" d="M 205.5,109.5 C 204.542,109.953 203.708,110.619 203,111.5C 202.231,114.099 202.398,116.599 203.5,119C 201.833,119.667 200.167,119.667 198.5,119C 199.056,118.617 199.389,118.117 199.5,117.5C 199.249,112.041 196.916,107.541 192.5,104C 194.259,103.202 195.926,103.369 197.5,104.5C 199.833,111.167 202.167,111.167 204.5,104.5C 206.074,103.369 207.741,103.202 209.5,104C 207.561,105.432 206.228,107.265 205.5,109.5 Z"/></g>
<g><path style="opacity:1" fill="#e7eef2" d="M 58.5,114.5 C 58.2965,116.39 58.9632,117.89 60.5,119C 58.8659,119.494 57.1992,119.66 55.5,119.5C 55.5,118.167 55.5,116.833 55.5,115.5C 52.8333,115.5 50.1667,115.5 47.5,115.5C 47.5,116.833 47.5,118.167 47.5,119.5C 46.1266,119.657 44.7932,119.49 43.5,119C 44.5822,117.67 45.2488,116.17 45.5,114.5C 47.6013,111.203 48.9347,107.537 49.5,103.5C 50.9778,103.238 52.3112,103.571 53.5,104.5C 54.8024,108.113 56.4691,111.446 58.5,114.5 Z"/></g>
<g><path style="opacity:1" fill="#153856" d="M 50.5,108.5 C 52.1207,108.787 53.1207,109.787 53.5,111.5C 52.277,112.614 50.9437,112.781 49.5,112C 50.3366,110.989 50.67,109.822 50.5,108.5 Z"/></g>
<g><path style="opacity:1" fill="#e9f2f6" d="M 163.5,103.5 C 168.138,102.656 171.805,103.989 174.5,107.5C 176.239,114.61 173.405,118.61 166,119.5C 159.035,118.603 156.202,114.603 157.5,107.5C 159.246,105.748 161.246,104.415 163.5,103.5 Z"/></g>
<g><path style="opacity:1" fill="#196097" d="M 163.5,105.5 C 171.619,105.469 173.619,108.969 169.5,116C 164.308,117.872 161.308,116.205 160.5,111C 160.863,108.808 161.863,106.974 163.5,105.5 Z"/></g>
<g><path style="opacity:1" fill="#235a8c" d="M 126.5,112.5 C 129.518,112.335 132.518,112.502 135.5,113C 136.833,114 136.833,115 135.5,116C 132.518,116.498 129.518,116.665 126.5,116.5C 126.5,115.167 126.5,113.833 126.5,112.5 Z"/></g>
<g><path style="opacity:1" fill="#6d8cab" d="M 85.5,117.5 C 89.8333,118.167 94.1667,118.833 98.5,119.5C 93.7863,119.827 89.1196,119.493 84.5,118.5C 84.6236,117.893 84.9569,117.56 85.5,117.5 Z"/></g>
<g><path style="opacity:1" fill="#10466d" d="M 4.5,78.5 C 3.89122,82.846 4.55788,87.1794 6.5,91.5C 9.08423,91.5688 11.0842,92.7355 12.5,95C 16.1516,95.4986 19.8183,95.6653 23.5,95.5C 23.5,98.1667 23.5,100.833 23.5,103.5C 25.8568,103.337 28.1902,103.503 30.5,104C 31.4061,105.699 31.7394,107.533 31.5,109.5C 34.1667,109.5 36.8333,109.5 39.5,109.5C 39.3075,113.013 39.9741,116.346 41.5,119.5C 42.4887,117.414 43.822,115.747 45.5,114.5C 45.2488,116.17 44.5822,117.67 43.5,119C 44.7932,119.49 46.1266,119.657 47.5,119.5C 47.5,118.167 47.5,116.833 47.5,115.5C 50.1667,115.5 52.8333,115.5 55.5,115.5C 55.5,116.833 55.5,118.167 55.5,119.5C 57.1992,119.66 58.8659,119.494 60.5,119C 58.9632,117.89 58.2965,116.39 58.5,114.5C 60.0877,116.319 61.7544,118.153 63.5,120C 62.8333,120.333 62.1667,120.667 61.5,121C 62.9675,122.098 63.8008,123.598 64,125.5C 64.49,124.207 64.6567,122.873 64.5,121.5C 66.7373,120.551 69.0706,119.884 71.5,119.5C 71.2155,121.415 71.5489,123.081 72.5,124.5C 74.0532,126.385 76.0532,127.385 78.5,127.5C 78.369,128.239 78.5357,128.906 79,129.5C 83.4471,128.457 83.4471,129.124 79,131.5C 76.7432,129.954 74.5765,128.288 72.5,126.5C 70.8232,130.287 71.8232,133.12 75.5,135C 79.5753,135.518 83.5753,135.518 87.5,135C 87.2964,137.621 87.2964,140.455 87.5,143.5C 89.8568,143.337 92.1902,143.503 94.5,144C 95.4061,145.699 95.7394,147.533 95.5,149.5C 100.833,150.167 106.167,150.833 111.5,151.5C 111.5,153.5 111.5,155.5 111.5,157.5C 114.167,157.5 116.833,157.5 119.5,157.5C 119.5,160.167 119.5,162.833 119.5,165.5C 124.567,165.849 129.567,166.682 134.5,168C 135.406,169.699 135.739,171.533 135.5,173.5C 140.746,173.278 145.746,174.111 150.5,176C 151.435,178.381 151.768,180.881 151.5,183.5C 154.167,183.5 156.833,183.5 159.5,183.5C 159.5,185.5 159.5,187.5 159.5,189.5C 164.567,189.849 169.567,190.682 174.5,192C 175.423,194.041 175.756,196.208 175.5,198.5C 177.331,199.052 178.997,199.052 180.5,198.5C 181.298,198.957 181.631,199.624 181.5,200.5C 178.167,202.833 174.833,205.167 171.5,207.5C 170.432,206.566 169.099,206.232 167.5,206.5C 167.5,205.167 167.5,203.833 167.5,202.5C 164.833,202.5 162.167,202.5 159.5,202.5C 158.533,195.041 154.2,191.207 146.5,191C 143.853,187.244 140.187,185.744 135.5,186.5C 135.5,185.5 135.5,184.5 135.5,183.5C 131.776,184.227 129.109,182.894 127.5,179.5C 124.914,178.52 122.247,178.187 119.5,178.5C 119.5,175.833 119.5,173.167 119.5,170.5C 116.833,170.5 114.167,170.5 111.5,170.5C 111.5,169.5 111.5,168.5 111.5,167.5C 107.776,168.227 105.109,166.894 103.5,163.5C 100.914,162.52 98.2469,162.187 95.5,162.5C 92.8333,158.833 90.1667,155.167 87.5,151.5C 85.8008,151.66 84.1341,151.494 82.5,151C 79.0082,149.376 76.0082,147.042 73.5,144C 70.1832,143.502 66.8499,143.335 63.5,143.5C 63.5,141.833 63.5,140.167 63.5,138.5C 60.8333,138.5 58.1667,138.5 55.5,138.5C 54.1724,130.191 49.1724,126.191 40.5,126.5C 39.5713,125.311 39.238,123.978 39.5,122.5C 36.5,122.5 33.5,122.5 30.5,122.5C 30.5,121.5 30.5,120.5 30.5,119.5C 28.2589,119.954 26.2589,119.954 24.5,119.5C 25.404,118.791 25.7373,117.791 25.5,116.5C 22.1667,116.5 18.8333,116.5 15.5,116.5C 15.203,112.233 15.5363,108.066 16.5,104C 14.9343,103.235 13.6009,103.402 12.5,104.5C 11.6365,103.537 10.9698,103.537 10.5,104.5C 11.098,109.441 11.098,114.441 10.5,119.5C 9.16667,119.5 7.83333,119.5 6.5,119.5C 6.64945,118.448 6.48278,117.448 6,116.5C 5.76791,117.737 5.26791,118.737 4.5,119.5C 4.72541,117.284 3.89207,115.617 2,114.5C 0.73082,115.905 0.23082,117.571 0.5,119.5C 0.166667,119.5 -0.166667,119.5 -0.5,119.5C -0.5,114.167 -0.5,108.833 -0.5,103.5C 0.39789,95.136 2.06456,86.8027 4.5,78.5 Z"/></g>
<g><path style="opacity:1" fill="#ebeff2" d="M 24.5,119.5 C 20.5,119.5 16.5,119.5 12.5,119.5C 12.5,114.5 12.5,109.5 12.5,104.5C 13.6009,103.402 14.9343,103.235 16.5,104C 15.5363,108.066 15.203,112.233 15.5,116.5C 18.8333,116.5 22.1667,116.5 25.5,116.5C 25.7373,117.791 25.404,118.791 24.5,119.5 Z"/></g>
<g><path style="opacity:1" fill="#146094" d="M 157.5,107.5 C 156.202,114.603 159.035,118.603 166,119.5C 173.405,118.61 176.239,114.61 174.5,107.5C 175.423,106.697 176.423,106.53 177.5,107C 179.017,108.685 180.684,110.185 182.5,111.5C 183.452,113.045 183.785,114.712 183.5,116.5C 187.111,116.956 190.444,116.289 193.5,114.5C 194.096,115.716 194.263,117.049 194,118.5C 195.699,117.594 197.533,117.261 199.5,117.5C 199.389,118.117 199.056,118.617 198.5,119C 200.167,119.667 201.833,119.667 203.5,119C 202.398,116.599 202.231,114.099 203,111.5C 203.708,110.619 204.542,109.953 205.5,109.5C 206.324,112.764 206.658,116.098 206.5,119.5C 208.167,119.5 209.833,119.5 211.5,119.5C 211.5,122.167 211.5,124.833 211.5,127.5C 212.833,127.5 214.167,127.5 215.5,127.5C 215.187,124.753 215.52,122.086 216.5,119.5C 216.833,124.833 217.167,130.167 217.5,135.5C 218.167,132.833 218.833,130.167 219.5,127.5C 220.281,128.729 220.781,130.062 221,131.5C 221.278,130.584 221.778,129.918 222.5,129.5C 222.038,137.357 220.038,144.691 216.5,151.5C 214.833,151.5 213.167,151.5 211.5,151.5C 211.82,154.898 211.487,158.232 210.5,161.5C 209.895,158.696 209.062,156.029 208,153.5C 207.586,153.957 207.086,154.291 206.5,154.5C 204.754,152.146 202.421,151.146 199.5,151.5C 199.5,150.167 199.5,148.833 199.5,147.5C 196.813,147.664 194.146,147.497 191.5,147C 182.67,142.178 175.003,135.845 168.5,128C 166.5,127.333 164.5,126.667 162.5,126C 163.328,125.085 164.328,124.419 165.5,124C 160.845,123.501 156.179,123.334 151.5,123.5C 152.008,120.824 152.175,118.157 152,115.5C 151.692,116.308 151.192,116.975 150.5,117.5C 148.144,115.31 145.644,113.31 143,111.5C 142.503,108.854 142.336,106.187 142.5,103.5C 140.62,103.229 139.287,103.896 138.5,105.5C 136.858,103.919 134.858,103.253 132.5,103.5C 131.048,102.698 129.382,102.198 127.5,102C 127.833,101.667 128.167,101.333 128.5,101C 125.776,100.73 123.109,100.23 120.5,99.5C 119.808,100.025 119.308,100.692 119,101.5C 114.697,99.383 112.197,96.0497 111.5,91.5C 108.833,91.5 106.167,91.5 103.5,91.5C 103.5,90.1667 103.5,88.8333 103.5,87.5C 97.1793,87.4059 92.0126,84.7392 88,79.5C 87.7508,80.624 87.2508,81.624 86.5,82.5C 86.1667,82.3333 85.8333,82.1667 85.5,82C 84.6422,80.2118 83.6422,78.3785 82.5,76.5C 75.63,73.5667 69.63,69.4001 64.5,64C 61.4465,63.8214 58.4465,63.3214 55.5,62.5C 50.3333,57.5 45.1667,52.5 40,47.5C 39.7508,48.624 39.2508,49.624 38.5,50.5C 36.7539,48.1459 34.4206,47.1459 31.5,47.5C 31.6054,43.4517 31.2721,39.4517 30.5,35.5C 31.0798,33.2512 32.4131,31.5846 34.5,30.5C 35.452,31.452 36.452,32.452 37.5,33.5C 36.1285,35.6198 36.7952,36.6198 39.5,36.5C 39.7564,34.2075 39.4231,32.0408 38.5,30C 39.7155,27.9045 40.5488,28.0712 41,30.5C 41.7175,29.5494 42.5509,29.3828 43.5,30C 42.1398,31.9376 42.4732,33.6043 44.5,35C 48.122,36.9125 51.7887,38.4125 55.5,39.5C 55.281,40.675 55.6143,41.675 56.5,42.5C 61.4093,45.7295 66.2427,49.0629 71,52.5C 72.0812,50.2329 73.5812,50.0662 75.5,52C 78.8437,56.8297 82.8437,60.9964 87.5,64.5C 93.693,64.4315 98.693,66.7648 102.5,71.5C 103.167,70.5 103.833,69.5 104.5,68.5C 105.906,70.5656 107.24,72.7323 108.5,75C 112.122,76.9125 115.789,78.4125 119.5,79.5C 119.281,80.675 119.614,81.675 120.5,82.5C 123.109,83.4431 125.109,85.1097 126.5,87.5C 127.167,86.5 127.833,85.5 128.5,84.5C 129.906,86.5656 131.24,88.7323 132.5,91C 133.416,91.3742 134.25,91.8742 135,92.5C 136.081,90.2329 137.581,90.0662 139.5,92C 142.374,96.6593 146.041,100.493 150.5,103.5C 151.167,102.5 151.833,101.5 152.5,100.5C 154.957,102.001 154.957,103.668 152.5,105.5C 153.759,110.24 155.092,114.907 156.5,119.5C 156.259,114.859 156.593,110.859 157.5,107.5 Z"/></g>
<g><path style="opacity:1" fill="#0e4167" d="M 12.5,104.5 C 12.5,109.5 12.5,114.5 12.5,119.5C 16.5,119.5 20.5,119.5 24.5,119.5C 26.2589,119.954 28.2589,119.954 30.5,119.5C 30.5,120.5 30.5,121.5 30.5,122.5C 33.5,122.5 36.5,122.5 39.5,122.5C 39.238,123.978 39.5713,125.311 40.5,126.5C 49.1724,126.191 54.1724,130.191 55.5,138.5C 58.1667,138.5 60.8333,138.5 63.5,138.5C 63.5,140.167 63.5,141.833 63.5,143.5C 66.8499,143.335 70.1832,143.502 73.5,144C 76.0082,147.042 79.0082,149.376 82.5,151C 84.1341,151.494 85.8008,151.66 87.5,151.5C 90.1667,155.167 92.8333,158.833 95.5,162.5C 98.2469,162.187 100.914,162.52 103.5,163.5C 105.109,166.894 107.776,168.227 111.5,167.5C 111.5,168.5 111.5,169.5 111.5,170.5C 114.167,170.5 116.833,170.5 119.5,170.5C 119.5,173.167 119.5,175.833 119.5,178.5C 122.247,178.187 124.914,178.52 127.5,179.5C 129.109,182.894 131.776,184.227 135.5,183.5C 135.5,184.5 135.5,185.5 135.5,186.5C 140.187,185.744 143.853,187.244 146.5,191C 154.2,191.207 158.533,195.041 159.5,202.5C 162.167,202.5 164.833,202.5 167.5,202.5C 167.5,203.833 167.5,205.167 167.5,206.5C 169.099,206.232 170.432,206.566 171.5,207.5C 167.993,209.754 164.327,211.754 160.5,213.5C 158.329,212.755 155.995,212.588 153.5,213C 151.811,207.975 148.644,204.141 144,201.5C 141.871,203.742 140.038,203.242 138.5,200C 137.552,199.517 136.552,199.351 135.5,199.5C 135.5,197.5 135.5,195.5 135.5,193.5C 132.833,193.5 130.167,193.5 127.5,193.5C 127.5,191.833 127.5,190.167 127.5,188.5C 122.2,189.481 117.867,187.981 114.5,184C 113.167,183.667 111.833,183.333 110.5,183C 108.627,180.791 106.46,178.958 104,177.5C 103.506,175.866 103.34,174.199 103.5,172.5C 98.2,173.481 93.8667,171.981 90.5,168C 89.552,167.517 88.552,167.351 87.5,167.5C 87.5,166.5 87.5,165.5 87.5,164.5C 84.8333,164.5 82.1667,164.5 79.5,164.5C 79.5,163.5 79.5,162.5 79.5,161.5C 76.8333,161.5 74.1667,161.5 71.5,161.5C 71.7989,159.396 71.4656,157.396 70.5,155.5C 68.6969,154.863 67.3636,153.697 66.5,152C 65.1667,151.667 63.8333,151.333 62.5,151C 60.6266,148.791 58.46,146.958 56,145.5C 53.8709,147.742 52.0376,147.242 50.5,144C 49.552,143.517 48.552,143.351 47.5,143.5C 47.5,142.5 47.5,141.5 47.5,140.5C 44.8333,140.5 42.1667,140.5 39.5,140.5C 39.5,137.833 39.5,135.167 39.5,132.5C 34.2,133.481 29.8667,131.981 26.5,128C 25.552,127.517 24.552,127.351 23.5,127.5C 23.5,126.5 23.5,125.5 23.5,124.5C 17.4744,123.556 11.4744,123.556 5.5,124.5C 5.64945,123.448 5.48278,122.448 5,121.5C 4.76737,123.78 3.93404,125.78 2.5,127.5C 1.51998,124.914 1.18665,122.247 1.5,119.5C 2.5,119.5 3.5,119.5 4.5,119.5C 5.26791,118.737 5.76791,117.737 6,116.5C 6.48278,117.448 6.64945,118.448 6.5,119.5C 7.83333,119.5 9.16667,119.5 10.5,119.5C 11.098,114.441 11.098,109.441 10.5,104.5C 10.9698,103.537 11.6365,103.537 12.5,104.5 Z"/></g>
<g><path style="opacity:1" fill="#114f7a" d="M 206.5,172.5 C 203.114,178.606 198.781,183.94 193.5,188.5C 189.818,188.665 186.152,188.499 182.5,188C 180.239,186.187 177.905,184.687 175.5,183.5C 175.5,182.5 175.5,181.5 175.5,180.5C 172.833,180.5 170.167,180.5 167.5,180.5C 167.5,177.833 167.5,175.167 167.5,172.5C 164.833,172.5 162.167,172.5 159.5,172.5C 159.5,171.5 159.5,170.5 159.5,169.5C 154.167,168.833 148.833,168.167 143.5,167.5C 143.649,166.448 143.483,165.448 143,164.5C 140.564,162.533 138.064,160.866 135.5,159.5C 135.5,157.5 135.5,155.5 135.5,153.5C 132.833,153.5 130.167,153.5 127.5,153.5C 127.5,151.833 127.5,150.167 127.5,148.5C 124.482,148.665 121.482,148.498 118.5,148C 116.239,146.187 113.905,144.687 111.5,143.5C 111.5,142.5 111.5,141.5 111.5,140.5C 108.833,140.5 106.167,140.5 103.5,140.5C 103.5,137.833 103.5,135.167 103.5,132.5C 100.833,132.5 98.1667,132.5 95.5,132.5C 95.5,131.5 95.5,130.5 95.5,129.5C 91.6707,130.069 88.3373,129.402 85.5,127.5C 87.936,126.129 90.6027,125.129 93.5,124.5C 93.3691,125.376 93.7025,126.043 94.5,126.5C 97.7427,125.985 100.576,124.652 103,122.5C 103.595,123.899 103.428,125.232 102.5,126.5C 104.869,128.866 107.536,130.866 110.5,132.5C 111.386,133.325 111.719,134.325 111.5,135.5C 114.898,135.18 118.232,135.513 121.5,136.5C 122.579,138.543 124.246,139.876 126.5,140.5C 127.386,141.325 127.719,142.325 127.5,143.5C 130.167,143.5 132.833,143.5 135.5,143.5C 135.33,144.822 135.663,145.989 136.5,147C 141.196,150.113 145.863,153.28 150.5,156.5C 151.386,157.325 151.719,158.325 151.5,159.5C 153.288,159.215 154.955,159.548 156.5,160.5C 158.187,163.11 159.521,162.777 160.5,159.5C 161.891,161.89 163.891,163.557 166.5,164.5C 167.386,165.325 167.719,166.325 167.5,167.5C 175.5,167.5 183.5,167.5 191.5,167.5C 191.5,170.167 191.5,172.833 191.5,175.5C 193.821,175.229 195.821,175.896 197.5,177.5C 199.201,176.198 200.368,174.531 201,172.5C 201.308,173.308 201.808,173.975 202.5,174.5C 203.524,173.147 204.857,172.48 206.5,172.5 Z"/></g>
<g><path style="opacity:1" fill="#fcfdfd" d="M 224.5,121.5 C 224.5,155.833 224.5,190.167 224.5,224.5C 188.833,224.5 153.167,224.5 117.5,224.5C 125.481,223.825 133.481,222.491 141.5,220.5C 147.947,218.442 154.28,216.109 160.5,213.5C 164.327,211.754 167.993,209.754 171.5,207.5C 174.833,205.167 178.167,202.833 181.5,200.5C 185.86,196.806 189.86,192.806 193.5,188.5C 198.781,183.94 203.114,178.606 206.5,172.5C 211.15,166.196 214.484,159.196 216.5,151.5C 220.038,144.691 222.038,137.357 222.5,129.5C 223.167,126.833 223.833,124.167 224.5,121.5 Z"/></g>
<g><path style="opacity:1" fill="#104b73" d="M 78.5,127.5 C 80.8333,127.5 83.1667,127.5 85.5,127.5C 88.3373,129.402 91.6707,130.069 95.5,129.5C 95.5,130.5 95.5,131.5 95.5,132.5C 98.1667,132.5 100.833,132.5 103.5,132.5C 103.5,135.167 103.5,137.833 103.5,140.5C 106.167,140.5 108.833,140.5 111.5,140.5C 111.5,141.5 111.5,142.5 111.5,143.5C 113.905,144.687 116.239,146.187 118.5,148C 121.482,148.498 124.482,148.665 127.5,148.5C 127.5,150.167 127.5,151.833 127.5,153.5C 130.167,153.5 132.833,153.5 135.5,153.5C 135.5,155.5 135.5,157.5 135.5,159.5C 138.064,160.866 140.564,162.533 143,164.5C 143.483,165.448 143.649,166.448 143.5,167.5C 148.833,168.167 154.167,168.833 159.5,169.5C 159.5,170.5 159.5,171.5 159.5,172.5C 162.167,172.5 164.833,172.5 167.5,172.5C 167.5,175.167 167.5,177.833 167.5,180.5C 170.167,180.5 172.833,180.5 175.5,180.5C 175.5,181.5 175.5,182.5 175.5,183.5C 177.905,184.687 180.239,186.187 182.5,188C 186.152,188.499 189.818,188.665 193.5,188.5C 189.86,192.806 185.86,196.806 181.5,200.5C 181.631,199.624 181.298,198.957 180.5,198.5C 178.997,199.052 177.331,199.052 175.5,198.5C 175.756,196.208 175.423,194.041 174.5,192C 169.567,190.682 164.567,189.849 159.5,189.5C 159.5,187.5 159.5,185.5 159.5,183.5C 156.833,183.5 154.167,183.5 151.5,183.5C 151.768,180.881 151.435,178.381 150.5,176C 145.746,174.111 140.746,173.278 135.5,173.5C 135.739,171.533 135.406,169.699 134.5,168C 129.567,166.682 124.567,165.849 119.5,165.5C 119.5,162.833 119.5,160.167 119.5,157.5C 116.833,157.5 114.167,157.5 111.5,157.5C 111.5,155.5 111.5,153.5 111.5,151.5C 106.167,150.833 100.833,150.167 95.5,149.5C 95.7394,147.533 95.4061,145.699 94.5,144C 92.1902,143.503 89.8568,143.337 87.5,143.5C 87.2964,140.455 87.2964,137.621 87.5,135C 83.5753,135.518 79.5753,135.518 75.5,135C 71.8232,133.12 70.8232,130.287 72.5,126.5C 74.5765,128.288 76.7432,129.954 79,131.5C 83.4471,129.124 83.4471,128.457 79,129.5C 78.5357,128.906 78.369,128.239 78.5,127.5 Z"/></g>
<g><path style="opacity:1" fill="#fcfdfd" d="M -0.5,119.5 C -0.166667,119.5 0.166667,119.5 0.5,119.5C 0.416567,126.997 1.41657,134.33 3.5,141.5C 6.41833,151.332 10.4183,160.666 15.5,169.5C 31.3468,195.494 54.0134,212.661 83.5,221C 89.7846,222.27 96.118,223.103 102.5,223.5C 102.5,223.833 102.5,224.167 102.5,224.5C 68.1667,224.5 33.8333,224.5 -0.5,224.5C -0.5,189.5 -0.5,154.5 -0.5,119.5 Z"/></g>
<g><path style="opacity:1" fill="#0d3d5f" d="M 4.5,119.5 C 3.5,119.5 2.5,119.5 1.5,119.5C 1.18665,122.247 1.51998,124.914 2.5,127.5C 3.93404,125.78 4.76737,123.78 5,121.5C 5.48278,122.448 5.64945,123.448 5.5,124.5C 11.4744,123.556 17.4744,123.556 23.5,124.5C 23.5,125.5 23.5,126.5 23.5,127.5C 24.552,127.351 25.552,127.517 26.5,128C 29.8667,131.981 34.2,133.481 39.5,132.5C 39.5,135.167 39.5,137.833 39.5,140.5C 42.1667,140.5 44.8333,140.5 47.5,140.5C 47.5,141.5 47.5,142.5 47.5,143.5C 48.552,143.351 49.552,143.517 50.5,144C 52.0376,147.242 53.8709,147.742 56,145.5C 58.46,146.958 60.6266,148.791 62.5,151C 63.8333,151.333 65.1667,151.667 66.5,152C 67.3636,153.697 68.6969,154.863 70.5,155.5C 71.4656,157.396 71.7989,159.396 71.5,161.5C 74.1667,161.5 76.8333,161.5 79.5,161.5C 79.5,162.5 79.5,163.5 79.5,164.5C 82.1667,164.5 84.8333,164.5 87.5,164.5C 87.5,165.5 87.5,166.5 87.5,167.5C 88.552,167.351 89.552,167.517 90.5,168C 93.8667,171.981 98.2,173.481 103.5,172.5C 103.34,174.199 103.506,175.866 104,177.5C 106.46,178.958 108.627,180.791 110.5,183C 111.833,183.333 113.167,183.667 114.5,184C 117.867,187.981 122.2,189.481 127.5,188.5C 127.5,190.167 127.5,191.833 127.5,193.5C 130.167,193.5 132.833,193.5 135.5,193.5C 135.5,195.5 135.5,197.5 135.5,199.5C 136.552,199.351 137.552,199.517 138.5,200C 140.038,203.242 141.871,203.742 144,201.5C 148.644,204.141 151.811,207.975 153.5,213C 155.995,212.588 158.329,212.755 160.5,213.5C 154.28,216.109 147.947,218.442 141.5,220.5C 140.602,218.373 138.936,217.206 136.5,217C 138.932,215.913 138.598,215.413 135.5,215.5C 135.5,214.167 135.5,212.833 135.5,211.5C 132.833,211.5 130.167,211.5 127.5,211.5C 127.5,209.5 127.5,207.5 127.5,205.5C 124.833,205.5 122.167,205.5 119.5,205.5C 119.5,203.5 119.5,201.5 119.5,199.5C 114.167,198.833 108.833,198.167 103.5,197.5C 103.5,195.5 103.5,193.5 103.5,191.5C 100.833,191.5 98.1667,191.5 95.5,191.5C 95.5,188.833 95.5,186.167 95.5,183.5C 90.1667,182.833 84.8333,182.167 79.5,181.5C 79.5,179.5 79.5,177.5 79.5,175.5C 72.8213,175.208 67.488,172.208 63.5,166.5C 58.2577,166.383 54.2577,164.216 51.5,160C 47.6952,158.215 43.6952,157.382 39.5,157.5C 39.5,156.5 39.5,155.5 39.5,154.5C 36.2123,154.073 33.2123,154.74 30.5,156.5C 28.6841,155.185 27.0175,153.685 25.5,152C 29.1854,150.239 28.8521,148.572 24.5,147C 18.5092,146.501 12.5092,146.334 6.5,146.5C 7.41199,142.869 7.57865,139.203 7,135.5C 6.66667,137.833 6.33333,140.167 6,142.5C 5.6582,140.381 4.82487,140.047 3.5,141.5C 1.41657,134.33 0.416567,126.997 0.5,119.5C 0.23082,117.571 0.73082,115.905 2,114.5C 3.89207,115.617 4.72541,117.284 4.5,119.5 Z"/></g>
<g><path style="opacity:1" fill="#0c324f" d="M 102.5,223.5 C 96.118,223.103 89.7846,222.27 83.5,221C 54.0134,212.661 31.3468,195.494 15.5,169.5C 16.5832,169.539 17.5832,169.873 18.5,170.5C 17.9836,169.242 18.6503,168.242 20.5,167.5C 21.5063,167.938 21.5063,168.604 20.5,169.5C 21.325,170.386 22.325,170.719 23.5,170.5C 23.5,169.5 23.5,168.5 23.5,167.5C 26.1667,167.5 28.8333,167.5 31.5,167.5C 31.5,170.167 31.5,172.833 31.5,175.5C 34.1667,175.5 36.8333,175.5 39.5,175.5C 39.5,178.167 39.5,180.833 39.5,183.5C 44.8333,183.5 50.1667,183.5 55.5,183.5C 55.5,186.167 55.5,188.833 55.5,191.5C 58.1667,191.5 60.8333,191.5 63.5,191.5C 63.5,194.167 63.5,196.833 63.5,199.5C 68.8333,199.5 74.1667,199.5 79.5,199.5C 79.5,202.167 79.5,204.833 79.5,207.5C 84.8333,207.5 90.1667,207.5 95.5,207.5C 95.335,210.85 95.5017,214.183 96,217.5C 96.3076,216.692 96.8076,216.025 97.5,215.5C 99.1727,217.086 101.173,217.753 103.5,217.5C 103.795,219.735 103.461,221.735 102.5,223.5 Z"/></g>
<g><path style="opacity:1" fill="#0c3859" d="M 141.5,220.5 C 133.481,222.491 125.481,223.825 117.5,224.5C 112.5,224.5 107.5,224.5 102.5,224.5C 102.5,224.167 102.5,223.833 102.5,223.5C 103.461,221.735 103.795,219.735 103.5,217.5C 101.173,217.753 99.1727,217.086 97.5,215.5C 96.8076,216.025 96.3076,216.692 96,217.5C 95.5017,214.183 95.335,210.85 95.5,207.5C 90.1667,207.5 84.8333,207.5 79.5,207.5C 79.5,204.833 79.5,202.167 79.5,199.5C 74.1667,199.5 68.8333,199.5 63.5,199.5C 63.5,196.833 63.5,194.167 63.5,191.5C 60.8333,191.5 58.1667,191.5 55.5,191.5C 55.5,188.833 55.5,186.167 55.5,183.5C 50.1667,183.5 44.8333,183.5 39.5,183.5C 39.5,180.833 39.5,178.167 39.5,175.5C 36.8333,175.5 34.1667,175.5 31.5,175.5C 31.5,172.833 31.5,170.167 31.5,167.5C 28.8333,167.5 26.1667,167.5 23.5,167.5C 23.5,168.5 23.5,169.5 23.5,170.5C 22.325,170.719 21.325,170.386 20.5,169.5C 21.5063,168.604 21.5063,167.938 20.5,167.5C 18.6503,168.242 17.9836,169.242 18.5,170.5C 17.5832,169.873 16.5832,169.539 15.5,169.5C 10.4183,160.666 6.41833,151.332 3.5,141.5C 4.82487,140.047 5.6582,140.381 6,142.5C 6.33333,140.167 6.66667,137.833 7,135.5C 7.57865,139.203 7.41199,142.869 6.5,146.5C 12.5092,146.334 18.5092,146.501 24.5,147C 28.8521,148.572 29.1854,150.239 25.5,152C 27.0175,153.685 28.6841,155.185 30.5,156.5C 33.2123,154.74 36.2123,154.073 39.5,154.5C 39.5,155.5 39.5,156.5 39.5,157.5C 43.6952,157.382 47.6952,158.215 51.5,160C 54.2577,164.216 58.2577,166.383 63.5,166.5C 67.488,172.208 72.8213,175.208 79.5,175.5C 79.5,177.5 79.5,179.5 79.5,181.5C 84.8333,182.167 90.1667,182.833 95.5,183.5C 95.5,186.167 95.5,188.833 95.5,191.5C 98.1667,191.5 100.833,191.5 103.5,191.5C 103.5,193.5 103.5,195.5 103.5,197.5C 108.833,198.167 114.167,198.833 119.5,199.5C 119.5,201.5 119.5,203.5 119.5,205.5C 122.167,205.5 124.833,205.5 127.5,205.5C 127.5,207.5 127.5,209.5 127.5,211.5C 130.167,211.5 132.833,211.5 135.5,211.5C 135.5,212.833 135.5,214.167 135.5,215.5C 138.598,215.413 138.932,215.913 136.5,217C 138.936,217.206 140.602,218.373 141.5,220.5 Z"/></g>
</svg>
