<?xml version="1.0" standalone="no"?>
<!DOCTYPE svg PUBLIC "-//W3C//DTD SVG 20010904//EN"
 "http://www.w3.org/TR/2001/REC-SVG-20010904/DTD/svg10.dtd">
<svg version="1.0" xmlns="http://www.w3.org/2000/svg"
 width="2560.000000pt" height="845.000000pt" viewBox="0 0 2560.000000 845.000000"
 preserveAspectRatio="xMidYMid meet">

<g transform="translate(0.000000,845.000000) scale(0.100000,-0.100000)"
fill="#000000" stroke="none">
<path d="M687 8434 c-224 -40 -432 -178 -557 -370 -50 -77 -79 -143 -108 -249
-16 -55 -17 -202 -17 -1740 0 -1888 -7 -1720 76 -1892 106 -221 291 -370 559
-451 50 -15 186 -17 1440 -22 l1385 -5 5 -1525 5 -1525 24 -70 c91 -270 279
-462 539 -552 l97 -33 10396 0 10397 0 68 21 c281 87 497 307 577 588 l22 76
3 1714 c2 1494 0 1726 -13 1803 -56 324 -286 573 -621 670 l-79 23 -1322 3
-1322 3 -3 1427 -3 1427 -22 78 c-12 42 -44 119 -70 170 -38 75 -65 110 -143
188 -139 141 -272 211 -460 245 -115 20 -20739 19 -20853 -2z m9888 -784 c301
-15 448 -43 590 -109 200 -94 312 -249 370 -510 27 -121 45 -292 45 -433 l0
-98 -434 0 -433 0 -5 93 c-6 109 -31 177 -86 230 -76 74 -173 97 -412 97 -377
-1 -493 -75 -529 -334 -14 -101 -14 -944 -1 -1054 21 -163 78 -256 188 -305
89 -39 185 -50 403 -45 219 6 271 17 339 76 72 61 90 112 99 282 l6 125 433 3
432 2 0 -187 c0 -203 -16 -344 -51 -453 -94 -292 -337 -485 -700 -556 -65 -12
-171 -17 -461 -21 -626 -8 -857 21 -1098 139 -90 44 -118 64 -191 138 -77 76
-93 99 -142 201 -59 120 -96 249 -119 414 -9 65 -13 260 -13 710 0 557 2 631
18 730 101 598 422 831 1191 864 257 12 342 12 561 1z m2990 0 c492 -23 782
-118 984 -322 118 -119 196 -275 243 -490 23 -102 23 -113 23 -788 0 -676 0
-686 -23 -788 -47 -215 -115 -352 -235 -478 -154 -163 -371 -261 -682 -309
-183 -28 -502 -40 -727 -27 -459 27 -703 97 -919 267 -118 93 -233 275 -278
445 -47 173 -51 238 -51 890 0 497 3 634 15 715 38 255 118 427 266 573 190
189 498 290 944 311 229 11 231 11 440 1z m-11425 -1235 l0 -1215 660 0 660 0
0 -365 0 -365 -1085 0 -1085 0 0 1580 0 1580 425 0 425 0 0 -1215z m2550 -365
l0 -1580 -425 0 -425 0 0 1580 0 1580 425 0 425 0 0 -1580z m2361 365 c376
-1005 457 -1215 472 -1215 18 0 18 11 12 223 -7 259 -45 2052 -45 2144 l0 63
420 0 420 0 0 -1580 0 -1580 -721 2 -721 3 -402 1095 c-221 602 -421 1148
-445 1213 -59 161 -71 157 -71 -20 0 -129 35 -1883 43 -2165 l4 -128 -424 0
-423 0 0 1580 0 1580 713 0 714 0 454 -1215z m8979 0 l0 -1215 670 0 670 0 0
-365 0 -365 -1100 0 -1100 0 0 1580 0 1580 430 0 430 0 0 -1215z m3565 0 c321
-857 458 -1211 469 -1213 14 -3 16 9 16 88 0 119 -37 1910 -45 2153 l-6 187
421 0 420 0 0 -1580 0 -1580 -718 0 -718 0 -445 1211 c-244 666 -450 1214
-457 1216 -7 3 -15 3 -18 0 -5 -5 27 -1694 42 -2204 l6 -223 -421 0 -421 0 0
1580 0 1580 711 -2 711 -3 453 -1210z m-5200 -3349 c242 -39 391 -123 475
-270 59 -105 107 -351 98 -506 l-3 -55 -360 0 -360 0 -6 70 c-7 87 -26 131
-72 172 -45 39 -84 51 -212 64 -164 17 -368 -2 -445 -41 -81 -42 -114 -103
-130 -237 -13 -113 -13 -579 0 -702 17 -159 66 -233 177 -267 114 -36 463 -35
548 0 90 38 126 101 133 234 l5 92 365 0 365 0 -6 -172 c-3 -114 -10 -194 -21
-233 -55 -204 -205 -355 -427 -431 -135 -45 -224 -56 -534 -61 -670 -12 -944
44 -1132 233 -110 111 -169 251 -193 462 -18 153 -8 977 13 1062 95 391 321
549 857 600 154 14 747 5 865 -14z m8358 0 c388 -62 539 -247 554 -678 l6
-158 -350 0 -350 0 -6 74 c-7 90 -33 146 -88 185 -22 16 -61 34 -87 40 -84 17
-254 23 -360 12 -162 -17 -240 -62 -279 -161 -15 -40 -18 -91 -21 -435 -4
-407 1 -473 39 -547 23 -44 70 -82 129 -103 63 -22 234 -33 378 -25 106 7 130
11 179 36 80 40 106 91 111 220 l4 94 356 0 355 0 -6 -157 c-9 -257 -48 -380
-158 -498 -77 -82 -152 -131 -261 -172 -160 -60 -229 -68 -643 -68 -249 0
-404 4 -474 13 -445 57 -646 238 -706 637 -21 142 -21 907 0 1047 64 424 302
610 843 658 157 14 720 5 835 -14z m-14803 -251 l0 -255 -595 0 -595 0 0 -210
0 -210 555 0 555 0 0 -220 0 -220 -555 0 -555 0 0 -225 0 -225 605 0 605 0 0
-255 0 -255 -955 0 -955 0 0 1165 0 1165 945 0 945 0 0 -255z m1090 -640 l0
-895 545 0 545 0 0 -270 0 -270 -895 0 -895 0 0 1165 0 1165 350 0 350 0 0
-895z m3300 640 l0 -255 -590 0 -590 0 0 -210 0 -210 555 0 555 0 0 -220 0
-220 -555 0 -555 0 0 -225 0 -225 605 0 605 0 0 -255 0 -255 -955 0 -955 0 0
1165 0 1165 940 0 940 0 0 -255z m4820 -15 l0 -270 -345 0 -345 0 0 -895 0
-895 -350 0 -350 0 0 895 0 895 -330 0 -330 0 0 270 0 270 1025 0 1025 0 0
-270z m3528 -892 l-3 -1163 -362 -3 -363 -2 0 1165 0 1165 365 0 365 0 -2
-1162z m-1749 1141 c370 -34 548 -160 618 -435 26 -101 26 -529 0 -623 -48
-176 -159 -274 -376 -332 -46 -13 -80 -27 -78 -33 2 -6 35 -14 73 -17 136 -13
248 -71 310 -162 60 -88 66 -122 71 -429 l5 -278 -340 0 -340 0 -4 218 c-3
204 -4 220 -27 265 -12 26 -38 59 -57 73 -64 49 -103 54 -421 54 l-293 0 0
-310 0 -310 -335 0 -335 0 0 1165 0 1165 708 0 c423 0 753 -4 821 -11z"/>
<path d="M13092 6909 c-191 -29 -274 -114 -309 -315 -12 -70 -14 -177 -10
-587 3 -442 6 -509 21 -562 37 -123 90 -186 190 -224 81 -30 260 -45 461 -38
248 10 337 35 412 121 43 49 68 112 84 217 6 43 9 254 7 581 -4 497 -4 515
-26 579 -40 121 -102 180 -227 215 -47 13 -113 17 -300 20 -132 1 -268 -2
-303 -7z"/>
<path d="M18080 2215 l0 -316 328 3 c326 3 327 3 377 28 80 40 89 65 93 255 4
178 -4 227 -45 276 -52 62 -64 63 -425 67 l-328 3 0 -316z"/>
<path d="M22956 6194 c-133 -32 -249 -122 -306 -238 -89 -181 -53 -404 88
-538 284 -271 758 -121 811 257 48 336 -255 601 -593 519z m278 -123 c148 -72
224 -248 183 -417 -44 -175 -184 -282 -360 -272 -130 7 -236 77 -294 196 -25
51 -28 67 -28 162 0 93 3 112 26 161 67 142 179 212 331 206 62 -3 89 -10 142
-36z"/>
<path d="M22890 5740 l0 -260 55 0 55 0 0 110 0 110 33 0 c30 0 35 -6 92 -108
l60 -107 53 -3 c28 -2 52 -1 52 2 0 3 -29 54 -65 112 -36 59 -64 108 -62 110
1 2 20 9 42 16 109 36 116 206 11 258 -37 17 -62 20 -184 20 l-142 0 0 -260z
m280 160 c11 -11 20 -31 20 -45 0 -47 -31 -65 -115 -65 l-75 0 0 65 0 65 75 0
c62 0 79 -4 95 -20z"/>
</g>
</svg>
