<?xml version="1.0" standalone="no"?>
<!DOCTYPE svg PUBLIC "-//W3C//DTD SVG 20010904//EN"
 "http://www.w3.org/TR/2001/REC-SVG-20010904/DTD/svg10.dtd">
<svg version="1.0" xmlns="http://www.w3.org/2000/svg"
 width="2560.000000pt" height="751.000000pt" viewBox="0 0 2560.000000 751.000000"
 preserveAspectRatio="xMidYMid meet">

<g transform="translate(0.000000,751.000000) scale(0.100000,-0.100000)"
fill="#000000" stroke="none">
<path d="M0 7478 c0 -2 461 -1162 1023 -2578 l1023 -2575 35 -3 34 -3 590
1341 589 1341 35 -3 36 -3 605 -1337 c572 -1266 606 -1338 630 -1338 24 0 59
89 1008 2566 541 1411 981 2572 978 2580 -5 12 -86 14 -539 14 l-533 0 -349
-832 c-191 -458 -411 -983 -488 -1165 l-140 -333 -31 0 -32 0 -574 1130 -574
1131 -34 -3 -34 -3 -536 -1142 -537 -1143 -35 0 -35 0 -486 1178 -485 1177
-572 3 c-315 1 -572 1 -572 0z"/>
<path d="M18415 7468 c-3 -7 -4 -1118 -3 -2468 l3 -2455 528 -3 527 -2 0 2470
0 2470 -525 0 c-411 0 -527 -3 -530 -12z"/>
<path d="M19971 7424 c-151 -53 -231 -184 -201 -329 58 -279 457 -315 591 -53
18 36 21 54 16 120 -6 95 -32 153 -89 198 -91 74 -217 99 -317 64z m214 -38
c95 -40 155 -123 155 -215 0 -64 -18 -102 -79 -164 -94 -98 -250 -105 -367
-17 -85 64 -117 166 -80 254 18 42 80 113 117 132 70 35 182 40 254 10z"/>
<path d="M19950 7160 l0 -160 35 0 35 0 0 60 c0 59 0 60 29 60 38 0 93 -19
109 -38 6 -9 12 -31 12 -49 0 -29 3 -33 25 -33 23 0 25 4 25 43 0 45 -29 87
-60 87 -7 0 2 10 21 23 31 21 34 27 34 72 0 45 -3 51 -34 72 -30 20 -46 23
-132 23 l-99 0 0 -160z m157 119 c33 -12 43 -26 43 -59 0 -38 -18 -50 -77 -50
l-53 0 0 60 c0 60 0 60 29 60 16 0 42 -5 58 -11z"/>
<path d="M16100 6529 c-412 -40 -800 -241 -1081 -563 -214 -243 -369 -551
-414 -824 -14 -84 -16 -148 -12 -369 4 -252 6 -273 31 -359 49 -170 140 -360
261 -546 l63 -96 -216 -214 -217 -213 -6 1050 c-4 780 -8 1062 -17 1095 -101
370 -331 654 -672 830 -241 123 -485 167 -783 141 -244 -21 -376 -60 -618
-181 -87 -44 -161 -80 -164 -80 -3 0 -5 56 -5 125 l0 125 -500 0 -500 0 0
-1945 0 -1945 500 0 499 0 4 1143 3 1142 22 85 c37 138 94 243 182 330 86 86
163 129 284 160 98 25 265 27 351 5 171 -45 293 -173 352 -370 16 -56 18 -144
21 -1267 l3 -1208 519 0 520 0 0 370 c0 223 4 370 9 370 11 0 43 -25 503 -388
169 -133 311 -243 317 -244 5 -2 35 33 67 77 158 219 299 331 499 395 142 45
428 37 614 -16 472 -137 768 -569 748 -1089 -10 -251 -106 -477 -284 -666 -92
-97 -179 -161 -308 -224 -164 -81 -252 -100 -455 -99 -135 1 -179 5 -242 22
-236 64 -438 192 -568 358 -29 38 -57 73 -62 78 -6 8 -251 -237 -633 -633
l-90 -93 70 -64 c404 -373 747 -574 1105 -651 70 -15 131 -18 345 -18 354 0
463 14 698 91 222 72 409 169 594 308 305 228 537 544 696 946 104 264 130
407 131 725 0 171 -2 203 -27 318 -97 455 -332 898 -659 1244 l-69 73 49 62
c146 187 261 423 307 630 25 115 32 476 11 598 -14 79 -103 462 -122 522 -5
16 9 18 157 20 l163 3 12 70 c16 95 70 298 149 560 46 151 65 230 63 259 l-3
41 -1055 1 c-580 1 -1093 -2 -1140 -7z m360 -1083 c298 -101 508 -463 435
-751 -74 -291 -400 -536 -680 -511 -272 25 -476 181 -561 431 -36 106 -45 295
-19 395 44 169 164 314 327 395 51 25 125 52 163 60 101 21 240 13 335 -19z"/>
<path d="M21415 6514 c-480 -48 -862 -208 -1187 -498 -278 -247 -495 -604
-590 -971 -19 -71 -21 -117 -25 -409 -5 -369 1 -433 63 -649 152 -529 474
-989 874 -1250 246 -160 523 -255 839 -287 378 -38 748 39 1156 239 204 100
443 254 549 352 l69 65 -182 361 c-100 199 -190 371 -199 383 -17 20 -18 19
-107 -61 -387 -348 -689 -488 -1060 -490 -102 -1 -133 3 -210 26 -147 43 -313
143 -491 293 l-39 34 25 19 c14 10 336 235 715 500 380 265 922 644 1205 841
283 198 521 366 529 373 12 12 3 31 -62 127 -115 170 -196 269 -351 424 -316
316 -633 488 -1031 560 -86 15 -401 27 -490 18z m165 -909 c137 -13 319 -91
400 -170 30 -31 33 -37 20 -49 -24 -23 -1444 -995 -1448 -991 -2 2 -8 69 -13
150 -9 124 -7 159 7 228 52 256 200 522 366 656 77 63 189 122 285 151 73 22
219 39 283 34 19 -2 64 -6 100 -9z"/>
<path d="M7917 6489 c-47 -11 -95 -35 -228 -115 -109 -66 -183 -100 -276 -127
l-53 -16 0 110 0 109 -505 0 -505 0 0 -1930 0 -1930 503 2 502 3 5 1215 c5
1212 5 1215 26 1260 38 79 113 167 197 231 174 132 491 253 760 290 l87 12 0
449 0 448 -237 -1 c-131 -1 -255 -5 -276 -10z"/>
<path d="M8760 6218 c-34 -128 -84 -315 -110 -415 l-48 -183 766 -2 767 -3 3
-273 2 -272 -97 49 c-173 86 -299 115 -592 132 -307 19 -506 -13 -717 -116
-362 -176 -615 -517 -705 -949 -27 -126 -29 -345 -6 -486 90 -538 434 -943
921 -1084 175 -51 400 -69 573 -45 166 22 278 60 503 167 l125 60 3 -119 3
-119 444 0 445 0 0 1945 0 1945 -1108 0 -1109 0 -63 -232z m895 -1883 c209
-55 355 -250 359 -480 1 -91 -33 -163 -118 -249 -113 -115 -250 -170 -421
-171 -164 0 -281 51 -410 180 -95 95 -129 164 -133 271 -7 143 31 258 111 338
91 91 203 125 412 125 96 1 160 -4 200 -14z"/>
<path d="M23520 4490 l0 -1960 485 0 485 0 0 1179 c0 750 4 1198 10 1231 61
322 492 560 1015 560 l85 0 0 476 0 476 -247 -5 c-261 -5 -311 -12 -461 -63
-95 -31 -162 -69 -269 -151 -46 -35 -87 -63 -93 -63 -6 0 -10 52 -10 140 l0
140 -500 0 -500 0 0 -1960z"/>
</g>
</svg>
